<svg xmlns="http://www.w3.org/2000/svg" width="156.061" height="40" viewBox="0 0 156.061 40">
  <defs>
    <style>
      .cls-1 {
        fill: #55565a;
      }

      .cls-2 {
        fill: #007674;
      }
    </style>
  </defs>
  <g id="EmpirePhysicians" transform="translate(-125.343 -349.155)">
    <g id="Group_212" data-name="Group 212" transform="translate(164.377 353.694)">
      <path id="Path_468" data-name="Path 468" class="cls-1" d="M215.923,360.07h4.693v.823H216.87v3.416h3.553v.824H216.87v3.691h3.911v.824h-4.857Z" transform="translate(-215.923 -359.905)"/>
      <path id="Path_469" data-name="Path 469" class="cls-1" d="M231.844,360.07h1.468l3.5,8.425,3.513-8.425h1.359v9.577h-.947v-8.631h-.027l-3.485,8.631h-.809l-3.6-8.631h-.028v8.631h-.946Z" transform="translate(-224.983 -359.905)"/>
      <path id="Path_470" data-name="Path 470" class="cls-1" d="M260.15,360.07h2.36c1.8,0,2.964.905,2.964,2.717,0,1.784-1.344,2.717-3.059,2.717H261.1v4.144h-.947Zm.947,4.61h.658c1.427,0,2.772-.165,2.772-1.894a1.72,1.72,0,0,0-1.894-1.894H261.1Z" transform="translate(-241.091 -359.905)"/>
      <path id="Path_471" data-name="Path 471" class="cls-1" d="M275.784,360.07h.947v9.577h-.947Z" transform="translate(-249.988 -359.905)"/>
      <path id="Path_472" data-name="Path 472" class="cls-1" d="M283.2,360.07h2.47c1.7,0,2.813.727,2.813,2.483a2.257,2.257,0,0,1-2.127,2.209v.028c.768.1.933.508,1.235,1.152l1.633,3.705h-1.043l-1.386-3.238c-.549-1.235-.961-1.276-1.866-1.276h-.783v4.514H283.2Zm.947,4.24h1c1.111,0,2.387-.425,2.387-1.756,0-1.564-1.111-1.66-2.415-1.66h-.974Z" transform="translate(-254.209 -359.905)"/>
      <path id="Path_473" data-name="Path 473" class="cls-1" d="M300.843,360.07h4.693v.823H301.79v3.416h3.553v.824H301.79v3.691H305.7v.824h-4.857Z" transform="translate(-264.248 -359.905)"/>
      <path id="Path_474" data-name="Path 474" class="cls-1" d="M325.615,360.07h2.36c1.8,0,2.964.905,2.964,2.717,0,1.784-1.344,2.717-3.06,2.717h-1.317v4.144h-.946Zm.946,4.61h.658c1.427,0,2.772-.165,2.772-1.894a1.72,1.72,0,0,0-1.894-1.894h-1.537Z" transform="translate(-278.345 -359.905)"/>
      <path id="Path_475" data-name="Path 475" class="cls-1" d="M341.6,360.07h.947v4.24h4.844v-4.24h.946v9.577h-.946v-4.514h-4.844v4.514H341.6Z" transform="translate(-287.441 -359.905)"/>
      <path id="Path_476" data-name="Path 476" class="cls-1" d="M363.97,365.586l-3.554-5.516h1.1l2.923,4.679,3-4.679h1.029l-3.554,5.516v4.062h-.947Z" transform="translate(-298.149 -359.905)"/>
      <path id="Path_477" data-name="Path 477" class="cls-1" d="M381.46,368.208a3.77,3.77,0,0,0,2.113.563,1.911,1.911,0,0,0,2.155-1.962c0-1.88-4.391-2.113-4.391-4.624,0-1.537,1.345-2.5,3.033-2.5a5.713,5.713,0,0,1,1.88.316l-.151.864a3.9,3.9,0,0,0-1.742-.357c-.989,0-2.072.412-2.072,1.647,0,1.921,4.391,1.934,4.391,4.734,0,1.935-1.66,2.7-3.142,2.7a5.472,5.472,0,0,1-2.168-.412Z" transform="translate(-310.054 -359.687)"/>
      <path id="Path_478" data-name="Path 478" class="cls-1" d="M397.862,360.07h.947v9.577h-.947Z" transform="translate(-319.459 -359.905)"/>
      <path id="Path_479" data-name="Path 479" class="cls-1" d="M411.264,360.922a4.968,4.968,0,0,0-2.14-.412c-2.484,0-3.883,1.757-3.883,4.13,0,2.415,1.358,4.13,3.883,4.13a4.736,4.736,0,0,0,2.14-.412l.055.823a5.173,5.173,0,0,1-2.2.412c-3.019,0-4.83-1.99-4.83-4.953a4.621,4.621,0,0,1,4.83-4.954,6.193,6.193,0,0,1,2.2.357Z" transform="translate(-323.118 -359.687)"/>
      <path id="Path_480" data-name="Path 480" class="cls-1" d="M426.169,360.07h.946v9.577h-.946Z" transform="translate(-335.567 -359.905)"/>
      <path id="Path_481" data-name="Path 481" class="cls-1" d="M435.122,360.07h1.07l3.8,9.577h-.988l-1.029-2.566h-4.83l-1.029,2.566H431.2Zm.467.905-2.085,5.283h4.157Z" transform="translate(-338.429 -359.905)"/>
      <path id="Path_482" data-name="Path 482" class="cls-1" d="M454.474,360.07h1.193l4.871,8.425h.028V360.07h.946v9.577h-1.276l-4.789-8.261h-.028v8.261h-.946Z" transform="translate(-351.675 -359.905)"/>
      <path id="Path_483" data-name="Path 483" class="cls-1" d="M475.23,368.208a3.77,3.77,0,0,0,2.113.563,1.911,1.911,0,0,0,2.154-1.962c0-1.88-4.391-2.113-4.391-4.624,0-1.537,1.345-2.5,3.032-2.5a5.719,5.719,0,0,1,1.88.316l-.151.864a3.9,3.9,0,0,0-1.743-.357c-.988,0-2.072.412-2.072,1.647,0,1.921,4.391,1.934,4.391,4.734,0,1.935-1.66,2.7-3.142,2.7a5.472,5.472,0,0,1-2.168-.412Z" transform="translate(-363.416 -359.687)"/>
      <path id="Path_484" data-name="Path 484" class="cls-1" d="M215.923,394.185h1.468l3.5,8.425,3.513-8.425h1.358v9.578h-.947v-8.631h-.028l-3.485,8.631h-.809l-3.6-8.631h-.027v8.631h-.947Z" transform="translate(-215.923 -379.319)"/>
      <path id="Path_485" data-name="Path 485" class="cls-1" d="M244.229,394.185h4.693v.823h-3.746v3.416h3.554v.824h-3.554v3.691h3.911v.824h-4.857Z" transform="translate(-232.031 -379.319)"/>
      <path id="Path_486" data-name="Path 486" class="cls-1" d="M259.959,394.185h2.374c3.43,0,4.789,1.976,4.789,4.775,0,3.472-2.318,4.8-5.488,4.8h-1.674Zm.947,8.754h.782c2.717,0,4.487-1.1,4.487-4.034s-1.742-3.9-3.883-3.9h-1.386Z" transform="translate(-240.983 -379.319)"/>
      <path id="Path_487" data-name="Path 487" class="cls-1" d="M281.1,394.185h.947v9.578H281.1Z" transform="translate(-253.014 -379.319)"/>
      <path id="Path_488" data-name="Path 488" class="cls-1" d="M294.5,395.038a4.961,4.961,0,0,0-2.14-.412c-2.484,0-3.883,1.756-3.883,4.13,0,2.415,1.358,4.13,3.883,4.13a4.737,4.737,0,0,0,2.14-.412l.055.824a5.181,5.181,0,0,1-2.2.412c-3.019,0-4.83-1.99-4.83-4.954a4.621,4.621,0,0,1,4.83-4.953,6.2,6.2,0,0,1,2.2.357Z" transform="translate(-256.673 -379.101)"/>
      <path id="Path_489" data-name="Path 489" class="cls-1" d="M311.294,394.185h1.07l3.8,9.578h-.988l-1.029-2.566h-4.83l-1.029,2.566h-.919Zm.467.906-2.086,5.283h4.157Z" transform="translate(-267.963 -379.319)"/>
      <path id="Path_490" data-name="Path 490" class="cls-1" d="M330.741,394.185h.946v8.754h3.842v.824h-4.789Z" transform="translate(-281.262 -379.319)"/>
      <path id="Path_491" data-name="Path 491" class="cls-1" d="M360.081,399.182h-2.223v-.823h3.169v4.761a7.161,7.161,0,0,1-2.977.59c-3.019,0-4.83-1.99-4.83-4.954a4.62,4.62,0,0,1,4.83-4.953,6.737,6.737,0,0,1,2.566.453l-.109.878a5.044,5.044,0,0,0-2.456-.507c-2.483,0-3.883,1.756-3.883,4.13,0,2.415,1.358,4.13,3.883,4.13a4.868,4.868,0,0,0,2.031-.343Z" transform="translate(-294.054 -379.101)"/>
      <path id="Path_492" data-name="Path 492" class="cls-1" d="M376.972,394.185h2.47c1.7,0,2.813.727,2.813,2.483a2.258,2.258,0,0,1-2.127,2.209v.028c.768.1.933.508,1.235,1.152L383,403.763h-1.043l-1.386-3.238c-.549-1.235-.96-1.276-1.866-1.276h-.782v4.514h-.947Zm.947,4.24h1c1.111,0,2.387-.425,2.387-1.756,0-1.564-1.111-1.66-2.415-1.66h-.974Z" transform="translate(-307.571 -379.319)"/>
      <path id="Path_493" data-name="Path 493" class="cls-1" d="M397.805,393.8c2.882,0,4.24,2.36,4.212,4.953-.028,2.936-1.454,4.954-4.212,4.954s-4.185-2.017-4.213-4.954C393.565,396.163,394.924,393.8,397.805,393.8Zm-3.266,4.953c0,2.031,1.015,4.13,3.266,4.13s3.266-2.1,3.266-4.13-1.015-4.13-3.266-4.13S394.54,396.726,394.54,398.757Z" transform="translate(-317.029 -379.101)"/>
      <path id="Path_494" data-name="Path 494" class="cls-1" d="M424.385,400.415a3.472,3.472,0,1,1-6.943,0v-6.23h.947v6.23a2.53,2.53,0,1,0,5.049,0v-6.23h.947Z" transform="translate(-330.601 -379.319)"/>
      <path id="Path_495" data-name="Path 495" class="cls-1" d="M438.84,394.185h2.36c1.8,0,2.963.906,2.963,2.717,0,1.784-1.344,2.717-3.059,2.717h-1.318v4.144h-.946Zm.946,4.611h.658c1.427,0,2.772-.165,2.772-1.894a1.72,1.72,0,0,0-1.894-1.893h-1.537Z" transform="translate(-342.778 -379.319)"/>
    </g>
    <g id="Group_214" data-name="Group 214" transform="translate(164.388 382.492)">
      <g id="Group_213" data-name="Group 213" transform="translate(0)">
        <path id="Path_496" data-name="Path 496" class="cls-1" d="M215.948,427.564H217.2c.98,0,1.8.343,1.8,1.432,0,1.062-.83,1.439-1.693,1.439h-.672v1.912h-.686Zm.686,2.269h.679a.861.861,0,0,0,.96-.843c0-.6-.631-.823-1.056-.823h-.583Z" transform="translate(-215.948 -427.125)"/>
        <path id="Path_497" data-name="Path 497" class="cls-1" d="M224.2,430.692a2.225,2.225,0,0,1,1.152-.329c1,0,1.4.493,1.4,1.447v1.446a5.5,5.5,0,0,0,.028.686h-.6v-.452h-.013a1.3,1.3,0,0,1-1.083.535c-.754,0-1.282-.329-1.282-1.09,0-.877.96-1.151,1.625-1.151.253,0,.432,0,.685.014,0-.6-.219-.912-.864-.912a1.643,1.643,0,0,0-1.014.356Zm1.912,1.583c-.137,0-.274-.013-.411-.013-.349,0-1.214.055-1.214.672a.616.616,0,0,0,.651.569.882.882,0,0,0,.973-.918Z" transform="translate(-220.42 -428.718)"/>
        <path id="Path_498" data-name="Path 498" class="cls-1" d="M232.792,430.445h.6v.541h.014a1.063,1.063,0,0,1,.911-.624,1.813,1.813,0,0,1,.425.048v.576a.957.957,0,0,0-.357-.061c-.576,0-.952.548-.952,1.426v1.59h-.645Z" transform="translate(-225.533 -428.718)"/>
        <path id="Path_499" data-name="Path 499" class="cls-1" d="M240.176,429.735h-.925v1.912a.554.554,0,0,0,.541.624.8.8,0,0,0,.439-.123v.549a2.026,2.026,0,0,1-.548.1c-.665,0-1.076-.315-1.076-1.014v-2.043h-.788v-.521h.788v-.809l.645-.205v1.014h.925Z" transform="translate(-228.394 -427.487)"/>
        <path id="Path_500" data-name="Path 500" class="cls-1" d="M250.034,430.363a1.724,1.724,0,0,1,1.775,1.83,1.78,1.78,0,1,1-3.558,0A1.726,1.726,0,0,1,250.034,430.363Zm0,3.139a1.172,1.172,0,0,0,1.09-1.309,1.111,1.111,0,1,0-2.187,0A1.172,1.172,0,0,0,250.034,433.5Z" transform="translate(-234.331 -428.718)"/>
        <path id="Path_501" data-name="Path 501" class="cls-1" d="M258,428.794h-.823v-.521H258v-.322c0-.85.219-1.405,1.172-1.405a2.625,2.625,0,0,1,.432.041l-.028.521a1.011,1.011,0,0,0-.309-.041c-.555,0-.624.356-.624.83v.377h.925v.521h-.925v2.975H258Z" transform="translate(-239.409 -426.545)"/>
        <path id="Path_502" data-name="Path 502" class="cls-1" d="M269.8,427.372a2.481,2.481,0,1,1-2.3,2.475A2.257,2.257,0,0,1,269.8,427.372Zm0,4.346c1.1,0,1.577-.919,1.577-1.872,0-.973-.521-1.878-1.577-1.871s-1.576.9-1.576,1.871C268.225,430.8,268.7,431.718,269.8,431.718Z" transform="translate(-245.283 -427.016)"/>
        <path id="Path_503" data-name="Path 503" class="cls-1" d="M279.905,430.445h.617v.493h.014a1.4,1.4,0,0,1,1.186-.576c1.014,0,1.508.829,1.508,1.769,0,.96-.446,1.892-1.5,1.892a1.253,1.253,0,0,1-1.165-.562h-.014v1.919h-.644Zm1.679.439c-.7,0-1.036.665-1.036,1.316,0,.583.3,1.3,1.028,1.3.692,0,.98-.774.967-1.323C282.557,431.549,282.283,430.884,281.584,430.884Z" transform="translate(-252.344 -428.718)"/>
        <path id="Path_504" data-name="Path 504" class="cls-1" d="M290.422,429.735H289.5v1.912a.554.554,0,0,0,.541.624.8.8,0,0,0,.439-.123v.549a2.02,2.02,0,0,1-.548.1c-.665,0-1.076-.315-1.076-1.014v-2.043h-.788v-.521h.788v-.809l.644-.205v1.014h.925Z" transform="translate(-256.987 -427.487)"/>
        <path id="Path_505" data-name="Path 505" class="cls-1" d="M298.106,434.05h-.624v-.555h-.013a1.258,1.258,0,0,1-1.145.637c-.9,0-1.309-.562-1.309-1.5v-2.077h.644v1.809c0,.816.178,1.214.74,1.248.734,0,1.063-.589,1.063-1.439v-1.618h.644Z" transform="translate(-260.942 -428.826)"/>
        <path id="Path_506" data-name="Path 506" class="cls-1" d="M304.319,430.445h.6v.507h.013a1.183,1.183,0,0,1,1.111-.589,1.033,1.033,0,0,1,.994.679,1.246,1.246,0,0,1,1.083-.679c.891,0,1.214.576,1.214,1.337v2.241h-.645v-2.084c0-.431-.1-.973-.624-.973-.658,0-.918.645-.918,1.3v1.762h-.645v-2.084c0-.431-.1-.973-.624-.973-.658,0-.919.645-.919,1.3v1.762h-.644Z" transform="translate(-266.237 -428.718)"/>
        <path id="Path_507" data-name="Path 507" class="cls-1" d="M321.2,428.243a1.92,1.92,0,0,0-.987-.267,1.872,1.872,0,0,0-.034,3.743,2.358,2.358,0,0,0,1.042-.233l.041.665a2.994,2.994,0,0,1-1.09.171,2.356,2.356,0,0,1-2.522-2.495,2.385,2.385,0,0,1,2.529-2.455,2.637,2.637,0,0,1,1.076.206Z" transform="translate(-273.822 -427.016)"/>
        <path id="Path_508" data-name="Path 508" class="cls-1" d="M327.254,430.692a2.225,2.225,0,0,1,1.152-.329c1,0,1.405.493,1.405,1.447v1.446a5.53,5.53,0,0,0,.027.686h-.6v-.452h-.014a1.3,1.3,0,0,1-1.083.535c-.754,0-1.282-.329-1.282-1.09,0-.877.96-1.151,1.625-1.151.253,0,.432,0,.685.014,0-.6-.219-.912-.864-.912a1.644,1.644,0,0,0-1.014.356Zm1.912,1.583c-.137,0-.274-.013-.411-.013-.349,0-1.213.055-1.213.672a.616.616,0,0,0,.651.569.882.882,0,0,0,.973-.918Z" transform="translate(-279.063 -428.718)"/>
        <path id="Path_509" data-name="Path 509" class="cls-1" d="M335.844,430.445h.6v.541h.014a1.064,1.064,0,0,1,.912-.624,1.809,1.809,0,0,1,.425.048v.576a.957.957,0,0,0-.356-.061c-.576,0-.953.548-.953,1.426v1.59h-.644Z" transform="translate(-284.177 -428.718)"/>
        <path id="Path_510" data-name="Path 510" class="cls-1" d="M344.006,433.8a2.676,2.676,0,0,1-1.1.226,1.673,1.673,0,0,1-1.81-1.892,1.624,1.624,0,0,1,1.638-1.769c1.165,0,1.542.85,1.542,1.974h-2.5a1.144,1.144,0,0,0,1.151,1.165,2.066,2.066,0,0,0,1.076-.349Zm-.418-1.94a.882.882,0,0,0-.87-.973.968.968,0,0,0-.939.973Z" transform="translate(-287.164 -428.718)"/>
      </g>
      <path id="Path_511" data-name="Path 511" class="cls-1" d="M349.566,428.233a1.441,1.441,0,1,1,1.441,1.442A1.442,1.442,0,0,1,349.566,428.233Zm2.531,0a1.092,1.092,0,1,0-1.09,1.162A1.106,1.106,0,0,0,352.1,428.233Zm-1.644-.822h.607c.391,0,.6.136.6.479a.408.408,0,0,1-.427.439l.44.715h-.312l-.423-.7h-.184v.7h-.3Zm.3.7h.267c.18,0,.335-.024.335-.243,0-.191-.175-.224-.331-.224h-.271Z" transform="translate(-291.986 -426.686)"/>
    </g>
    <g id="Group_215" data-name="Group 215" transform="translate(125.343 349.155)">
      <path id="Path_512" data-name="Path 512" class="cls-2" d="M144.378,353.263c.132.019.321-.075.415.076a3.859,3.859,0,0,0-.623,1.491c.472.189.792-.17,1.208-.34a9.077,9.077,0,0,1,2.483-.749v-4.587H136.5v6.678a16.118,16.118,0,0,1,3.267.565C141.225,355.4,142.584,353.868,144.378,353.263Zm-14.434,7.15h-4.6v2.874A11.216,11.216,0,0,1,129.944,360.414Zm3.032,4.213a6.539,6.539,0,0,0-2.435,1.02h-.17a4.047,4.047,0,0,1,.7-1.6,6.968,6.968,0,0,0,1.114-1.264c-.113-.151-.378-.094-.528-.038a1.374,1.374,0,0,1-.529.189c.132-.264.453-.491.453-.812a3.3,3.3,0,0,0-1.567.415,7.96,7.96,0,0,1-1.567.736c-.038-.415.68-.434.453-.906a8.671,8.671,0,0,0-2.3.623c-.321.227-.83.208-1.114.491l-.139.031v8.166h3.613a11.483,11.483,0,0,1,4.794-6.763C133.863,364.382,133.24,364.722,132.976,364.627Zm16.347,5.814a4.441,4.441,0,0,1-.348,1.232h1.277a12.794,12.794,0,0,0-.646-1.232Zm6.891-10.027a7.481,7.481,0,0,1,1.34,2.024v.208a8.714,8.714,0,0,1-1.151-1.076c-.113-.038-.246-.227-.453-.151-.094.378.377.717.3,1.189l-1.529-1.567c-.51.132.094.7-.038,1.114a3.93,3.93,0,0,0-2.567-1.529.317.317,0,0,0-.037.34,9.9,9.9,0,0,1,2.548,3.945,12.265,12.265,0,0,1,1.038,3.209,2.265,2.265,0,0,1,.038.793c-.661-.49-.755-1.453-1.567-1.774-.226.3.075.7.038,1.076-.019.132-.113.246-.075.415-.415-.227-.377-.736-.774-1.076-.3-.34-.529-1.076-1.076-1.038-.245.17-.057.529-.17.755-.3-.151-.3-.585-.529-.83-.453-.472-.585-1.3-1.284-1.322-.17.283-.019.68-.113.982-.661-.208-1.019-.887-1.661-1.151h-.208a7.15,7.15,0,0,0,.83,1.454,10.535,10.535,0,0,1,1.582,5.271h8.472V360.414Zm-16.234,5.157a20.407,20.407,0,0,0-2.85,3.832c0,.075-.132.018-.208.038a5.658,5.658,0,0,1-.151-1.813.317.317,0,0,0-.378-.038,18.655,18.655,0,0,0-1.812,3.492,3.9,3.9,0,0,1-.415-1.548c-.132-.264.113-.736-.208-.83a21.541,21.541,0,0,0-1.866,2.968H136.5V383.03H138.9l-.939-6.7a19.145,19.145,0,0,1,2.171-10.307A.311.311,0,0,0,139.979,365.571Zm7.116,4.417c-.17.037.019.3-.208.245-.4-1.114-.3-2.549-1.189-3.3-.321.321-.075.963-.208,1.4a.442.442,0,0,1-.17.208h-.113a7.035,7.035,0,0,0-1.151-1.925c-.529.038-.189.812-.453,1.151-.34-.17-.378-.661-.586-1l-.415-.359-.246.246c-1.416,5.1-.717,11.118.208,16.215.006.033.022.106.035.168h5.261V371.673h1.053c-.392-.833-.577-2.12-1.4-2.855A5.022,5.022,0,0,0,147.1,369.988Z" transform="translate(-125.343 -349.155)"/>
      <path id="Path_513" data-name="Path 513" class="cls-2" d="M136.788,400.044a3.583,3.583,0,0,1,1-1.055,2.708,2.708,0,0,1,.181,1.073" transform="translate(-131.856 -377.514)"/>
    </g>
  </g>
</svg>
