<svg xmlns="http://www.w3.org/2000/svg" width="176.578" height="35.103" viewBox="0 0 176.578 35.103">
  <defs>
    <style>
      .cls-1 {
        fill: #0756a3;
      }

      .cls-2 {
        fill: #54565a;
      }
    </style>
  </defs>
  <g id="MaganMedicalClinic" transform="translate(-27.42 -34.136)">
    <g id="Group_186" data-name="Group 186" transform="translate(83.656 42.845)">
      <path id="Path_233" data-name="Path 233" class="cls-1" d="M337.023,99.6v4.519h-2.357V96.562h2.242v.6a1.833,1.833,0,0,1,1.748-.816,1.769,1.769,0,0,1,1.645.954,2.433,2.433,0,0,1,2.024-.931,2.375,2.375,0,0,1,2.553,2.392v5.359h-2.242V99.311s.046-.874-.713-.874a.945.945,0,0,0-.931,1.012v4.669h-2.3V99.472s.034-1.024-.656-1.024S337.023,98.908,337.023,99.6Z" transform="translate(-334.666 -93.63)"/>
      <path id="Path_234" data-name="Path 234" class="cls-1" d="M570.689,99.6v4.519h-2.357V96.562h2.242v.6a1.833,1.833,0,0,1,1.748-.816,1.768,1.768,0,0,1,1.644.954,2.434,2.434,0,0,1,2.024-.931,2.375,2.375,0,0,1,2.553,2.392v5.359H576.3V99.311s.046-.874-.713-.874a.945.945,0,0,0-.932,1.012v4.669h-2.3V99.472s.035-1.024-.655-1.024S570.689,98.908,570.689,99.6Z" transform="translate(-525.339 -93.63)"/>
      <path id="Path_235" data-name="Path 235" class="cls-1" d="M512.868,96.51a2.035,2.035,0,0,0-1.84.92V96.7h-2.2v7.555h2.357V99.734c0-.69.322-1.15,1.012-1.15s.7,1.024.7,1.024v4.646h2.342V99.025A2.36,2.36,0,0,0,512.868,96.51Z" transform="translate(-476.787 -93.766)"/>
      <path id="Path_236" data-name="Path 236" class="cls-1" d="M908.535,96.51a2.035,2.035,0,0,0-1.84.92V96.7h-2.2v7.555h2.357V99.734c0-.69.322-1.15,1.012-1.15s.7,1.024.7,1.024v4.646h2.342V99.025A2.36,2.36,0,0,0,908.535,96.51Z" transform="translate(-799.655 -93.766)"/>
      <path id="Path_237" data-name="Path 237" class="cls-1" d="M397.186,97.16a3.239,3.239,0,0,0-2.311-.816c-.713,0-2.426.161-2.426.161l-.472,2.139a7.1,7.1,0,0,1,2.15-.437c1.012,0,1.483.414,1.483,1.265v.3a2.28,2.28,0,0,0-1.771-.61,2.654,2.654,0,0,0-2.737,2.633,2.593,2.593,0,0,0,2.737,2.576,2.283,2.283,0,0,0,1.852-.771v.564h2.139v-5.4A2.414,2.414,0,0,0,397.186,97.16Zm-2.5,5.474a1.007,1.007,0,1,1,.765-.977A.891.891,0,0,1,394.685,102.634Z" transform="translate(-380.719 -93.63)"/>
      <path id="Path_238" data-name="Path 238" class="cls-1" d="M474.061,97.16a3.238,3.238,0,0,0-2.311-.816c-.713,0-2.426.161-2.426.161l-.472,2.139a7.1,7.1,0,0,1,2.15-.437c1.012,0,1.483.414,1.483,1.265v.3a2.28,2.28,0,0,0-1.771-.61,2.654,2.654,0,0,0-2.737,2.633,2.593,2.593,0,0,0,2.737,2.576,2.283,2.283,0,0,0,1.852-.771v.564h2.139v-5.4A2.414,2.414,0,0,0,474.061,97.16Zm-2.5,5.474a1.007,1.007,0,1,1,.765-.977A.891.891,0,0,1,471.56,102.634Z" transform="translate(-443.45 -93.63)"/>
      <path id="Path_239" data-name="Path 239" class="cls-1" d="M767.728,97.16a3.238,3.238,0,0,0-2.311-.816c-.713,0-2.426.161-2.426.161l-.472,2.139a7.1,7.1,0,0,1,2.15-.437c1.012,0,1.483.414,1.483,1.265v.3a2.28,2.28,0,0,0-1.771-.61,2.654,2.654,0,0,0-2.737,2.633,2.593,2.593,0,0,0,2.737,2.576,2.283,2.283,0,0,0,1.852-.771v.564h2.139v-5.4A2.414,2.414,0,0,0,767.728,97.16Zm-2.5,5.474a1.007,1.007,0,1,1,.765-.977A.891.891,0,0,1,765.227,102.634Z" transform="translate(-683.085 -93.63)"/>
      <path id="Path_240" data-name="Path 240" class="cls-1" d="M436.228,104.31V97.031h-2.967a4.725,4.725,0,0,0-2.829,1.058,3.4,3.4,0,0,0-.943,2.472,3.477,3.477,0,0,0,.839,2.449,3.521,3.521,0,0,0,2.5.863,3.65,3.65,0,0,0,.885-.081.664.664,0,0,1,.069.345c0,.242,0,.817-1.219.817s-1.7-.449-1.805-.874l-1.277,1.863a4.454,4.454,0,0,0,3.461,1.4C436.516,107.346,436.228,104.31,436.228,104.31Zm-2.277-3.243a1.145,1.145,0,0,1-.966.46,1.108,1.108,0,0,1-1.219-1s-.069-1.391,1.92-1.391h.265Z" transform="translate(-412.033 -94.191)"/>
      <path id="Path_241" data-name="Path 241" class="cls-1" d="M633.361,100.357c0-2.217-1.426-4.013-3.519-4.013a3.888,3.888,0,0,0-3.864,4.013,4.013,4.013,0,0,0,6.9,2.791l-.8-1.722a3.824,3.824,0,0,1-2.07.759,2.218,2.218,0,0,1-1.725-.993h5A4.039,4.039,0,0,0,633.361,100.357Zm-5.037-1a1.612,1.612,0,0,1,1.38-1.035,1.006,1.006,0,0,1,1.127,1.035Z" transform="translate(-572.379 -93.63)"/>
      <rect id="Rectangle_40" data-name="Rectangle 40" class="cls-1" width="2.323" height="10.51" transform="translate(86.058 0)"/>
      <rect id="Rectangle_41" data-name="Rectangle 41" class="cls-1" width="2.323" height="10.51" transform="translate(97.956 0)"/>
      <g id="Group_183" data-name="Group 183" transform="translate(70.181 0)">
        <rect id="Rectangle_42" data-name="Rectangle 42" class="cls-1" width="2.392" height="7.613" transform="translate(0 2.898)"/>
        <rect id="Rectangle_43" data-name="Rectangle 43" class="cls-1" width="2.392" height="2.162"/>
      </g>
      <g id="Group_184" data-name="Group 184" transform="translate(101.521 0)">
        <rect id="Rectangle_44" data-name="Rectangle 44" class="cls-1" width="2.392" height="7.613" transform="translate(0 2.898)"/>
        <rect id="Rectangle_45" data-name="Rectangle 45" class="cls-1" width="2.392" height="2.162"/>
      </g>
      <g id="Group_185" data-name="Group 185" transform="translate(111.947 0)">
        <rect id="Rectangle_46" data-name="Rectangle 46" class="cls-1" width="2.392" height="7.613" transform="translate(0 2.898)"/>
        <rect id="Rectangle_47" data-name="Rectangle 47" class="cls-1" width="2.392" height="2.162"/>
      </g>
      <path id="Path_242" data-name="Path 242" class="cls-1" d="M671.718,81.594v3.6a2.554,2.554,0,0,0-2.047-.814,3.9,3.9,0,0,0-3.818,4.094,4.39,4.39,0,0,0,.989,2.576,3.853,3.853,0,0,0,2.783,1.38,2.985,2.985,0,0,0,2.093-.811V92.1h2.323V81.594Zm-1.6,8.464a1.621,1.621,0,1,1,1.621-1.622A1.622,1.622,0,0,1,670.119,90.058Z" transform="translate(-604.918 -81.594)"/>
      <path id="Path_243" data-name="Path 243" class="cls-1" d="M737.406,101.759a1.886,1.886,0,1,1,0-2.985V96.461a4.048,4.048,0,1,0,0,7.612Z" transform="translate(-658.876 -93.528)"/>
      <path id="Path_244" data-name="Path 244" class="cls-1" d="M837.156,101.759a1.886,1.886,0,1,1,0-2.985V96.461a4.048,4.048,0,1,0,0,7.612Z" transform="translate(-740.273 -93.528)"/>
      <path id="Path_245" data-name="Path 245" class="cls-1" d="M964.656,101.759a1.886,1.886,0,1,1,0-2.985V96.461a4.048,4.048,0,1,0,0,7.612Z" transform="translate(-844.314 -93.528)"/>
    </g>
    <g id="Group_189" data-name="Group 189" transform="translate(27.42 34.136)">
      <g id="Group_187" data-name="Group 187" transform="translate(30.757 11.318)">
        <path id="Path_246" data-name="Path 246" class="cls-1" d="M238.753,99.331a8.28,8.28,0,0,1,10.1,3.568h3.115a11.069,11.069,0,0,0-13.211-6.531Z" transform="translate(-230.627 -95.969)"/>
        <path id="Path_247" data-name="Path 247" class="cls-1" d="M213.149,122.555a8.28,8.28,0,1,1-14.728-7.549v-4.382a11.069,11.069,0,1,0,17.719,11.931Z" transform="translate(-194.587 -107.928)"/>
      </g>
      <path id="Path_248" data-name="Path 248" class="cls-1" d="M126.223,34.136a6.211,6.211,0,0,0-5.121,2.453,6.345,6.345,0,0,0-8.694-1.252v-.8h-2.821v21.1h2.821v-15.6a4.068,4.068,0,0,1,1.135-2.121,3.752,3.752,0,0,1,2.545-1,3.6,3.6,0,0,1,2.683,1.15,3.5,3.5,0,0,1,.935,2.423V55.632h2.821V40.484a3.632,3.632,0,0,1,3.649-3.573,3.871,3.871,0,0,1,2.637,1.1,3.431,3.431,0,0,1,.981,2.469V55.632h2.821V40.484A6.42,6.42,0,0,0,126.223,34.136Z" transform="translate(-94.469 -34.136)"/>
      <g id="Group_188" data-name="Group 188" transform="translate(0 11.334)">
        <path id="Path_249" data-name="Path 249" class="cls-1" d="M41.8,96.409a5.936,5.936,0,0,0-2.867,2.081,6.345,6.345,0,0,0-8.694-1.252v-.8H27.42v21.1h2.821v-15.6a4.069,4.069,0,0,1,1.135-2.121,3.752,3.752,0,0,1,2.545-1,3.6,3.6,0,0,1,2.683,1.15,3.5,3.5,0,0,1,.935,2.423v15.149h2.821V102.384a3.593,3.593,0,0,1,1.165-2.607,3.024,3.024,0,0,1,.276-.242Z" transform="translate(-27.42 -96.052)"/>
        <path id="Path_250" data-name="Path 250" class="cls-1" d="M128.92,97.813V100.9a3.654,3.654,0,0,1,.552.453,3.431,3.431,0,0,1,.981,2.469V118.97h2.821V103.821A6.418,6.418,0,0,0,128.92,97.813Z" transform="translate(-110.245 -97.489)"/>
      </g>
    </g>
    <g id="Group_190" data-name="Group 190" transform="translate(83.694 60.654)">
      <path id="Path_251" data-name="Path 251" class="cls-2" d="M334.2,181.651h1.616c1.263,0,2.314.442,2.314,1.846,0,1.369-1.069,1.855-2.182,1.855h-.865v2.464H334.2Zm.883,2.924h.874a1.109,1.109,0,0,0,1.237-1.086c0-.777-.813-1.06-1.36-1.06h-.751Z" transform="translate(-334.198 -181.086)"/>
      <path id="Path_252" data-name="Path 252" class="cls-2" d="M359.622,190.524a2.869,2.869,0,0,1,1.484-.424c1.29,0,1.811.636,1.811,1.864v1.863a7.136,7.136,0,0,0,.035.883h-.777v-.583h-.018a1.671,1.671,0,0,1-1.4.689c-.972,0-1.652-.424-1.652-1.4,0-1.131,1.237-1.484,2.093-1.484.327,0,.556,0,.883.018,0-.777-.283-1.175-1.113-1.175a2.118,2.118,0,0,0-1.307.459Zm2.464,2.04c-.177,0-.353-.018-.53-.018-.45,0-1.563.071-1.563.866a.794.794,0,0,0,.839.733,1.137,1.137,0,0,0,1.254-1.184Z" transform="translate(-354.526 -187.98)"/>
      <path id="Path_253" data-name="Path 253" class="cls-2" d="M387.43,190.206h.777v.7h.018a1.371,1.371,0,0,1,1.175-.8,2.33,2.33,0,0,1,.548.062v.742a1.229,1.229,0,0,0-.459-.08c-.742,0-1.228.707-1.228,1.837v2.049h-.83Z" transform="translate(-377.636 -187.98)"/>
      <path id="Path_254" data-name="Path 254" class="cls-2" d="M405.636,185.549h-1.192v2.464a.714.714,0,0,0,.7.8,1.025,1.025,0,0,0,.565-.159v.707a2.6,2.6,0,0,1-.707.123c-.857,0-1.387-.406-1.387-1.307v-2.632H402.6v-.671h1.016v-1.042l.83-.265v1.307h1.192Z" transform="translate(-390.013 -182.653)"/>
      <path id="Path_255" data-name="Path 255" class="cls-2" d="M438.782,190.1a2.222,2.222,0,0,1,2.288,2.358,2.293,2.293,0,1,1-4.584,0A2.224,2.224,0,0,1,438.782,190.1Zm0,4.045a1.51,1.51,0,0,0,1.4-1.687,1.432,1.432,0,1,0-2.817,0A1.511,1.511,0,0,0,438.782,194.145Z" transform="translate(-417.665 -187.98)"/>
      <path id="Path_256" data-name="Path 256" class="cls-2" d="M465.673,181.476h-1.06V180.8h1.06v-.415c0-1.1.283-1.811,1.51-1.811a3.4,3.4,0,0,1,.556.053l-.035.671a1.306,1.306,0,0,0-.4-.053c-.716,0-.8.459-.8,1.069v.486H467.7v.671H466.5v3.833h-.83Z" transform="translate(-440.618 -178.579)"/>
      <path id="Path_257" data-name="Path 257" class="cls-2" d="M501.133,181.075a3.2,3.2,0,1,1-2.968,3.188A2.908,2.908,0,0,1,501.133,181.075Zm0,5.6c1.422,0,2.031-1.184,2.031-2.411,0-1.254-.671-2.42-2.031-2.411-1.36-.009-2.031,1.157-2.031,2.411C499.1,185.491,499.711,186.675,501.133,186.675Z" transform="translate(-467.996 -180.616)"/>
      <path id="Path_258" data-name="Path 258" class="cls-2" d="M536.8,190.206h.795v.636h.018a1.8,1.8,0,0,1,1.528-.742,2.013,2.013,0,0,1,1.943,2.279c0,1.237-.574,2.438-1.935,2.438a1.613,1.613,0,0,1-1.5-.724h-.018v2.473h-.83Zm2.164.565c-.9,0-1.334.857-1.334,1.7,0,.751.389,1.678,1.325,1.678.892,0,1.263-1,1.245-1.7C540.223,191.628,539.87,190.771,538.969,190.771Z" transform="translate(-499.527 -187.98)"/>
      <path id="Path_259" data-name="Path 259" class="cls-2" d="M565.666,185.549h-1.193v2.464a.715.715,0,0,0,.7.8,1.025,1.025,0,0,0,.565-.159v.707a2.6,2.6,0,0,1-.707.123c-.857,0-1.387-.406-1.387-1.307v-2.632h-1.016v-.671h1.016v-1.042l.83-.265v1.307h1.193Z" transform="translate(-520.599 -182.653)"/>
      <path id="Path_260" data-name="Path 260" class="cls-2" d="M588.787,195.18h-.8v-.715h-.018a1.619,1.619,0,0,1-1.475.821c-1.166,0-1.687-.724-1.687-1.934v-2.676h.83v2.332c0,1.051.23,1.563.954,1.607.945,0,1.369-.76,1.369-1.855v-2.084h.83Z" transform="translate(-538.695 -188.45)"/>
      <path id="Path_261" data-name="Path 261" class="cls-2" d="M614.083,190.206h.777v.654h.017a1.523,1.523,0,0,1,1.431-.76,1.331,1.331,0,0,1,1.281.875,1.606,1.606,0,0,1,1.4-.875c1.148,0,1.563.742,1.563,1.722v2.888h-.83v-2.685c0-.556-.133-1.254-.8-1.254-.848,0-1.184.83-1.184,1.669v2.27h-.83v-2.685c0-.556-.132-1.254-.8-1.254-.848,0-1.183.83-1.183,1.669v2.27h-.83Z" transform="translate(-562.587 -187.98)"/>
      <path id="Path_262" data-name="Path 262" class="cls-2" d="M660.082,182.2a2.477,2.477,0,0,0-1.272-.344,2.412,2.412,0,0,0-.044,4.822,3.039,3.039,0,0,0,1.343-.3l.053.857a3.853,3.853,0,0,1-1.4.221,3.037,3.037,0,0,1-3.25-3.215,3.072,3.072,0,0,1,3.259-3.162,3.4,3.4,0,0,1,1.387.265Z" transform="translate(-596.389 -180.616)"/>
      <path id="Path_263" data-name="Path 263" class="cls-2" d="M685.01,190.524a2.871,2.871,0,0,1,1.484-.424c1.289,0,1.81.636,1.81,1.864v1.863a7.07,7.07,0,0,0,.036.883h-.777v-.583h-.017a1.672,1.672,0,0,1-1.4.689c-.972,0-1.652-.424-1.652-1.4,0-1.131,1.237-1.484,2.093-1.484.327,0,.556,0,.883.018,0-.777-.283-1.175-1.113-1.175a2.118,2.118,0,0,0-1.307.459Zm2.464,2.04c-.177,0-.353-.018-.53-.018-.45,0-1.563.071-1.563.866a.794.794,0,0,0,.839.733,1.137,1.137,0,0,0,1.254-1.184Z" transform="translate(-620.046 -187.98)"/>
      <path id="Path_264" data-name="Path 264" class="cls-1" d="M712.817,190.206h.777v.7h.018a1.37,1.37,0,0,1,1.174-.8,2.33,2.33,0,0,1,.548.062v.742a1.229,1.229,0,0,0-.459-.08c-.742,0-1.228.707-1.228,1.837v2.049h-.83Z" transform="translate(-643.154 -187.98)"/>
      <path id="Path_265" data-name="Path 265" class="cls-2" d="M733.611,194.525a3.451,3.451,0,0,1-1.422.291,2.156,2.156,0,0,1-2.332-2.438,2.093,2.093,0,0,1,2.111-2.279c1.5,0,1.987,1.1,1.987,2.544H730.74a1.474,1.474,0,0,0,1.484,1.5,2.663,2.663,0,0,0,1.387-.45Zm-.539-2.5a1.137,1.137,0,0,0-1.122-1.254,1.247,1.247,0,0,0-1.21,1.254Z" transform="translate(-657.059 -187.98)"/>
      <path id="Path_266" data-name="Path 266" class="cls-2" d="M754.906,185.454a.968.968,0,1,1,.968.968A.969.969,0,0,1,754.906,185.454Zm1.7,0a.733.733,0,1,0-.732.78A.743.743,0,0,0,756.606,185.454Zm-1.1-.552h.407c.263,0,.4.091.4.322a.274.274,0,0,1-.287.295l.3.48h-.209l-.284-.472h-.123V186h-.2Zm.2.469h.18c.121,0,.225-.016.225-.164,0-.129-.118-.15-.223-.15h-.182Z" transform="translate(-677.499 -183.399)"/>
    </g>
  </g>
</svg>
