<svg xmlns="http://www.w3.org/2000/svg" width="185.917" height="33.788" viewBox="0 0 185.917 33.788">
  <defs>
    <style>
      .cls-1 {
        fill: #fff;
      }

      .cls-2 {
        fill: #e87722;
      }

      .cls-3 {
        fill: #55565a;
      }
    </style>
  </defs>
  <g id="MonarchHealth" transform="translate(-18 -36.057)">
    <path id="Path_299" data-name="Path 299" d="M35.595,47.554a2.014,2.014,0,0,0-.787.217,2.362,2.362,0,0,0-1.429,1.855A1.9,1.9,0,0,0,34.4,51.388c.311.137,1.321.52,1.321.52v2.146c-.28.321-.661.339-.942.6a1.419,1.419,0,0,0-.379.7c-.035.172-.039,1.241-.039,1.241-.228.39-.6,1.024-.789,1.4a25.311,25.311,0,0,1-1.407,2.256,6.79,6.79,0,0,1-2.034,2.123,8.764,8.764,0,0,1-4.152,1.86,4.154,4.154,0,0,1-2.034-.176c-1-.316-1.077-.6-1.077-.6a.353.353,0,0,1,.069-.264c.075-.139.418-.165.006-1.192a13.75,13.75,0,0,1-.64-2.963c-.012-.812.052-1.626.005-2.449a25.663,25.663,0,0,1,.215-3.074c.044-.442-.414-.251-.527-.35-.064-.054,0-.2.051-.366a3.006,3.006,0,0,0,.125-.378,3.116,3.116,0,0,0-.041-.542l-.066-.588a6.1,6.1,0,0,0-.3-1.069,10.564,10.564,0,0,0-1.72-2.424,7.272,7.272,0,0,1-1.72-2.643,5.161,5.161,0,0,1-.3-1.979,4.051,4.051,0,0,1,.657-1.78c1.082-1.191,2.9-1.525,4.438-1.648,3.033-.241,5.668,1.257,8.175,2.666a12.028,12.028,0,0,1,2.542,1.942c.578.566,1.656,1.574,1.69,1.639a9.076,9.076,0,0,1,.068,1.559" transform="translate(0 -1.945)"/>
    <path id="Path_300" data-name="Path 300" d="M60.642,48.725s.539.153.654.537a12.4,12.4,0,0,1,.421,1.523,6.84,6.84,0,0,1,.047.866,3.341,3.341,0,0,0-.069.415,3.213,3.213,0,0,1,.094.8,3.285,3.285,0,0,1-.188,1.163,1.876,1.876,0,0,1-.461.592,7.126,7.126,0,0,0,.471,1.139c.07.162.538,1.063.538,1.063.227.39.552,1.023.742,1.4a24.712,24.712,0,0,0,1.431,2.231,6.612,6.612,0,0,0,1.959,2.078,8.218,8.218,0,0,0,4.105,1.839,4.382,4.382,0,0,0,2.047-.1c1-.318,1.076-.6,1.076-.6a.349.349,0,0,0-.068-.265c-.077-.141-.416-.166-.007-1.192a13.731,13.731,0,0,0,.639-2.965c.013-.811-.049-1.622,0-2.447a26.671,26.671,0,0,0-.212-3.075c-.049-.442.411-.251.524-.347.062-.057,0-.2-.052-.369a3.856,3.856,0,0,1-.125-.377,3.127,3.127,0,0,1,.041-.542c.02-.179.067-.588.067-.588a6.182,6.182,0,0,1,.3-1.068A10.38,10.38,0,0,1,76.335,48a7.29,7.29,0,0,0,1.72-2.644,4.888,4.888,0,0,0,.212-1.923A4.133,4.133,0,0,0,77.7,41.6c-1.083-1.19-2.923-1.436-4.461-1.556-3.037-.243-5.657,1-8.153,2.572a15.61,15.61,0,0,0-2.71,1.944c-1.59,1.137-1.674,1.53-1.709,1.592s-.064,2.262-.022,2.576" transform="translate(-22.612 -2.097)"/>
    <path id="Path_301" data-name="Path 301" d="M55.209,56.294a3.065,3.065,0,0,1,1.177.942,2.292,2.292,0,0,1,.374,1.434c.037.676.1,1.55-1.715,2.241l-.009,1.282a1.97,1.97,0,0,1,1.444,1.856c-.015.887-.7,1.412-1.552,1.847l.006.35c1.4.76.78,1.669.52,1.928a1.962,1.962,0,0,1-.623.418s-.05,1.132-.069,1.247-.154.452-.355.452-.351-.275-.374-.442a6.527,6.527,0,0,1-.024-.661C54,69.133,54,69.031,53.931,69a1.239,1.239,0,0,0-.321-.021,2.007,2.007,0,0,1-.616-.151c-.156-.065-.446-.243-.138-.323.2-.056.408-.108.611-.171a1.019,1.019,0,0,0,.421-.24V67.024c-.059-.08-.4-.244-.592-.422a1,1,0,0,1,.392-1.772l0-1.61a4.31,4.31,0,0,1-.512-.168,3.849,3.849,0,0,1-.476-.244,1.37,1.37,0,0,1-.652-.92c-.1-1.014.515-1.441,1.46-1.757l-.047-2.571a3.462,3.462,0,0,0-.5-.183,4.8,4.8,0,0,1-1.346-.569c-.6-.444-1.413-2.585,1.708-3.415l-.068-2.032c.185-.958,2.04-.94,2.171,0Z" transform="translate(-17.538 -7.742)"/>
    <path id="Path_302" data-name="Path 302" class="cls-1" d="M27.756,43.888a.6.6,0,0,0-.5.295c-.018.061.008.083.007.14a.92.92,0,0,1-.012.126c.017.113.042.112.17.126.2.023.584.08.574-.2a.512.512,0,0,0-.236-.491" transform="translate(-4.906 -4.154)"/>
    <path id="Path_303" data-name="Path 303" class="cls-1" d="M24.058,46.385c.135-.191.461.1.633.1s.2-.056.281.085c0,0-.018.049-.014.066s.067.034.072.055a.429.429,0,0,1,0,.169c-.005.052.011.087-.017.143s-.072.059-.1.1c-.046.079-.033.23-.113.287-.051.039-.113,0-.168.016s-.078.063-.114.082a.545.545,0,0,1-.358.03c-.058-.03.024-.108.012-.153-.023-.068-.07-.052-.1-.1-.054-.092-.024-.2-.057-.3a.81.81,0,0,1,.042-.576" transform="translate(-3.174 -5.445)"/>
    <path id="Path_304" data-name="Path 304" class="cls-1" d="M20.824,47.782c-.215-.108-.423.316-.207.46s.272-.277.221-.417Z" transform="translate(-1.34 -6.211)"/>
    <path id="Path_305" data-name="Path 305" class="cls-1" d="M21.876,50.207c-.163-.09-.16,0-.234.063a.4.4,0,0,0-.036.431c.1.123.228.043.269-.085s.114-.346,0-.409" transform="translate(-1.888 -7.479)"/>
    <path id="Path_306" data-name="Path 306" class="cls-1" d="M24.176,51.457c-.143.017-.1.265-.1.365,0,.2.09.154.25.2.023.061-.026.172.015.212s.174,0,.208-.031a1.318,1.318,0,0,0,.223-.354.474.474,0,0,0-.174-.361c-.106-.079-.331-.029-.426-.028" transform="translate(-3.222 -8.153)"/>
    <path id="Path_307" data-name="Path 307" class="cls-1" d="M22.44,53.532c-.089-.024-.153.059-.184.113-.089.151.009.292.136.4.1.08.3.172.341-.018.029-.162-.128-.229-.182-.35,0,0-.036-.123-.112-.14" transform="translate(-2.24 -9.259)"/>
    <path id="Path_308" data-name="Path 308" class="cls-1" d="M25.087,55.922c.029-.174-.226-.138-.335-.117-.124.024-.088.355-.149.537-.046.14.265.235.348.072.042-.087.014-.186.049-.282a1.2,1.2,0,0,0,.087-.21" transform="translate(-3.501 -10.456)"/>
    <path id="Path_309" data-name="Path 309" class="cls-1" d="M26.415,55.854c-.185-.082-.188.394.056.421.221.026.085-.36-.056-.421" transform="translate(-4.394 -10.487)"/>
    <path id="Path_310" data-name="Path 310" class="cls-1" d="M32.119,56.148c-.066.085-.157.162-.228.246a.97.97,0,0,0-.183.269,1.6,1.6,0,0,0-.126.28c.024.162.146.052.2-.019.072-.1.069-.243.168-.342.152-.151.431-.357.378-.605-.013-.055-.018-.124-.056-.112s-.077.191-.15.284" transform="translate(-7.206 -10.496)"/>
    <path id="Path_311" data-name="Path 311" class="cls-1" d="M27.559,57.342c-.1.038-.008.383.071.444.141.114.468-.011.463-.094s-.1-.074-.146-.126-.045-.091-.079-.13a.284.284,0,0,0-.308-.094" transform="translate(-5.047 -11.272)"/>
    <path id="Path_312" data-name="Path 312" class="cls-1" d="M26.142,59.609c-.036-.014-.056-.037-.123.017s.17.146.123.162c-.176.065.032.31.226.17.213-.151-.121-.312-.226-.35" transform="translate(-4.248 -12.473)"/>
    <path id="Path_313" data-name="Path 313" class="cls-1" d="M27.915,61.73c.287-.171-.138-.508-.254-.465s-.086.668.254.465" transform="translate(-5.093 -13.358)"/>
    <path id="Path_314" data-name="Path 314" class="cls-1" d="M29.821,58.7c-.078.1-.123.18-.2.265a.679.679,0,0,0-.167.305.8.8,0,0,1-.1.3,1.37,1.37,0,0,0-.167.276,3.187,3.187,0,0,1-.18.7c-.1.156-.14-.047-.1-.174s-.014-.2.026-.287a.774.774,0,0,1,.11-.206.2.2,0,0,0,.041-.147c.01-.234.126-.274.221-.466.067-.131.147-.269.215-.4.054-.107.125-.424.317-.293a.137.137,0,0,1-.025.126" transform="translate(-5.781 -11.918)"/>
    <path id="Path_315" data-name="Path 315" class="cls-1" d="M29.98,62.484c-.037.016-.24-.055-.3.022s.019.241.053.311c.048.1.119.191.256.128.191-.086.01-.117,0-.2,0-.067.139-.168.194-.166.084.005.234.2.292.094a.314.314,0,0,0-.012-.314.434.434,0,0,0-.353-.085c-.092.033-.094.194-.131.212" transform="translate(-6.184 -13.887)"/>
    <path id="Path_316" data-name="Path 316" class="cls-1" d="M30.009,65.735c-.148-.063-.151.139-.062.291.07.114.047.229.092.277s.283.1.238-.246c-.025-.186-.09-.248-.269-.322" transform="translate(-6.307 -15.722)"/>
    <path id="Path_317" data-name="Path 317" class="cls-1" d="M28.4,66.136c-.126-.015-.3.492-.252.521.074.05.182-.073.267-.111s.239.048.276-.031-.1-.113-.157-.179.013-.186-.134-.2" transform="translate(-5.379 -15.94)"/>
    <path id="Path_318" data-name="Path 318" class="cls-1" d="M30.448,69.714c-.167.033-.337.179-.412.086a.637.637,0,0,1-.006-.382c.066-.154.365-.171.392-.153s.125.43.025.449" transform="translate(-6.368 -17.596)"/>
    <path id="Path_319" data-name="Path 319" class="cls-1" d="M30.546,72.529c-.068-.17-.29-.023-.387.115-.052.069-.128.15-.1.235.013.04.068.082.085.127a.61.61,0,0,1,.013.168c.019.118.053.141.155.065.072-.057.221-.08.238-.172a1.523,1.523,0,0,0,0-.538" transform="translate(-6.394 -19.288)"/>
    <path id="Path_320" data-name="Path 320" class="cls-1" d="M30.51,78.929a.251.251,0,0,0-.321-.159c-.085.04-.095.294-.047.4s.273.2.351.124.018-.363.018-.363" transform="translate(-6.426 -22.628)"/>
    <path id="Path_321" data-name="Path 321" class="cls-1" d="M29.226,79.447c.121.082.043.146.043.25,0,.125.034.083.09.182.1.19.237.37-.252.194-.424-.157-.148-.859.1-.65Z" transform="translate(-5.776 -22.962)"/>
    <path id="Path_322" data-name="Path 322" class="cls-1" d="M31.848,82.177c-.009.092-.116.5-.3.425a.7.7,0,0,1-.042-.374c.047-.07.263-.062.336-.059Z" transform="translate(-7.163 -24.437)"/>
    <path id="Path_323" data-name="Path 323" class="cls-1" d="M29.988,82.891c-.152,0-.211.092-.238.238s-.009.28.165.3a.2.2,0,0,0,.154-.089c.024-.027.081-.034.07-.1-.015-.1.011-.354-.15-.349" transform="translate(-6.228 -24.82)"/>
    <path id="Path_324" data-name="Path 324" class="cls-1" d="M32.271,86.293c.008-.048-.036-.353-.245-.239-.171.1-.162.332-.164.466s.112.152.241.116c.154-.044.111-.169.118-.212s.043-.081.05-.131" transform="translate(-7.354 -26.483)"/>
    <path id="Path_325" data-name="Path 325" class="cls-1" d="M31.372,88.42a.522.522,0,0,0-.408-.113c-.1.051-.025.3-.059.405-.064.21.232.165.383.17.109,0,.171-.381.085-.462" transform="translate(-6.842 -27.683)"/>
    <path id="Path_326" data-name="Path 326" class="cls-1" d="M33.983,87.562c-.008.047-.264.252-.374.2-.139-.073-.03-.255.05-.353s.311-.105.294.087c0,.04.036.022.03.069" transform="translate(-8.245 -27.177)"/>
    <path id="Path_327" data-name="Path 327" class="cls-1" d="M32.975,89.226c.126-.282-.215-.389-.374-.253-.278.236.207.241.335.254Z" transform="translate(-7.702 -28.013)"/>
    <path id="Path_328" data-name="Path 328" class="cls-1" d="M35.88,87.605c.052-.115-.107-.123-.054-.259.125-.319-.327-.247-.378-.036-.089.378.14.3.4.31Z" transform="translate(-9.246 -27.067)"/>
    <path id="Path_329" data-name="Path 329" class="cls-1" d="M35.383,89.39c.041-.018.206-.336.065-.477-.049-.047-.291.09-.317.152a.97.97,0,0,0,.085.329c.038.044.123.012.148,0Z" transform="translate(-9.087 -28.007)"/>
    <path id="Path_330" data-name="Path 330" class="cls-1" d="M37.45,88.58c.292.076.285-.377.083-.415-.26-.049-.253.369-.083.415" transform="translate(-10.254 -27.614)"/>
    <path id="Path_331" data-name="Path 331" class="cls-1" d="M87.605,43.971c.1-.01.255-.02.345.242.022.07.141,0,.156.054s-.007.082-.006.139c0,.023.012.128.012.125-.017.116-.04.114-.169.127-.206.023-.582.08-.575-.2a.506.506,0,0,1,.238-.491" transform="translate(-36.801 -4.196)"/>
    <path id="Path_332" data-name="Path 332" class="cls-1" d="M91.039,46.445c-.132-.19-.461.107-.632.1s-.2-.057-.281.085c0,0,.017.049.013.066s-.064.034-.072.056a.444.444,0,0,0,0,.169.3.3,0,0,0,.015.143c.024.045.073.059.1.1.046.078.034.231.111.288.054.038.114,0,.171.015s.077.064.114.082a.535.535,0,0,0,.356.03c.058-.03-.024-.108-.009-.152.023-.07.07-.054.1-.1.053-.093.026-.2.057-.3a.813.813,0,0,0-.042-.577" transform="translate(-38.228 -5.477)"/>
    <path id="Path_333" data-name="Path 333" class="cls-1" d="M91.388,51.53c.145.018.1.264.1.364,0,.2-.091.155-.25.2-.025.062.024.173-.017.212s-.172,0-.208-.033a1.374,1.374,0,0,1-.224-.352.479.479,0,0,1,.176-.362c.1-.077.329-.029.424-.029" transform="translate(-38.614 -8.192)"/>
    <path id="Path_334" data-name="Path 334" class="cls-1" d="M92.122,53.926c.091-.024.153.06.184.114.089.151-.009.292-.138.4-.1.08-.3.17-.34-.017-.03-.163.129-.229.181-.35,0,0,.038-.123.113-.142" transform="translate(-39.165 -9.468)"/>
    <path id="Path_335" data-name="Path 335" class="cls-1" d="M90.723,55.993c-.03-.172.227-.138.337-.115s.088.355.148.537c.044.139-.265.235-.346.071-.044-.087-.015-.186-.048-.281a.99.99,0,0,1-.09-.211" transform="translate(-38.58 -10.495)"/>
    <path id="Path_336" data-name="Path 336" class="cls-1" d="M89.6,55.928c.186-.082.191.393-.054.42-.224.027-.087-.358.054-.42" transform="translate(-37.896 -10.526)"/>
    <path id="Path_337" data-name="Path 337" class="cls-1" d="M83.4,56.222c.066.083.158.161.228.245a1,1,0,0,1,.182.269,1.481,1.481,0,0,1,.127.281c-.024.162-.148.052-.2-.02-.072-.1-.069-.243-.169-.343-.151-.152-.43-.357-.379-.6.013-.054.019-.124.059-.112s.078.191.149.285" transform="translate(-34.581 -10.535)"/>
    <path id="Path_338" data-name="Path 338" class="cls-1" d="M88.15,57.415c.1.037.01.381-.07.446-.142.113-.469-.012-.465-.095s.1-.075.146-.126.045-.092.08-.13a.282.282,0,0,1,.308-.095" transform="translate(-36.932 -11.311)"/>
    <path id="Path_339" data-name="Path 339" class="cls-1" d="M89.5,59.672c.056-.037.088-.01.124-.023s.051.012.116.066-.1.109-.025.136c.177.064-.031.31-.223.17a.207.207,0,0,1,.008-.349" transform="translate(-37.879 -12.501)"/>
    <path id="Path_340" data-name="Path 340" class="cls-1" d="M87.986,61.8c-.285-.171.14-.509.254-.465s.087.669-.254.465" transform="translate(-37.078 -13.396)"/>
    <path id="Path_341" data-name="Path 341" class="cls-1" d="M85.466,58.776c.078.1.125.182.2.267a.7.7,0,0,1,.168.3.739.739,0,0,0,.1.3,1.651,1.651,0,0,1,.144.3,6.572,6.572,0,0,1,.2.685c.095.412.138-.048.1-.176a2.461,2.461,0,0,0-.108-.277c-.037-.082.028-.148-.025-.215a.2.2,0,0,1-.043-.148c-.009-.233-.125-.273-.222-.465-.064-.131-.146-.271-.213-.4-.054-.106-.127-.424-.32-.292a.135.135,0,0,0,.027.124" transform="translate(-35.775 -11.957)"/>
    <path id="Path_342" data-name="Path 342" class="cls-1" d="M85.487,62.557c.038.018.243-.055.306.022s-.019.241-.053.313c-.047.1-.119.189-.255.126-.192-.085-.011-.117-.006-.2.006-.069-.139-.168-.192-.165-.085,0-.182.174-.242.069a.267.267,0,0,1,.031-.285.3.3,0,0,1,.282-.089c.092.033.094.193.129.212" transform="translate(-35.554 -13.927)"/>
    <path id="Path_343" data-name="Path 343" class="cls-1" d="M85.909,65.82c.055-.024.062.06.089.106a.244.244,0,0,1,.037.268c-.069.116-.062.185-.106.233s-.331.062-.289-.286c.025-.187.09-.248.269-.321" transform="translate(-35.882 -15.771)"/>
    <path id="Path_344" data-name="Path 344" class="cls-1" d="M87.341,66.207c.127-.013.3.494.254.521-.077.05-.184-.071-.27-.109s-.241.048-.275-.034.1-.111.159-.175-.015-.187.132-.2" transform="translate(-36.629 -15.978)"/>
    <path id="Path_345" data-name="Path 345" class="cls-1" d="M85.5,69.566c-.015.107-.032.216.02.225.164.035.256.159.331.067a.634.634,0,0,0,.008-.381c-.069-.155-.364-.206-.394-.154s.052.136.035.243" transform="translate(-35.787 -17.619)"/>
    <path id="Path_346" data-name="Path 346" class="cls-1" d="M85.332,72.616c.069-.169.25-.031.349.107.052.07.127.151.1.236-.012.039-.038.089-.056.136a.292.292,0,0,0-.045.158c.019.111-.045.162-.147.086-.074-.055-.141.044-.156-.048a2.5,2.5,0,0,1-.046-.675" transform="translate(-35.715 -19.334)"/>
    <path id="Path_347" data-name="Path 347" class="cls-1" d="M85.553,79.066a.248.248,0,0,1,.318-.161c.087.04.1.293.055.394a.274.274,0,0,1-.333.091c-.07-.064-.039-.324-.039-.324" transform="translate(-35.835 -22.7)"/>
    <path id="Path_348" data-name="Path 348" class="cls-1" d="M86.689,79.595c-.125.082-.045.147-.045.251,0,.124-.036.083-.088.182-.1.19-.239.373.249.192.423-.156.149-.86-.1-.649Z" transform="translate(-36.318 -23.04)"/>
    <path id="Path_349" data-name="Path 349" class="cls-1" d="M84.316,82.229c-.044.034.041.261.07.366.023.085.154.089.225.058a.716.716,0,0,0,.04-.373c-.047-.069-.263-.06-.336-.058,0,0,.043-.025,0,.008" transform="translate(-35.175 -24.461)"/>
    <path id="Path_350" data-name="Path 350" class="cls-1" d="M86.053,83.076c.148,0,.209.092.236.238s.012.28-.164.3c-.058.008-.115-.042-.154-.088-.025-.027-.079-.035-.072-.1.017-.1-.008-.354.154-.35" transform="translate(-36.021 -24.918)"/>
    <path id="Path_351" data-name="Path 351" class="cls-1" d="M83.915,86.342c-.008-.051.034-.356.244-.24.171.1.16.33.164.465s-.113.153-.241.117c-.153-.045-.113-.169-.119-.215s-.042-.079-.048-.127" transform="translate(-34.969 -26.508)"/>
    <path id="Path_352" data-name="Path 352" class="cls-1" d="M84.739,88.455c.074-.069.314-.164.407-.114s.027.3.061.407c.065.21-.234.164-.384.17-.108,0-.17-.381-.084-.463" transform="translate(-35.385 -27.701)"/>
    <path id="Path_353" data-name="Path 353" class="cls-1" d="M82.087,87.637c.008.046.265.253.373.194.141-.073.031-.255-.046-.353s-.314-.1-.3.089c0,.039-.035.022-.029.07" transform="translate(-33.999 -27.216)"/>
    <path id="Path_354" data-name="Path 354" class="cls-1" d="M83.3,89.318c-.124-.28.123-.444.253-.279.149.186.054.291-.073.3Z" transform="translate(-34.623 -28.044)"/>
    <path id="Path_355" data-name="Path 355" class="cls-1" d="M80.231,87.73c-.05-.116.106-.125.054-.257-.125-.322.293-.226.343-.015.09.379-.105.279-.368.286Z" transform="translate(-33.009 -27.139)"/>
    <path id="Path_356" data-name="Path 356" class="cls-1" d="M80.951,89.553c-.038-.017-.205-.335-.064-.476.047-.048.29.091.318.151a1.069,1.069,0,0,1-.084.329c-.041.043-.123.012-.147,0Z" transform="translate(-33.333 -28.093)"/>
    <path id="Path_357" data-name="Path 357" class="cls-1" d="M78.8,88.691c-.255.077-.252-.375-.071-.413.228-.047.221.37.071.413" transform="translate(-32.149 -27.674)"/>
    <path id="Path_358" data-name="Path 358" class="cls-2" d="M27.628,51.129c-.209.174-.183.34-.173.605a.926.926,0,0,0,.173.553c.175.263.328.214.658.144.468-.1.917-.253,1.373-.36a7.88,7.88,0,0,1,1.1-.089c.161-.014.311-.082.471-.107.1-.014.314-.013.318-.131s-.129-.144-.248-.226a1.814,1.814,0,0,1-.308-.281c-.349-.338-.617-.142-.887-.251a3.111,3.111,0,0,0-.888-.145,1.631,1.631,0,0,0-.784-.018,1.481,1.481,0,0,0-.8.3" transform="translate(-5.013 -7.804)"/>
    <path id="Path_359" data-name="Path 359" class="cls-2" d="M29.876,47.694c-.2-.013-.335.193-.587.255s-.611.067-.532.333c.14.463,1,.181,1.38.165.434-.019.636.308,1.192.421a1.766,1.766,0,0,1,.578.23c.166.1.178.232.48.356.164.067.5.187.615.084s.056-.276-.091-.41a1.662,1.662,0,0,0-.943-.511,1.409,1.409,0,0,1-.476-.28,2.717,2.717,0,0,0-.481-.216A3.475,3.475,0,0,0,30.439,48c-.215-.046-.364-.286-.563-.3" transform="translate(-5.701 -6.167)"/>
    <path id="Path_360" data-name="Path 360" class="cls-2" d="M34.418,45.937c-.179-.093-.3-.3-.53-.368-.1-.033-.355-.028-.457-.075s-.139-.125-.228-.169a1.8,1.8,0,0,0-1.455-.055c-.4.326.521.457.727.544.245.1.4.3.669.367.138.037.332.025.44.126.085.081.1.253.233.348.262.194.3-.028.639.442a1.789,1.789,0,0,0,.446.437c.091.066.254.053.344.137s.1.226.188.315c.183.187.476.143.7.212s.783.605.967.243c.1-.195-.611-.79-.84-1.019-.3-.3-.787-.7-.978-.861a2.116,2.116,0,0,0-.862-.624" transform="translate(-7.241 -4.817)"/>
    <path id="Path_361" data-name="Path 361" class="cls-2" d="M40.753,47.158c-.073-.011-.38.079.131.644a9.938,9.938,0,0,0,.747.7c.324.3.077.386.434.628.23.158.726.4.986.172.149-.326-.693-.852-.942-1.147a3.38,3.38,0,0,0-.386-.369,7.025,7.025,0,0,0-.739-.546.93.93,0,0,0-.232-.083" transform="translate(-11.987 -5.882)"/>
    <path id="Path_362" data-name="Path 362" class="cls-2" d="M49.283,56.953a6.015,6.015,0,0,1-.568-.453c-.15-.14-.508-.083-.632-.16-.205-.127-.114-.3-.247-.392a2.017,2.017,0,0,0-.622-.09c-.611.045.09.626.265.8a2.473,2.473,0,0,0,.525.42c.081.048.205.085.28.141s.144.2.222.244c.142.085.244.043.409.006a1.24,1.24,0,0,1,.368-.517" transform="translate(-15.368 -10.494)"/>
    <path id="Path_363" data-name="Path 363" class="cls-2" d="M38.4,54.588a.621.621,0,0,0-.721.086c-.179.1-.378.023-.564.185-.083.071-.044.165-.119.215-.1.065-.381,0-.472.091-.179.167.258.454.307.466a.368.368,0,0,0,.134-.008,3.16,3.16,0,0,1,1.007.151A3.549,3.549,0,0,0,39,55.82c.2-.01.456-.055.585.031s.139.281.339.3c.1.01.313-.014.4-.006s.087.117.194.108c.208-.019.085-.2.079-.24s.035-.1,0-.146a4.277,4.277,0,0,1-.448-.307,1.075,1.075,0,0,0-.6-.319,4.543,4.543,0,0,1-1.123-.637Z" transform="translate(-9.807 -9.774)"/>
    <path id="Path_364" data-name="Path 364" class="cls-2" d="M33.228,59.113c-.195.1-.125.2-.232.309a1.282,1.282,0,0,0-.291.2c-.1.115-.23.6-.123.658.086.046.334-.258,1.412.275.248.082.561-.041.834-.015a2.046,2.046,0,0,0,.755.034c.287-.094,1.043-.748,1.029-1.088-.01-.281-1.123-.294-1.465-.32a11.182,11.182,0,0,1-1.286-.093,2.039,2.039,0,0,0-.632.043" transform="translate(-7.714 -12.189)"/>
    <path id="Path_365" data-name="Path 365" class="cls-2" d="M44.231,60.28a4.681,4.681,0,0,0-.656-.309c-.087-.03-.129-.166-.176-.2-.086-.07-.258-.053-.373-.162-.385-.364-.811-.192-1.4.206-.422.283-.843.634-1.264.954a4.167,4.167,0,0,0-.922.738,4.416,4.416,0,0,0-.342.7c-.068.143-.2-.066-.3.144-.088.174-.082.436-.238.888-.1.275.141.48.369.6a3.188,3.188,0,0,0,.7.242c.243.052.46-.142.711-.215a8.984,8.984,0,0,0,1.765-.809c.793-.295.927-.588,1.394-.653s.526-.4.777-.616c.231-.2.358-.134.625-.145a2.171,2.171,0,0,1-.664-1.334Z" transform="translate(-10.894 -12.372)"/>
    <path id="Path_366" data-name="Path 366" class="cls-2" d="M31.749,63.7c.061-.037.523.237.715.1a1.293,1.293,0,0,1,.978.013c.421.182.91.011.877.176s.1.451-.075.608c-.058.052-.315.037-.345.094-.058.1.045.2-.032.292-.116.137-.454-.011-.592-.011a3.159,3.159,0,0,0-.87.148c-.3.092-1.007.482-.917-.137a9.044,9.044,0,0,1,.26-1.286" transform="translate(-7.152 -14.65)"/>
    <path id="Path_367" data-name="Path 367" class="cls-2" d="M32.115,68.864c-.436-.208-.3.868-.339,1.054-.056.281-.106.446.243.5a1.858,1.858,0,0,0,.589-.071c.157-.067.041-.2.119-.206.442-.05.322-.151.508-.307.024-.023.122-.045.181-.084.074-.046.184-.188.253-.224.25-.145.558-.141.784-.348s.083-.244-.08-.461c-.139-.179-.128-.366-.4-.343a4.364,4.364,0,0,1-.534.1,1.621,1.621,0,0,0-.6.11c-.118.039-.356.016-.416.108s-.3.171-.3.171" transform="translate(-7.287 -17.125)"/>
    <path id="Path_368" data-name="Path 368" class="cls-2" d="M35.7,70.789c-.216-.035-.328.146-.482.24-.227.143-.446-.028-.549.091a4.5,4.5,0,0,1-1.09.692,3.7,3.7,0,0,0-1,1.144,4.859,4.859,0,0,0-.371.633c-.061.119-.192.177-.2.266a.622.622,0,0,0,.011.286c.055.288-.144,1.256.4,1.268.295.008.468-.393.6-.558.174-.216.385-.373.539-.6a8.872,8.872,0,0,1,.868-1.188A8.172,8.172,0,0,0,35.361,72c.219-.31.831-.917.392-1.191Z" transform="translate(-7.424 -18.402)"/>
    <path id="Path_369" data-name="Path 369" class="cls-2" d="M52.32,65.1a.625.625,0,0,0-.5.078c-.035.326-.115.611.3.594.391-.016.195-.672.195-.672" transform="translate(-17.928 -15.387)"/>
    <path id="Path_370" data-name="Path 370" class="cls-2" d="M53.881,66.566c-.4-.491-.834.4-.611.851.124.257.372-.1.541-.211s.214-.231.208-.3a.377.377,0,0,0-.117-.3Z" transform="translate(-18.679 -16.092)"/>
    <path id="Path_371" data-name="Path 371" class="cls-2" d="M40.818,68.15c-.162-.176-.419.089-.56.189a1.746,1.746,0,0,1-.7.285c-.274.063-.39.235-.589.388-.182.144-.392.14-.557.31a2.048,2.048,0,0,0-.342.531,5.77,5.77,0,0,1-.363.613c-.276.448-.639.792-.909,1.219a6.056,6.056,0,0,0-.863,1.295c-.1.339-.128.383-.223.492-.048.055-.126.169-.194.243-.1.106-.074.184-.147.3a6.167,6.167,0,0,1-.371.579,1.949,1.949,0,0,0-.2.308c-.043.084-.095.2-.146.314-.129.292-.638,1.126-.082,1.378.284.128.468-.2.661-.4.234-.249.208-.453.314-.72a3.392,3.392,0,0,1,.608-.795,2.04,2.04,0,0,0,.431-.662,1.668,1.668,0,0,1,.463-.8,3.4,3.4,0,0,0,.418-.715c.052-.083.172-.146.218-.226.072-.124.061-.269.145-.4a4.456,4.456,0,0,1,.664-.852,3.387,3.387,0,0,0,.662-.713,2.838,2.838,0,0,1,.607-.766c.208-.185.309-.494.469-.666.21-.234.6-.265.6-.658Z" transform="translate(-8.655 -16.972)"/>
    <path id="Path_372" data-name="Path 372" class="cls-2" d="M43.87,70.163c0-.153-.632.1-.778.156a1.239,1.239,0,0,0-.549.5c-.284.362-.719.543-1.025.915-.328.4-.645.819-.978,1.229a6.441,6.441,0,0,0-.566.76c-.151.245-.244.47-.379.692s-.349.3-.526.512a3.274,3.274,0,0,0-.393.869c-.212.515-.634.784-.888,1.277-.362.7.018,1.038.717.716a2.024,2.024,0,0,0,.327-.2,2.674,2.674,0,0,0,.449-.32c.125-.138.043-.138.069-.29.039-.218.033-.16.223-.3.228-.166.231-.262.272-.507.037-.22.239-.191.288-.259s-.009-.131.033-.22a1.161,1.161,0,0,0,.36-.606c.093-.262.383-.409.544-.649.345-.514.551-1.127.949-1.61a3.233,3.233,0,0,0,.536-.637,5.778,5.778,0,0,1,.453-.65c.136-.209.438-.262.55-.493.047-.1-.031-.221.011-.292s.146-.108.209-.169c.115-.114.091-.423.091-.423" transform="translate(-10.424 -18.044)"/>
    <path id="Path_373" data-name="Path 373" class="cls-2" d="M48.147,70.806c-.218-.169-.886.648-1.123.893a7.218,7.218,0,0,0-.9,1.163c-.24.4-.414.852-.69,1.244a3.276,3.276,0,0,0-.3.546c-.061.133-.039.089-.188.2-.126.1-.2.054-.294.223s-.055.385-.169.554c-.089.13-.305.2-.358.325-.042.1-.007.174-.027.264a.969.969,0,0,1-.17.259c-.132.192-.337.287-.129.487s.79-.354.965-.668c.1-.176.5-.192.657-.473A4.572,4.572,0,0,1,45.957,75a13.215,13.215,0,0,0,.909-1.577c.3-.452.506-.962.8-1.4a2.942,2.942,0,0,0,.337-.586,3.06,3.06,0,0,0,.152-.562s0-.068-.012-.076" transform="translate(-13.641 -18.4)"/>
    <path id="Path_374" data-name="Path 374" class="cls-2" d="M84,51.234c.207.174.155.355.145.621a.939.939,0,0,1-.176.553c-.176.262-.3.2-.628.13-.465-.1-.916-.253-1.372-.361a4.511,4.511,0,0,0-1.146-.051c-.147-.015-.237-.114-.423-.144-.1-.014-.312-.013-.317-.131s.129-.146.247-.226a1.857,1.857,0,0,0,.308-.28c.347-.337.649-.1.878-.275.284-.224.588-.076.894-.123a1.683,1.683,0,0,1,.793-.036,1.808,1.808,0,0,1,.794.323" transform="translate(-32.934 -7.853)"/>
    <path id="Path_375" data-name="Path 375" class="cls-2" d="M81.59,47.826c.2-.014.333.193.585.256s.61.064.531.331c-.14.463-1,.179-1.381.164-.434-.017-.634.308-1.19.42a1.8,1.8,0,0,0-.579.231c-.166.1-.176.231-.481.355-.162.069-.5.189-.614.085s-.056-.274.092-.413a1.68,1.68,0,0,1,.942-.509,1.422,1.422,0,0,0,.475-.278,2.6,2.6,0,0,1,.482-.215,3.427,3.427,0,0,1,.572-.128c.217-.046.366-.285.567-.3" transform="translate(-32.043 -6.237)"/>
    <path id="Path_376" data-name="Path 376" class="cls-2" d="M75.809,45.976c.18-.093.168-.275.4-.347a3.448,3.448,0,0,0,.591-.1,2.352,2.352,0,0,1,.228-.17,2.171,2.171,0,0,1,1.455-.055c.277.191-.508.495-.716.584-.243.1-.389.287-.662.355a.445.445,0,0,0-.281.144c-.084.079-.282.206-.41.3-.261.195-.3-.027-.639.441a1.8,1.8,0,0,1-.447.438c-.091.067-.254.053-.344.138s-.1.226-.185.315c-.186.185-.478.176-.7.246s-.781.623-.965.258c-.1-.194.548-.829.873-1.011.361-.2.523-.841.793-.878.247-.036.24-.267,1.013-.664" transform="translate(-29.243 -4.851)"/>
    <path id="Path_377" data-name="Path 377" class="cls-2" d="M72.855,47.24c.072-.011.33.065-.183.63-.25.276-.431.475-.693.717-.325.3-.079.386-.436.627-.23.156-.729.4-.988.173-.149-.326.692-.853.943-1.147a2.848,2.848,0,0,1,.335-.388,6.887,6.887,0,0,1,.79-.527.977.977,0,0,1,.232-.084" transform="translate(-27.872 -5.926)"/>
    <path id="Path_378" data-name="Path 378" class="cls-2" d="M63.415,57.873c-.055-.071.137-.551.5-.766a5.769,5.769,0,0,0,.568-.453c.153-.141.44-.165.564-.241.2-.128.182-.218.317-.31a2.1,2.1,0,0,1,.622-.091c.612.046-.092.628-.265.8a2.544,2.544,0,0,1-.525.419c-.083.05-.208.087-.281.141s-.094.175-.223.245-.33,0-.452.076-.76.269-.827.178" transform="translate(-24.089 -10.575)"/>
    <path id="Path_379" data-name="Path 379" class="cls-2" d="M74.021,54.571a1.359,1.359,0,0,0,.481.293,2.168,2.168,0,0,1,.327.183c.1.064.315,0,.406.09.182.167-.213.464-.265.509a.28.28,0,0,1-.216.085,1.769,1.769,0,0,0-.963.014,4.254,4.254,0,0,1-1.234.111c-.2-.011-.35-.046-.481.038s-.052.291-.253.308c-.1.008-.262-.033-.345-.025-.1.01-.131.1-.239.09-.207-.018-.116-.38-.068-.432a2.085,2.085,0,0,0,.45-.306,1,1,0,0,1,.6-.318,4.52,4.52,0,0,0,1.123-.637.494.494,0,0,1,.678,0" transform="translate(-28.175 -9.74)"/>
    <path id="Path_380" data-name="Path 380" class="cls-2" d="M78.658,59.184c.194.1.125.2.233.31a1.415,1.415,0,0,1,.291.2c.1.115.228.6.123.657-.085.044-.333-.259-1.411.275a1.214,1.214,0,0,1-.672.056c-.42-.074-.689.037-.917-.038-.286-.093-1.045-.748-1.03-1.088.012-.282,1.123-.292,1.467-.32a10.912,10.912,0,0,0,1.284-.093,2.053,2.053,0,0,1,.633.043" transform="translate(-30.385 -12.227)"/>
    <path id="Path_381" data-name="Path 381" class="cls-2" d="M64.725,60.4a2.961,2.961,0,0,1,.627-.364c.087-.028.192-.16.239-.2.087-.069.2-.065.337-.154.424-.281.776-.213,1.305.254a1.7,1.7,0,0,0,.551.415,1.336,1.336,0,0,1,.782.475c.267.249.419.417.551.529.1.091.223.1.34.247a3.773,3.773,0,0,1,.374.662c.162.348.29.159.349.3a1.822,1.822,0,0,1,.069.778c0,.237-.334.454-.562.57-.2.1-.134.254-.358.3-.162.034-.314.092-.455,0-.07-.047-.146-.337-.228-.363-.224-.065-.562.059-.7-.014-.589-.3-.584-.5-1.12-.7-.795-.295-.924-.6-1.391-.676-.559-.093-.375-.262-.531-.347-.121-.063-.3.028-.386-.088-.246-.337-.578-.138-.659-.228a1.916,1.916,0,0,1-.133-.831c.055-.059,1-.568,1-.568" transform="translate(-24.25 -12.431)"/>
    <path id="Path_382" data-name="Path 382" class="cls-2" d="M81.5,63.718c-.054-.013-.227.161-.369.2s-.158-.024-.282-.048a1.845,1.845,0,0,0-1.041-.033c-.419.182-.911.01-.877.176s-.107.45.069.608c.061.052.284.048.315.106.057.1-.026.2.049.286.117.139.469.036.61.036a2.749,2.749,0,0,1,.869.1c.3.091,1,.553.907-.067a5.461,5.461,0,0,0-.251-1.358" transform="translate(-32.313 -14.659)"/>
    <path id="Path_383" data-name="Path 383" class="cls-2" d="M81.156,68.9c.334-.022.426.2.448.484.018.254-.124.484-.107.571.054.28.1.445-.246.5a1.8,1.8,0,0,1-.583-.033c-.159-.065-.071-.223-.15-.232-.441-.05-.3-.163-.484-.321-.023-.021-.168-.053-.228-.091s-.136-.18-.2-.218c-.253-.144-.56-.139-.789-.349s-.08-.242.084-.458c.138-.182.268-.372.406-.316a1.241,1.241,0,0,0,.52.089,1.611,1.611,0,0,1,.609.092c.118.04.355.016.417.109a.262.262,0,0,0,.3.171" transform="translate(-32.202 -17.153)"/>
    <path id="Path_384" data-name="Path 384" class="cls-2" d="M76.478,70.895c.216-.038.238.1.394.195.229.14.451-.036.55.09a2.83,2.83,0,0,0,1.046.721,3.749,3.749,0,0,1,1.048,1.114,4.951,4.951,0,0,1,.369.634c.061.119.192.178.2.265.017.13,0,.172.012.3.023.337.121,1.289-.426,1.3-.295.007-.469-.445-.6-.61a5.331,5.331,0,0,1-.412-.554c-.063-.1-.184-.1-.258-.213a6.589,6.589,0,0,0-.736-1.023,4.833,4.833,0,0,1-.929-1.2c-.173-.338-.8-.706-.363-.981Z" transform="translate(-30.888 -18.457)"/>
    <path id="Path_385" data-name="Path 385" class="cls-2" d="M63.515,65.348c.125-.074.255-.055.431.09s.095.847.01.842c-.389-.024-.805-.72-.441-.932" transform="translate(-24.072 -15.501)"/>
    <path id="Path_386" data-name="Path 386" class="cls-2" d="M68.276,68.4c.164-.177.443.072.585.173a1.686,1.686,0,0,0,.385.122c.107.047.153.145.29.177.275.062.39.235.587.391a3.343,3.343,0,0,1,.449.344c.141.144.331.144.45.495.036.1.217.149.274.237.067.108.062.272.139.392.276.447.564.663.861,1.2.066.121.227.171.326.286a2.95,2.95,0,0,1,.62,1.005c.1.338.121.336.217.445.047.053.134.159.2.232.1.107.047.239.117.357a6.531,6.531,0,0,0,.313.582,1.735,1.735,0,0,1,.2.307,3.572,3.572,0,0,1,.215.31c.131.292.734,1,.174,1.248-.28.127-.537.009-.707-.326-.117-.235-.188-.418-.286-.576-.032-.047-.1-.085-.124-.149-.063-.158-.2-.148-.273-.3s-.094-.367-.189-.474a2.2,2.2,0,0,1-.494-.633,1.856,1.856,0,0,0-.508-.8,3.5,3.5,0,0,1-.473-.7c-.053-.085-.172-.146-.217-.227-.072-.124-.064-.269-.148-.4a4.429,4.429,0,0,0-.664-.854,3.508,3.508,0,0,1-.662-.711,2.8,2.8,0,0,0-.606-.767,7.011,7.011,0,0,1-.469-.666c-.211-.235-.6-.265-.6-.658Z" transform="translate(-26.667 -17.102)"/>
    <path id="Path_387" data-name="Path 387" class="cls-2" d="M65.632,70.271c0-.152.6.052.744.105a1.147,1.147,0,0,1,.551.5c.408.582.678.563.983.934.329.4.686.8,1.021,1.213a6.451,6.451,0,0,1,.565.759c.15.244.243.47.376.691s.35.3.528.511a3,3,0,0,1,.391.871,7.678,7.678,0,0,0,.891,1.277c.533.8-.018,1.038-.717.715a2.008,2.008,0,0,1-.326-.2,2.814,2.814,0,0,1-.451-.319c-.124-.138-.042-.138-.067-.291-.039-.218-.032-.161-.226-.3-.12-.091-.074-.181-.107-.262-.052-.127-.009-.215-.054-.259s-.135-.026-.223-.1c-.066-.061-.025-.2-.045-.224-.05-.066-.121-.05-.162-.138s-.035.058-.239-.516a5.041,5.041,0,0,0-.6-.811,12.969,12.969,0,0,0-1.015-1.542c-.191-.233-.37-.286-.46-.691-.062-.281-.393-.239-.49-.49-.1-.28-.477-.368-.588-.6-.049-.1.032-.216-.01-.29s-.148-.108-.21-.171c-.116-.111-.06-.37-.06-.37" transform="translate(-25.263 -18.097)"/>
    <path id="Path_388" data-name="Path 388" class="cls-2" d="M63.307,70.813c.217-.17.887.649,1.121.895a7.07,7.07,0,0,1,.9,1.163c.24.4.416.85.693,1.243a3.187,3.187,0,0,1,.3.546c.063.134.041.089.191.2.127.1.193.055.292.223s.055.386.169.554c.086.13.307.2.359.325.04.1.008.172.028.266a.953.953,0,0,0,.171.256c.131.192.445.31.238.507s-.9-.373-1.076-.687c-.1-.177-.538-.172-.656-.474-.273-.7-.4-.51-.535-.827-.275-.64-.64-1.007-.909-1.574a10.068,10.068,0,0,0-.8-1.4,2.945,2.945,0,0,1-.336-.587,2.886,2.886,0,0,1-.151-.561s0-.065.013-.076" transform="translate(-24.029 -18.403)"/>
    <path id="Path_389" data-name="Path 389" class="cls-2" d="M61.922,57.661c.015-.057.034-.12.054-.178.024-.075.031-.121.1-.146s.249-.05.233.081a.827.827,0,0,1-.139.34.236.236,0,0,1-.207.124c-.1-.01-.065-.144-.046-.221" transform="translate(-23.29 -11.267)"/>
    <path id="Path_390" data-name="Path 390" class="cls-2" d="M53.344,57.339c.091.046.047.24.067.328a.922.922,0,0,0,.1.3c.149.232.33.166.554.077a2.5,2.5,0,0,1,.67-.23c.081-.007.243.035.237-.086,0-.048-.146-.166-.183-.195a2.5,2.5,0,0,0-.5-.323,1.848,1.848,0,0,0-.739-.092,2.269,2.269,0,0,0-1.331.523,1.6,1.6,0,0,0-.683,1,1.767,1.767,0,0,0-.014.687,1.9,1.9,0,0,0,1.388,1.144c.495.164,1.018.189,1.523.313.439.11,1.14.3,1.328.753a1.57,1.57,0,0,1-.139,1.271,1.032,1.032,0,0,1-.344.344s-.008.664,0,.831a1.867,1.867,0,0,0,1.235-.723,1.831,1.831,0,0,0,.3-1.325,1.78,1.78,0,0,0-.729-1.479,2.483,2.483,0,0,0-.863-.47,3.2,3.2,0,0,0-.953-.129A4.1,4.1,0,0,1,53.2,59.7a.9.9,0,0,1-.587-1.222A1.454,1.454,0,0,1,52.9,58.1c.075-.077.165-.107.2-.2.042-.119-.005-.269.03-.392.016-.054.053-.138.11-.161" transform="translate(-17.769 -11.16)"/>
    <path id="Path_391" data-name="Path 391" class="cls-2" d="M55.008,71.3a1.383,1.383,0,0,0-1.135.8,1.318,1.318,0,0,0,.3,1.31,2.672,2.672,0,0,0,1.232.5c.224.059.545.153.766.226a1.122,1.122,0,0,1,.637.435.765.765,0,0,1-.4,1.067l-.034.9a2.072,2.072,0,0,0,.834-.53,1.65,1.65,0,0,0,.508-1.123,1.472,1.472,0,0,0-.681-1.157,3.922,3.922,0,0,0-1.549-.6.729.729,0,0,1-.406-.372Z" transform="translate(-19 -18.675)"/>
    <path id="Path_392" data-name="Path 392" class="cls-2" d="M56.131,81.424a.707.707,0,0,0-.515,1.024,2.6,2.6,0,0,0,1.125.818c.272.147.495.247.5.569,0,.137-.04.762-.04.762.465-.16.868-.878.66-1.175a1.946,1.946,0,0,0-.88-.751s-.414-.239-.8-.406c-.081-.034-.052-.842-.052-.842" transform="translate(-19.912 -24.041)"/>
    <path id="Path_393" data-name="Path 393" class="cls-2" d="M56.379,88.264l.006.349c-.192-.007-.59.176-.729-.027.067-.026.185-.056.372-.13a2.048,2.048,0,0,0,.35-.192" transform="translate(-19.977 -27.668)"/>
    <path id="Path_394" data-name="Path 394" d="M57.147,57.761a.189.189,0,0,1-.242.094c-.11-.032-.182-.124-.157-.207a.188.188,0,0,1,.244-.092c.109.03.18.123.156.206" transform="translate(-20.554 -11.388)"/>
    <path id="Path_395" data-name="Path 395" class="cls-2" d="M61.7,61.85c-.006-.059.049-.485.049-.485A6.791,6.791,0,0,0,61.7,60.5a13.035,13.035,0,0,0-.422-1.522c-.112-.385-.689-.549-.689-.549l-.038,2.143a4.986,4.986,0,0,1,.578.466,5.633,5.633,0,0,1,.569.81" transform="translate(-22.575 -11.856)"/>
    <path id="Path_396" data-name="Path 396" d="M100.005,36.057a1.869,1.869,0,1,1-1.869,1.867A1.871,1.871,0,0,1,100.005,36.057Zm0,3.362a1.5,1.5,0,1,0-1.427-1.5A1.431,1.431,0,0,0,100.008,39.419Zm-.676-2.525h.789c.472,0,.705.189.705.579a.523.523,0,0,1-.53.569l.585.909h-.357l-.574-.909h-.282v.909h-.335Zm.335.885h.4c.259,0,.422-.054.422-.322,0-.233-.208-.3-.422-.3h-.4Z" transform="translate(-42.514 0)"/>
    <path id="Path_397" data-name="Path 397" d="M407.911,55a1.869,1.869,0,1,1-1.865,1.869A1.871,1.871,0,0,1,407.911,55Zm0,3.362a1.5,1.5,0,1,0-1.423-1.493A1.43,1.43,0,0,0,407.914,58.366Zm-.674-2.524h.788c.474,0,.707.19.707.578a.524.524,0,0,1-.53.569l.582.91h-.355l-.573-.91h-.281v.91h-.338Zm.338.886h.4c.256,0,.422-.054.422-.322,0-.233-.206-.3-.422-.3h-.4Z" transform="translate(-205.864 -10.04)"/>
    <g id="Group_197" data-name="Group 197" transform="translate(62.665 44.654)">
      <path id="Path_398" data-name="Path 398" d="M113.136,56.153h1.753l4.182,10.065,4.2-10.065h1.624V67.6h-1.132V57.283h-.032L119.56,67.6h-.966l-4.3-10.314h-.033V67.6h-1.129Z" transform="translate(-113.136 -55.3)"/>
      <g id="Group_194" data-name="Group 194" transform="translate(13.54 0)">
        <path id="Path_399" data-name="Path 399" d="M145.876,70.171c1.8,0,2.771-1.559,2.771-3.493s-.968-3.493-2.771-3.493-2.77,1.558-2.77,3.493.967,3.493,2.77,3.493m0-7.871c2.708,0,3.9,2.1,3.9,4.378s-1.2,4.375-3.9,4.375-3.9-2.1-3.9-4.375,1.2-4.378,3.9-4.378" transform="translate(-141.976 -58.561)"/>
        <path id="Path_400" data-name="Path 400" d="M162.084,64.464a19.642,19.642,0,0,0-.067-1.969h1v1.494h.034a2.65,2.65,0,0,1,2.7-1.689c2.065,0,2.853,1.376,2.853,3.213v5.345h-1.033V65.776c0-1.575-.558-2.591-1.985-2.591-1.885,0-2.475,1.657-2.475,3.049v4.624h-1.031Z" transform="translate(-152.608 -58.561)"/>
        <path id="Path_401" data-name="Path 401" d="M184.959,66.645h-.294c-1.787,0-3.92.18-3.92,2.016,0,1.1.787,1.509,1.739,1.509,2.426,0,2.476-2.116,2.476-3.017Zm.1,2.869h-.034a2.941,2.941,0,0,1-2.657,1.541c-2.377,0-2.753-1.607-2.753-2.362,0-2.8,2.985-2.934,5.148-2.934h.2v-.427c0-1.425-.508-2.147-1.9-2.147a4.448,4.448,0,0,0-2.459.689v-1a6.587,6.587,0,0,1,2.459-.574c2.067,0,2.937.935,2.937,3.115V69.1a11.9,11.9,0,0,0,.082,1.754h-1.016Z" transform="translate(-161.944 -58.561)"/>
        <path id="Path_402" data-name="Path 402" d="M197.767,64.368A15.234,15.234,0,0,0,197.7,62.5h1.031V64.1h.035a2.479,2.479,0,0,1,2.149-1.8,3.056,3.056,0,0,1,.719.1V63.48a2.719,2.719,0,0,0-.755-.1c-1.639,0-2.081,1.835-2.081,3.344v4.131h-1.033Z" transform="translate(-171.539 -58.562)"/>
        <path id="Path_403" data-name="Path 403" d="M212.991,63.612a4.731,4.731,0,0,0-1.786-.427c-2.017,0-3.147,1.459-3.147,3.492,0,1.9,1.146,3.494,3.033,3.494a5.385,5.385,0,0,0,1.885-.378l.1.967a6.158,6.158,0,0,1-2.146.3c-2.689,0-4-2.05-4-4.378a4.052,4.052,0,0,1,4.131-4.377,6.217,6.217,0,0,1,2.014.328Z" transform="translate(-176.433 -58.561)"/>
        <path id="Path_404" data-name="Path 404" d="M223.162,54.336H224.2v5.346h.032a2.836,2.836,0,0,1,2.608-1.607c2.244,0,2.852,1.492,2.852,3.559v5h-1.033V61.649c0-1.442-.277-2.689-1.984-2.689-1.836,0-2.475,1.738-2.475,3.2v4.476h-1.033Z" transform="translate(-185.046 -54.336)"/>
      </g>
      <path id="Path_405" data-name="Path 405" d="M251.406,56.153h1.131V61.22h5.787V56.153h1.131V67.6h-1.131V62.2h-5.787V67.6h-1.131Z" transform="translate(-186.49 -55.3)"/>
      <g id="Group_195" data-name="Group 195" transform="translate(74.8 3.739)">
        <path id="Path_406" data-name="Path 406" d="M278.182,66.086c0-1.458-.589-2.9-2.131-2.9a2.734,2.734,0,0,0-2.459,2.9Zm.511,4.51a6.871,6.871,0,0,1-2.429.457c-2.772,0-3.8-1.867-3.8-4.375,0-2.559,1.41-4.378,3.525-4.378,2.362,0,3.328,1.9,3.328,4.148v.525h-5.72c0,1.77.95,3.2,2.753,3.2a5.381,5.381,0,0,0,2.347-.624Z" transform="translate(-272.46 -62.3)"/>
        <path id="Path_407" data-name="Path 407" d="M294.634,66.645h-.292c-1.787,0-3.92.18-3.92,2.016,0,1.1.784,1.509,1.736,1.509,2.426,0,2.477-2.116,2.477-3.017Zm.1,2.869H294.7a2.943,2.943,0,0,1-2.658,1.541c-2.376,0-2.754-1.607-2.754-2.362,0-2.8,2.985-2.934,5.148-2.934h.2v-.427c0-1.425-.508-2.147-1.9-2.147a4.432,4.432,0,0,0-2.458.689v-1a6.568,6.568,0,0,1,2.458-.574c2.065,0,2.936.935,2.936,3.115V69.1a12.244,12.244,0,0,0,.079,1.754h-1.015Z" transform="translate(-281.388 -62.3)"/>
      </g>
      <rect id="Rectangle_48" data-name="Rectangle 48" width="1.032" height="12.297" transform="translate(91.259 0)"/>
      <g id="Group_196" data-name="Group 196" transform="translate(93.651 0)">
        <path id="Path_408" data-name="Path 408" d="M317.189,60.918h-1.9v5.41c0,.754.278,1.378,1.117,1.378a2.422,2.422,0,0,0,.951-.2l.064.852a3.767,3.767,0,0,1-1.262.23c-1.836,0-1.9-1.262-1.9-2.789V60.918h-1.64v-.887h1.64V58.015l1.032-.361v2.377h1.9Z" transform="translate(-312.612 -56.096)"/>
        <path id="Path_409" data-name="Path 409" d="M325.713,54.336h1.031v5.346h.032a2.841,2.841,0,0,1,2.609-1.607c2.245,0,2.849,1.492,2.849,3.559v5h-1.028V61.649c0-1.442-.283-2.689-1.986-2.689-1.836,0-2.476,1.738-2.476,3.2v4.476h-1.031Z" transform="translate(-319.562 -54.336)"/>
        <path id="Path_410" data-name="Path 410" d="M352.089,57.212a5.906,5.906,0,0,0-2.559-.492c-2.967,0-4.64,2.1-4.64,4.934,0,2.887,1.622,4.934,4.64,4.934a5.669,5.669,0,0,0,2.559-.49l.067.983a6.172,6.172,0,0,1-2.626.491c-3.607,0-5.772-2.375-5.772-5.918,0-3.476,2.233-5.917,5.772-5.917a7.435,7.435,0,0,1,2.626.425Z" transform="translate(-329.135 -55.079)"/>
        <path id="Path_411" data-name="Path 411" d="M369.81,66.645h-.3c-1.785,0-3.919.18-3.919,2.016,0,1.1.791,1.509,1.739,1.509,2.431,0,2.478-2.116,2.478-3.017Zm.1,2.869h-.035a2.935,2.935,0,0,1-2.654,1.541c-2.376,0-2.755-1.607-2.755-2.362,0-2.8,2.983-2.934,5.148-2.934h.2v-.427c0-1.425-.508-2.147-1.9-2.147a4.441,4.441,0,0,0-2.458.689v-1a6.572,6.572,0,0,1,2.458-.574c2.069,0,2.938.935,2.938,3.115V69.1a11.9,11.9,0,0,0,.082,1.754h-1.016Z" transform="translate(-340.121 -58.561)"/>
        <path id="Path_412" data-name="Path 412" d="M382.617,64.368a15.469,15.469,0,0,0-.064-1.871h1.031V64.1h.033a2.482,2.482,0,0,1,2.149-1.8,3.087,3.087,0,0,1,.721.1V63.48a2.717,2.717,0,0,0-.755-.1c-1.638,0-2.082,1.835-2.082,3.344v4.131h-1.034Z" transform="translate(-349.717 -58.562)"/>
        <path id="Path_413" data-name="Path 413" d="M397.5,66.086c0-1.458-.588-2.9-2.131-2.9a2.734,2.734,0,0,0-2.458,2.9Zm.511,4.51a6.836,6.836,0,0,1-2.429.457c-2.77,0-3.8-1.867-3.8-4.375,0-2.559,1.41-4.378,3.526-4.378,2.359,0,3.327,1.9,3.327,4.148v.525h-5.721c0,1.77.949,3.2,2.752,3.2a5.4,5.4,0,0,0,2.347-.624Z" transform="translate(-354.609 -58.561)"/>
      </g>
    </g>
    <g id="Group_198" data-name="Group 198" transform="translate(62.631 61.848)">
      <path id="Path_414" data-name="Path 414" class="cls-3" d="M113.064,92.029h1.506c1.177,0,2.156.412,2.156,1.719,0,1.277-1,1.729-2.032,1.729h-.807v2.3h-.823Zm.823,2.723h.815a1.033,1.033,0,0,0,1.152-1.011c0-.724-.757-.988-1.267-.988h-.7Z" transform="translate(-113.064 -91.503)"/>
      <path id="Path_415" data-name="Path 415" class="cls-3" d="M122.2,95.508a2.676,2.676,0,0,1,1.383-.4c1.2,0,1.687.593,1.687,1.737v1.736a6.562,6.562,0,0,0,.033.823h-.724v-.544h-.016a1.554,1.554,0,0,1-1.3.642c-.905,0-1.539-.4-1.539-1.309,0-1.053,1.152-1.382,1.95-1.382.3,0,.518,0,.823.016,0-.724-.263-1.095-1.037-1.095a1.976,1.976,0,0,0-1.218.428Zm2.3,1.9c-.164,0-.329-.016-.493-.016-.42,0-1.456.066-1.456.806a.739.739,0,0,0,.782.684,1.059,1.059,0,0,0,1.168-1.1Z" transform="translate(-117.658 -93.139)"/>
      <path id="Path_416" data-name="Path 416" class="cls-3" d="M131.628,95.212h.724v.65h.017a1.276,1.276,0,0,1,1.094-.749,2.181,2.181,0,0,1,.51.058v.692a1.142,1.142,0,0,0-.428-.074c-.691,0-1.144.658-1.144,1.712v1.909h-.774Z" transform="translate(-122.912 -93.139)"/>
      <path id="Path_417" data-name="Path 417" class="cls-3" d="M140,94.573h-1.111v2.3a.666.666,0,0,0,.65.748.954.954,0,0,0,.527-.148v.658a2.444,2.444,0,0,1-.658.115c-.8,0-1.292-.379-1.292-1.218V94.573h-.947v-.625h.947v-.971l.773-.247v1.218H140Z" transform="translate(-125.852 -91.875)"/>
      <path id="Path_418" data-name="Path 418" class="cls-3" d="M150.806,95.113a2.071,2.071,0,0,1,2.131,2.2,2.136,2.136,0,1,1-4.27,0A2.073,2.073,0,0,1,150.806,95.113Zm0,3.769a1.407,1.407,0,0,0,1.308-1.571,1.334,1.334,0,1,0-2.625,0A1.407,1.407,0,0,0,150.806,98.882Z" transform="translate(-131.952 -93.139)"/>
      <path id="Path_419" data-name="Path 419" class="cls-3" d="M159.488,93.607H158.5v-.625h.987v-.387c0-1.02.263-1.686,1.408-1.686a3.14,3.14,0,0,1,.518.05l-.033.625a1.206,1.206,0,0,0-.37-.05c-.667,0-.749.427-.749.995v.453h1.11v.625h-1.11v3.572h-.774Z" transform="translate(-137.169 -90.908)"/>
      <path id="Path_420" data-name="Path 420" class="cls-3" d="M172.643,91.82a2.978,2.978,0,1,1-2.765,2.97A2.709,2.709,0,0,1,172.643,91.82Zm0,5.217c1.324,0,1.893-1.1,1.893-2.246,0-1.169-.625-2.255-1.893-2.247-1.267-.008-1.892,1.078-1.892,2.247C170.75,95.934,171.318,97.037,172.643,97.037Z" transform="translate(-143.205 -91.392)"/>
      <path id="Path_421" data-name="Path 421" class="cls-3" d="M183.55,95.212h.741V95.8h.016a1.679,1.679,0,0,1,1.423-.692,1.875,1.875,0,0,1,1.81,2.123c0,1.153-.535,2.271-1.8,2.271a1.5,1.5,0,0,1-1.4-.674h-.016v2.3h-.774Zm2.016.526c-.839,0-1.243.8-1.243,1.58,0,.7.362,1.564,1.234,1.564.831,0,1.177-.93,1.16-1.588C186.735,96.537,186.405,95.738,185.566,95.738Z" transform="translate(-150.458 -93.139)"/>
      <path id="Path_422" data-name="Path 422" class="cls-3" d="M195.375,94.573h-1.111v2.3a.666.666,0,0,0,.65.748.956.956,0,0,0,.527-.148v.658a2.451,2.451,0,0,1-.659.115c-.8,0-1.292-.379-1.292-1.218V94.573h-.946v-.625h.946v-.971l.773-.247v1.218h1.111Z" transform="translate(-155.229 -91.875)"/>
      <path id="Path_423" data-name="Path 423" class="cls-3" d="M203.915,99.521h-.749v-.667h-.016a1.51,1.51,0,0,1-1.374.765c-1.086,0-1.571-.674-1.571-1.8V95.324h.774V97.5c0,.979.214,1.456.888,1.5.88,0,1.276-.708,1.276-1.728V95.324h.773Z" transform="translate(-159.293 -93.251)"/>
      <path id="Path_424" data-name="Path 424" class="cls-3" d="M210.459,95.212h.724v.609h.016a1.419,1.419,0,0,1,1.332-.708,1.241,1.241,0,0,1,1.193.815,1.5,1.5,0,0,1,1.3-.815c1.07,0,1.457.692,1.457,1.6v2.692h-.773v-2.5c0-.519-.124-1.169-.749-1.169-.79,0-1.1.774-1.1,1.555v2.116h-.773v-2.5c0-.519-.124-1.169-.749-1.169-.79,0-1.1.774-1.1,1.555v2.116h-.774Z" transform="translate(-164.733 -93.139)"/>
      <path id="Path_425" data-name="Path 425" class="cls-3" d="M229.411,92.865a2.309,2.309,0,0,0-1.185-.321,2.248,2.248,0,0,0-.041,4.493,2.822,2.822,0,0,0,1.251-.281l.05.8a3.6,3.6,0,0,1-1.308.206,2.83,2.83,0,0,1-3.028-2.995,2.863,2.863,0,0,1,3.036-2.946,3.158,3.158,0,0,1,1.292.247Z" transform="translate(-172.527 -91.392)"/>
      <path id="Path_426" data-name="Path 426" class="cls-3" d="M235.777,95.508a2.678,2.678,0,0,1,1.383-.4c1.2,0,1.686.593,1.686,1.737v1.736a6.623,6.623,0,0,0,.033.823h-.724v-.544h-.016a1.556,1.556,0,0,1-1.3.642c-.905,0-1.539-.4-1.539-1.309,0-1.053,1.152-1.382,1.95-1.382.3,0,.518,0,.822.016,0-.724-.263-1.095-1.036-1.095a1.976,1.976,0,0,0-1.218.428Zm2.3,1.9c-.164,0-.329-.016-.493-.016-.419,0-1.456.066-1.456.806a.739.739,0,0,0,.782.684,1.059,1.059,0,0,0,1.168-1.1Z" transform="translate(-177.912 -93.139)"/>
      <path id="Path_427" data-name="Path 427" class="cls-3" d="M245.2,95.212h.724v.65h.016a1.278,1.278,0,0,1,1.094-.749,2.182,2.182,0,0,1,.51.058v.692a1.142,1.142,0,0,0-.428-.074c-.692,0-1.143.658-1.143,1.712v1.909H245.2Z" transform="translate(-183.166 -93.139)"/>
      <path id="Path_428" data-name="Path 428" class="cls-3" d="M254.485,99.236a3.207,3.207,0,0,1-1.324.271,2.008,2.008,0,0,1-2.172-2.271,1.95,1.95,0,0,1,1.967-2.123c1.4,0,1.851,1.021,1.851,2.37h-3a1.373,1.373,0,0,0,1.382,1.4,2.482,2.482,0,0,0,1.292-.419Zm-.5-2.329a1.06,1.06,0,0,0-1.045-1.169,1.161,1.161,0,0,0-1.128,1.169Z" transform="translate(-186.235 -93.139)"/>
    </g>
    <path id="Path_429" data-name="Path 429" class="cls-3" d="M260.33,92.911a1.731,1.731,0,1,1,1.731,1.731A1.733,1.733,0,0,1,260.33,92.911Zm3.04,0a1.311,1.311,0,1,0-1.309,1.4A1.329,1.329,0,0,0,263.37,92.911Zm-1.975-.987h.729c.469,0,.723.163.723.576a.489.489,0,0,1-.513.527l.528.858h-.375l-.508-.844h-.221v.844h-.364Zm.364.839h.321c.215,0,.4-.029.4-.293,0-.23-.211-.269-.4-.269h-.326Z" transform="translate(-128.56 -29.205)"/>
  </g>
</svg>
