<svg xmlns="http://www.w3.org/2000/svg" width="158.787" height="53.842" viewBox="0 0 158.787 53.842">
  <defs>
    <style>
      .cls-1 {
        fill: #55565a;
      }

      .cls-2 {
        fill: #005796;
      }
    </style>
  </defs>
  <g id="NAAMCalifornia" transform="translate(-18 -4.75)">
    <path id="Path_267" data-name="Path 267" class="cls-1" d="M201.746,117.34h1.772c1.385,0,2.537.484,2.537,2.024,0,1.5-1.172,2.034-2.392,2.034h-.949v2.7h-.968Zm.968,3.206h.959a1.217,1.217,0,0,0,1.356-1.192c0-.853-.891-1.162-1.491-1.162h-.824Z" transform="translate(-110.195 -67.541)"/>
    <path id="Path_268" data-name="Path 268" class="cls-1" d="M214.229,122.052a3.146,3.146,0,0,1,1.627-.466c1.413,0,1.985.7,1.985,2.044v2.044a7.867,7.867,0,0,0,.039.969h-.852V126h-.02a1.833,1.833,0,0,1-1.53.756c-1.066,0-1.811-.465-1.811-1.54,0-1.24,1.356-1.627,2.3-1.627.358,0,.61,0,.968.02,0-.853-.31-1.288-1.22-1.288a2.322,2.322,0,0,0-1.434.5Zm2.7,2.236c-.193,0-.387-.018-.581-.018-.494,0-1.714.077-1.714.949a.87.87,0,0,0,.92.8,1.247,1.247,0,0,0,1.375-1.3Z" transform="translate(-117.345 -70.083)"/>
    <path id="Path_269" data-name="Path 269" class="cls-1" d="M227.3,121.7h.852v.765h.02a1.5,1.5,0,0,1,1.288-.882,2.572,2.572,0,0,1,.6.068v.813a1.34,1.34,0,0,0-.5-.087c-.813,0-1.346.775-1.346,2.014v2.247H227.3Z" transform="translate(-125.519 -70.083)"/>
    <path id="Path_270" data-name="Path 270" class="cls-1" d="M238.26,120.475h-1.307v2.7a.784.784,0,0,0,.765.881,1.115,1.115,0,0,0,.62-.175v.775a2.854,2.854,0,0,1-.775.136c-.94,0-1.52-.445-1.52-1.434v-2.885H234.93v-.736h1.113V118.6l.91-.291v1.434h1.307Z" transform="translate(-130.095 -68.119)"/>
    <path id="Path_271" data-name="Path 271" class="cls-1" d="M253.276,121.586a2.436,2.436,0,0,1,2.509,2.586,2.514,2.514,0,1,1-5.026,0A2.438,2.438,0,0,1,253.276,121.586Zm0,4.436a1.656,1.656,0,0,0,1.54-1.85,1.57,1.57,0,1,0-3.089,0A1.657,1.657,0,0,0,253.276,126.022Z" transform="translate(-139.59 -70.083)"/>
    <path id="Path_272" data-name="Path 272" class="cls-1" d="M265.458,118.973H264.3v-.736h1.162v-.456c0-1.2.31-1.985,1.656-1.985a3.7,3.7,0,0,1,.61.057l-.038.736a1.463,1.463,0,0,0-.436-.057c-.785,0-.882.5-.882,1.171v.533h1.308v.736h-1.308v4.2h-.91Z" transform="translate(-147.706 -66.617)"/>
    <path id="Path_273" data-name="Path 273" class="cls-1" d="M283.21,117.051a3.188,3.188,0,0,1,3.254,3.5c0,2.053-1.192,3.5-3.254,3.5s-3.254-1.443-3.254-3.5A3.188,3.188,0,0,1,283.21,117.051Zm0,6.14c1.559,0,2.227-1.3,2.227-2.644,0-1.375-.736-2.654-2.227-2.644-1.491-.01-2.227,1.269-2.227,2.644C280.983,121.893,281.652,123.191,283.21,123.191Z" transform="translate(-157.103 -67.368)"/>
    <path id="Path_274" data-name="Path 274" class="cls-1" d="M298.778,121.7h.872v.7h.02a1.977,1.977,0,0,1,1.675-.813c1.433,0,2.13,1.172,2.13,2.5,0,1.356-.63,2.673-2.121,2.673a1.767,1.767,0,0,1-1.646-.794h-.019v2.711h-.911Zm2.373.62c-.988,0-1.462.939-1.462,1.859,0,.823.426,1.84,1.452,1.84.978,0,1.385-1.094,1.366-1.869C302.526,123.262,302.138,122.323,301.151,122.323Z" transform="translate(-168.387 -70.083)"/>
    <path id="Path_275" data-name="Path 275" class="cls-1" d="M314.49,120.475h-1.308v2.7a.783.783,0,0,0,.765.881,1.121,1.121,0,0,0,.62-.175v.775a2.872,2.872,0,0,1-.775.136c-.939,0-1.521-.445-1.521-1.434v-2.885h-1.114v-.736h1.114V118.6l.911-.291v1.434h1.308Z" transform="translate(-175.809 -68.119)"/>
    <path id="Path_276" data-name="Path 276" class="cls-1" d="M326.071,126.816h-.881v-.785h-.019a1.776,1.776,0,0,1-1.617.9c-1.279,0-1.85-.794-1.85-2.121v-2.934h.911v2.557c0,1.151.251,1.714,1.045,1.762,1.036,0,1.5-.833,1.5-2.034v-2.285h.91Z" transform="translate(-182.135 -70.257)"/>
    <path id="Path_277" data-name="Path 277" class="cls-1" d="M335.82,121.7h.852v.716h.019a1.669,1.669,0,0,1,1.569-.833,1.459,1.459,0,0,1,1.4.96,1.761,1.761,0,0,1,1.53-.96c1.259,0,1.713.813,1.713,1.889v3.167H342V123.7c0-.61-.146-1.375-.882-1.375-.93,0-1.3.91-1.3,1.83v2.489h-.91V123.7c0-.61-.146-1.375-.881-1.375-.93,0-1.3.91-1.3,1.83v2.489h-.911Z" transform="translate(-190.672 -70.083)"/>
    <path id="Path_278" data-name="Path 278" class="cls-1" d="M361.061,118.281a2.722,2.722,0,0,0-1.4-.378,2.645,2.645,0,0,0-.048,5.288,3.336,3.336,0,0,0,1.472-.329l.059.939a4.227,4.227,0,0,1-1.54.242,3.33,3.33,0,0,1-3.564-3.525,3.369,3.369,0,0,1,3.573-3.467,3.741,3.741,0,0,1,1.52.29Z" transform="translate(-202.78 -67.368)"/>
    <path id="Path_279" data-name="Path 279" class="cls-1" d="M370.578,122.052a3.142,3.142,0,0,1,1.627-.466c1.414,0,1.985.7,1.985,2.044v2.044a7.636,7.636,0,0,0,.039.969h-.852V126h-.019a1.834,1.834,0,0,1-1.53.756c-1.066,0-1.811-.465-1.811-1.54,0-1.24,1.355-1.627,2.294-1.627.358,0,.611,0,.969.02,0-.853-.31-1.288-1.22-1.288a2.323,2.323,0,0,0-1.433.5Zm2.7,2.236c-.194,0-.387-.018-.581-.018-.494,0-1.714.077-1.714.949a.87.87,0,0,0,.92.8,1.247,1.247,0,0,0,1.375-1.3Z" transform="translate(-211.144 -70.083)"/>
    <path id="Path_280" data-name="Path 280" class="cls-1" d="M383.648,121.7h.852v.765h.019a1.5,1.5,0,0,1,1.288-.882,2.568,2.568,0,0,1,.6.068v.813a1.339,1.339,0,0,0-.5-.087c-.813,0-1.346.775-1.346,2.014v2.247h-.911Z" transform="translate(-219.305 -70.083)"/>
    <path id="Path_281" data-name="Path 281" class="cls-1" d="M395.729,126.438a3.772,3.772,0,0,1-1.559.32,2.363,2.363,0,0,1-2.557-2.673,2.3,2.3,0,0,1,2.315-2.5c1.645,0,2.178,1.2,2.178,2.79h-3.525a1.616,1.616,0,0,0,1.627,1.646,2.915,2.915,0,0,0,1.521-.494Zm-.591-2.74a1.246,1.246,0,0,0-1.23-1.375,1.367,1.367,0,0,0-1.327,1.375Z" transform="translate(-224.074 -70.083)"/>
    <g id="Group_193" data-name="Group 193" transform="translate(18 4.75)">
      <g id="Group_191" data-name="Group 191" transform="translate(0.758)">
        <path id="Path_282" data-name="Path 282" class="cls-1" d="M34.78,6.519h-.306a1.19,1.19,0,0,0-1.039.578,3.83,3.83,0,0,0-.383,2V29.536c0,.742.017,1.5.057,2.271s.108,1.551.21,2.347H30.55L22.929,9.177V30.151a2.933,2.933,0,0,0,.386,1.674,1.132,1.132,0,0,0,.959.559h.348v1.771H19.888V32.384h.346a1.143,1.143,0,0,0,1-.387,3.849,3.849,0,0,0,.271-1.846V9.792a15.2,15.2,0,0,0-.079-1.733,3.6,3.6,0,0,0-.23-1,.81.81,0,0,0-.385-.444,1.418,1.418,0,0,0-.539-.1h-.386V4.75H24.7L31.588,28V9.367A5.827,5.827,0,0,0,31.3,7.059a.926.926,0,0,0-.867-.54h-.462V4.75h4.81Z" transform="translate(-19.888 -4.75)"/>
        <path id="Path_283" data-name="Path 283" class="cls-1" d="M72.431,34.155H66.275v-1.81h.346c.771,0,1.155-.27,1.155-.807a4.592,4.592,0,0,0-.059-.6c-.038-.268-.084-.619-.135-1.057l-.5-3.425H60.771l-.616,3.229a5.994,5.994,0,0,0-.115,1.078,6.283,6.283,0,0,1-.04.773c0,.537.373.807,1.116.807h.347v1.81H57.191v-1.81h.27c.536,0,.924-.411,1.154-1.231L63.041,8.1a3.693,3.693,0,0,0,.057-.368,3.326,3.326,0,0,0,.02-.364c0-.538-.359-.809-1.078-.809h-.654V4.75h4.465l5.2,26.364q.346,1.229,1.037,1.231h.346Zm-5.618-9.468-2.771-14.2-2.925,14.2Z" transform="translate(-42.22 -4.75)"/>
        <path id="Path_284" data-name="Path 284" class="cls-1" d="M112.045,34.155h-6.16V32.384h.27a1.226,1.226,0,0,0,1.27-.866,11.428,11.428,0,0,0,.306-3.254V10.1l-3.924,24.054h-2.27L97.767,10.639V30.075a4.9,4.9,0,0,0,.248,1.634,1.045,1.045,0,0,0,1.1.714h.308v1.732h-4.54V32.423h.305a1.128,1.128,0,0,0,1.157-.616,4.94,4.94,0,0,0,.269-1.887v-18.7q0-1.54-.1-2.467a5.286,5.286,0,0,0-.307-1.422,1.107,1.107,0,0,0-.522-.634,1.8,1.8,0,0,0-.728-.137V4.75h5.274l3.116,22.86,3.345-22.86h5.353V6.519h-.271a1.621,1.621,0,0,0-.653.118.927.927,0,0,0-.445.557,5.12,5.12,0,0,0-.249,1.348q-.076.9-.077,2.443V27.15q0,1.731.057,2.77a8.087,8.087,0,0,0,.213,1.6,1.134,1.134,0,0,0,.423.714,1.41,1.41,0,0,0,.693.152h.308Z" transform="translate(-64.869 -4.75)"/>
        <path id="Path_285" data-name="Path 285" class="cls-1" d="M155.677,34.155h-6.16V32.384h.269a1.223,1.223,0,0,0,1.269-.866,11.25,11.25,0,0,0,.309-3.254V10.1l-3.925,24.054h-2.27L141.4,10.639V30.075a4.861,4.861,0,0,0,.253,1.634,1.037,1.037,0,0,0,1.095.714h.307v1.732h-4.541V32.423h.309a1.126,1.126,0,0,0,1.155-.616,5.02,5.02,0,0,0,.269-1.887v-18.7q0-1.54-.1-2.467a5.129,5.129,0,0,0-.309-1.422,1.113,1.113,0,0,0-.517-.634,1.819,1.819,0,0,0-.734-.137V4.75h5.275l3.117,22.86,3.347-22.86h5.352V6.519h-.271a1.624,1.624,0,0,0-.655.118.921.921,0,0,0-.443.557,5.281,5.281,0,0,0-.25,1.348q-.075.9-.077,2.443V27.15q0,1.731.057,2.77a7.948,7.948,0,0,0,.212,1.6,1.16,1.16,0,0,0,.422.714,1.426,1.426,0,0,0,.7.152h.308Z" transform="translate(-91.039 -4.75)"/>
        <path id="Path_286" data-name="Path 286" class="cls-1" d="M187.779,34l.156-.186v-.126a1.828,1.828,0,0,1,.131-.383,1.389,1.389,0,0,1,.238-.433.669.669,0,0,0,.163-.258.269.269,0,0,1,.232-.181.6.6,0,0,1-.077-.248l-.052-.3c0-.022.024-.062.077-.126l.078-.125c.042-.044.1-.094.169-.157a.36.36,0,0,0,.116-.258,1.2,1.2,0,0,1,.189-.453q.173-.29.265-.289a.219.219,0,0,0,.156-.064.172.172,0,0,1,.116-.061c.053,0,.1.045.139.14s.064.139.081.139c.069,0,.1-.051.1-.154,0-.051-.04-.092-.123-.119a.236.236,0,0,1-.162-.165,2.153,2.153,0,0,0-.075-.211.373.373,0,0,1-.041-.118.492.492,0,0,1,.126-.283c.08-.1.156-.155.224-.155a.283.283,0,0,0,.208-.14.264.264,0,0,1-.157-.219,2.074,2.074,0,0,0,.3-.557c.1-.245.211-.367.329-.367a.376.376,0,0,1,.132.063c.016-.043.064-.185.143-.423l-.093-.314a1.7,1.7,0,0,1,.348-.485l.106-.1a1.084,1.084,0,0,1,.61-.736c.454-.583.73-.876.825-.876.018,0,.051.037.106.109l.128-.046c.051,0,.079.035.079.11a3.835,3.835,0,0,0-.415.5h.01a.877.877,0,0,0,.1-.1c.037-.042.109-.116.2-.22,0,.044.017.064.053.064a.842.842,0,0,0,.143-.454c0-.022-.05-.064-.143-.126l-.027-.094c0-.063.155-.257.46-.579a6.4,6.4,0,0,1,1-.864l.13-.185a.151.151,0,0,1,.14-.079.594.594,0,0,1,.305.171l.051-.03a.73.73,0,0,1-.027-.237.124.124,0,0,1,.1-.124,1.054,1.054,0,0,1,.553-.409,1.772,1.772,0,0,0,.579-.327l.27-.125a1.6,1.6,0,0,0,.358-.094.88.88,0,0,1,.354-.063.644.644,0,0,0,.207-.1.637.637,0,0,1,.246-.1c.051,0,.148.07.284.2,0,.02.018.031.051.031l.168-.139h.027a5.177,5.177,0,0,0,.388.391,1.524,1.524,0,0,1,.543,1.174l-.066.657.025.548a.631.631,0,0,1-.2.469,3.843,3.843,0,0,1-.234,1.012,3.093,3.093,0,0,0-.227.836,4.079,4.079,0,0,1-.756,1.488,1.245,1.245,0,0,1-.161.275,4.369,4.369,0,0,0-.392.852,3,3,0,0,0-.462.747.735.735,0,0,1-.371.413h-.049l.049.345c-.326.646-.649.972-.963.972a.8.8,0,0,1-.579-.323.969.969,0,0,1-.287-.649q0-.769,1.469-1.864a.381.381,0,0,1,.1.029l.1-.218a.685.685,0,0,1-.053-.157q0-.22.4-.515c.119-.305.249-.466.385-.488l.505-.954.051-.158v-.236c0-.042.09-.135.273-.281l.024-.062v-.328a.368.368,0,0,1,.207-.316,1.79,1.79,0,0,0,.112-.509,2.842,2.842,0,0,1,.211-.775,2.648,2.648,0,0,0-.15-.9.323.323,0,0,0-.3-.165,1.434,1.434,0,0,0-.607.274,1.543,1.543,0,0,1-.559.273.15.15,0,0,1-.1-.047.16.16,0,0,0-.1-.045c-.042,0-.088.053-.128.163a.323.323,0,0,1-.158.2.655.655,0,0,0-.225.17,1.34,1.34,0,0,1-.369.268l-.205.327-.22.189c-.026.22-.141.329-.337.329-.044,0-.117.127-.22.377l-.1.124h-.208l-.024.141v.159a.189.189,0,0,1-.091.155l-.489.643-.093.061h-.1l-.052.032c-.027.374-.11.569-.258.58,0,.134-.125.319-.376.549l-.1.157h-.169l-.02.03c.055.064.09.1.09.124a.932.932,0,0,1-.152.354c-.1.173-.175.248-.226.228a1.946,1.946,0,0,1-.246.765l-.1.236a1.423,1.423,0,0,1-.156.251v.125q0,.406-.632.735l.077.391a3.155,3.155,0,0,1-.205.377l-.118.3a.589.589,0,0,1-.177.345.759.759,0,0,1-.125.25.342.342,0,0,0-.082.172l.023.22a3.7,3.7,0,0,0-.232.6,1.158,1.158,0,0,1-.13.337,1.406,1.406,0,0,0-.141.355,1.108,1.108,0,0,1-.245.414c-.1.447-.156.694-.156.735l-.18.19a1.614,1.614,0,0,1-.076.231l-.03.128v.219c0,.134-.106.3-.321.486a.243.243,0,0,1,.156.25,1.01,1.01,0,0,1-.121.546,1.354,1.354,0,0,0-.165.386,3.648,3.648,0,0,1-.194.508.331.331,0,0,1,.141.264l-.115,1.05.091.3a.766.766,0,0,1-.168.091.542.542,0,0,0,.154.322,3.263,3.263,0,0,1,.4.774c.034.044.107.062.218.062a.563.563,0,0,0,.232-.032,2.333,2.333,0,0,1,.342-.067,1.177,1.177,0,0,0,.565-.291h.209a.44.44,0,0,0,.43-.273c.084-.183.167-.273.254-.273a1,1,0,0,0,.374-.127h.075a.487.487,0,0,1,.108-.171,2.7,2.7,0,0,0,.212-.291c.109-.16.206-.242.29-.242a5.467,5.467,0,0,0,.7-.641.238.238,0,0,1,.145-.048.241.241,0,0,0,.18-.158,3.982,3.982,0,0,1,.581-.655,2.559,2.559,0,0,0,.622-.824c.069-.2.151-.305.245-.305a1.314,1.314,0,0,1,.182.032h.024c.036,0,.062-.048.077-.14s.2-.261.533-.5a.688.688,0,0,1,.4-.548l.453-.532.206.03a.384.384,0,0,0,.091-.282.313.313,0,0,1,.207-.3h.1l.079-.063c.057-.343.157-.516.3-.516h.1c.068,0,.1-.1.1-.3s.187-.332.558-.439l.258-.158c.017-.03.057-.043.116-.043.225,0,.338.21.338.64a.34.34,0,0,1-.105.267l-.18.186-.025.267-.466.518a.443.443,0,0,0-.131.288c-.007.121-.034.181-.076.181a.326.326,0,0,1-.161.135.267.267,0,0,0-.161.163.9.9,0,0,1-.572.626,1.468,1.468,0,0,1-.412.726c-.13.082-.2.162-.218.245-.035.272-.156.4-.35.376a3.842,3.842,0,0,0-.607.876c0,.02-.009.032-.027.032l-.181-.032c-.019.02-.061.085-.136.187a.375.375,0,0,1-.3.173c-.125.01-.211.1-.265.275a.889.889,0,0,1-.144.323.866.866,0,0,0-.141.209c-.053.1-.1.148-.153.148-.079,0-.134-.088-.171-.266a.7.7,0,0,0-.205.234l.078.22a.149.149,0,0,1-.051.11,1.576,1.576,0,0,0-.19.3.837.837,0,0,1-.639.353c-.015,0-.049.071-.1.211a.392.392,0,0,1-.364.243c-.18.323-.332.487-.453.487l-.553.219a.776.776,0,0,1-.247-.033c-.052.148-.113.221-.179.221l-.181.061a.266.266,0,0,1-.22.157c-.123,0-.181-.041-.181-.125a.283.283,0,0,1,.024-.094v-.064c0-.061-.016-.094-.052-.094,0,.451-.1.675-.294.675a1.045,1.045,0,0,1-.288-.125h-.022l-.248.156a.141.141,0,0,1-.1.032,1.593,1.593,0,0,1-.956-.361h-.127c-.266,0-.471-.189-.609-.561l-.024-.064a.5.5,0,0,1-.35-.487,2.042,2.042,0,0,0-.262-.327,1.179,1.179,0,0,0-.111-.4.822.822,0,0,1-.09-.21l-.3-1.176c-.033-.342-.05-.627-.05-.848l-.027-.124V38.4l.053-.421-.026-.158a6.163,6.163,0,0,1,.239-.925,10.762,10.762,0,0,0,.3-1.189,2.188,2.188,0,0,1,.116-.485Z" transform="translate(-119.949 -15.005)"/>
        <path id="Path_287" data-name="Path 287" class="cls-1" d="M224.235,55.959l.208-.219a.222.222,0,0,0,.232-.211.477.477,0,0,1,.276-.338,1.177,1.177,0,0,0,.445-.509c.138-.257.277-.385.427-.385.05,0,.11.053.18.159a.485.485,0,0,1,.1.249,2.49,2.49,0,0,1-.258,1.067l-.051.437-.09.2a.616.616,0,0,0-.252.266,1.032,1.032,0,0,1-.3.342l-.131.221a.632.632,0,0,0-.381.361c-.063.169-.156.262-.273.281a.714.714,0,0,0-.381.316,1.666,1.666,0,0,1-.31.138l-.025.16a.929.929,0,0,1-.407.247,1.982,1.982,0,0,0-.416.18.44.44,0,0,1-.188.084.9.9,0,0,1-.452-.116,1.216,1.216,0,0,0-.426-.148.408.408,0,0,1-.091-.2.7.7,0,0,0-.132-.291.916.916,0,0,1-.114-.492l.052-.3a.286.286,0,0,0-.065-.158.292.292,0,0,1-.063-.156.166.166,0,0,1,.024-.094.137.137,0,0,0,.025-.1.558.558,0,0,0-.025-.17.7.7,0,0,1-.024-.155l.076-.769c0-.062-.017-.093-.053-.093s-.094.051-.185.155a.41.41,0,0,1-.32.16.8.8,0,0,0-.167.391,1.335,1.335,0,0,1-.259.281l-.049.092a.29.29,0,0,1-.2.18.466.466,0,0,0-.234.182l-.13.155-.243-.028a1.816,1.816,0,0,0-.143.272,1.193,1.193,0,0,1-.3.4l-.982.97c-.1.083-.255.188-.454.316l-.078.09a3.144,3.144,0,0,1-1.461.832,1.888,1.888,0,0,1-.817-.233.8.8,0,0,1-.5-.565l-.127-.641a1.338,1.338,0,0,1-.118-.611.859.859,0,0,1,.026-.252v-.094l-.026-.517c0-.125.083-.187.245-.187l-.023-.424a2.446,2.446,0,0,1,.225-.494,2.326,2.326,0,0,1,.3-.49l.132-.2a.546.546,0,0,1,.181-.4,2.087,2.087,0,0,0,.311-.431,1.759,1.759,0,0,1,.441-.485l.386-.471a4.057,4.057,0,0,1,.986-.876,1.451,1.451,0,0,0,.317-.316,1.516,1.516,0,0,1,.544-.414,3.744,3.744,0,0,0,.6-.334.889.889,0,0,1,.458-.2h.1a5.019,5.019,0,0,0,.687-.395h.077a.762.762,0,0,1,.248.126h.026l.205-.126a.266.266,0,0,1,.131-.028c.532,0,.826.448.877,1.347.019.19.064.281.132.281.086,0,.2-.189.369-.57a.979.979,0,0,1,1.015-.574c.368,0,.555.289.555.864a2.976,2.976,0,0,1-.749,1.924,1.258,1.258,0,0,0-.078.283l-.182.642v.033a.532.532,0,0,1-.109.256.549.549,0,0,0-.11.289l.026.391-.052.441a.582.582,0,0,0,.092.391,1.027,1.027,0,0,0,.6-.414.961.961,0,0,1,.265-.322l.13-.062A1.367,1.367,0,0,1,224.235,55.959Zm-4.3,0a.722.722,0,0,1,.318-.523.746.746,0,0,0,.319-.371,7.048,7.048,0,0,0,.7-.782,2.123,2.123,0,0,0,.46-.689.046.046,0,0,0-.051-.048h-.026l-.1.08-.232-.032-.247.032-.182-.111-.164.031-.262-.061a.588.588,0,0,0-.355.1,2.4,2.4,0,0,1-.57.228,1.935,1.935,0,0,0-.756.429c-.226.2-.389.3-.493.3a2.086,2.086,0,0,1-.607.671.69.69,0,0,0-.4.552,1.778,1.778,0,0,0-.339.373l-.09.268a.872.872,0,0,1-.258.18.363.363,0,0,0-.181.329,1,1,0,0,1-.177.47.655.655,0,0,0-.148.336c0,.512.083.77.245.77a1.335,1.335,0,0,0,.435-.167,1.655,1.655,0,0,0,.378-.227.565.565,0,0,1,.21-.127l.246-.157a.206.206,0,0,1,.115-.078.237.237,0,0,0,.128-.1.818.818,0,0,1,.233-.188.691.691,0,0,0,.258-.275c.149-.1.382-.267.712-.486l.274-.25a.953.953,0,0,0,.347-.264A.718.718,0,0,1,219.939,55.959Z" transform="translate(-136.676 -32.529)"/>
        <path id="Path_288" data-name="Path 288" class="cls-1" d="M242.1,40.355v-.11a1.738,1.738,0,0,1,.028-.345,1.517,1.517,0,0,1-.079-.454c0-.02.043-.168.13-.442l.114-.482a2.1,2.1,0,0,1,.107-.3,1.878,1.878,0,0,1-.078-.283.977.977,0,0,1,.167-.594,2.163,2.163,0,0,0,.284-.659l.258-.954.427-1.254a1.921,1.921,0,0,1,.122-.251c.072-.134.136-.253.181-.353s.115-.24.2-.427l.129-.033a.191.191,0,0,0,.051-.126,1.918,1.918,0,0,0-.051-.25l.454-.911.272-.672a.724.724,0,0,1,.282-.343,1.745,1.745,0,0,1,.454-.7,2.424,2.424,0,0,1,.283-.643l.246-.032a1.6,1.6,0,0,1,.128-.329l.026-.314c0,.064.022.045.064-.055s.11-.284.2-.555l.347-.484.107-.218c.042-.075.107-.216.2-.424a.727.727,0,0,0,.323-.344l.272-.267a1.786,1.786,0,0,1,.311-.767,1.729,1.729,0,0,0,.4-.282l.179-.065a.81.81,0,0,1,.325-.75l.154-.125a.974.974,0,0,1,.234-.125l.09-.031a.921.921,0,0,1,.361-.064,1.152,1.152,0,0,1,.868.431,1.428,1.428,0,0,1,.387.978.722.722,0,0,1-.193.456l-.053.126c-.12.574-.207.861-.259.861-.035,0-.08.03-.139.094a3.5,3.5,0,0,1-.055.58c-.154.031-.231.267-.231.7a1.281,1.281,0,0,1-.189.324,1.691,1.691,0,0,0-.25.628c-.064.262-.13.4-.2.4h-.141l.037.236a.657.657,0,0,1-.176.431.977.977,0,0,0-.212.447,1.3,1.3,0,0,1-.307.562l-.134.25a1.927,1.927,0,0,1-.2.331,1.452,1.452,0,0,0-.22.531l-.339.754c-.23.51-.407.757-.528.735a6.121,6.121,0,0,1-.154.7.369.369,0,0,1-.182.174.5.5,0,0,0-.219.274.917.917,0,0,1-.167.29l-.234.58a.654.654,0,0,0-.3.408c-.138.043-.225.183-.258.423a1.1,1.1,0,0,0-.13.281l-.453.549a.971.971,0,0,0-.374.681c-.018.255-.129.383-.336.383a1.511,1.511,0,0,1-.647-.235H243.8a1.714,1.714,0,0,1-.181.486l.053.424q0,.076-.208.986a.982.982,0,0,1,.1.329l-.023.346.063.422c.043.346.147.517.312.517l.31.062a2.446,2.446,0,0,0,.323-.233l.476-.314c.016,0,.026.011.026.03a.5.5,0,0,0,.209.063c.083,0,.128-.081.128-.251v-.2a.326.326,0,0,1,.187-.188.4.4,0,0,0,.2-.14c.059-.073.106-.11.141-.11h.128c.129,0,.2-.181.2-.548a.68.68,0,0,0,.13-.125h.154c.068,0,.144-.1.224-.305a1.845,1.845,0,0,1,.176-.366.821.821,0,0,0,.321-.095c.276-.6.488-.91.637-.91h.077a.819.819,0,0,0,.238-.445.311.311,0,0,1,.13-.259.892.892,0,0,0,.2-.158c.059-.061.1-.093.116-.093.131,0,.195.057.195.172l-.041.439.094.469a.666.666,0,0,1-.109.244.7.7,0,0,0-.114.4c0,.306-.043.466-.128.488a.335.335,0,0,0-.213.21.878.878,0,0,1-.277.328.932.932,0,0,0-.3.432l-.22.062-.127.093a1.125,1.125,0,0,1-.334.6,1.706,1.706,0,0,0-.429.657c-.027,0-.04.01-.04.033l-.209-.033c-.075.167-.152.268-.231.3a.444.444,0,0,0-.2.18.576.576,0,0,1-.275.227.463.463,0,0,0-.254.22.206.206,0,0,1-.153.142.321.321,0,0,0-.194.116c-.061.069-.113.1-.157.1-.015,0-.077-.011-.181-.031H244.7a.637.637,0,0,1-.36.186.414.414,0,0,0-.249.063.522.522,0,0,0-.238-.092,1.138,1.138,0,0,1-.366-.157,1.851,1.851,0,0,1-.272.064c-.148,0-.332-.177-.557-.526a1.9,1.9,0,0,1-.335-1.025,1.747,1.747,0,0,0-.15-.244.894.894,0,0,1-.151-.494v-.155l.028-.191v-.3l.027-.092c.129-.022.194-.045.194-.066Zm2.625-4.152.271-.189a1.563,1.563,0,0,1,.335-.6c.19-.233.325-.35.4-.35h.1a.666.666,0,0,1,.039-.218.911.911,0,0,0,.041-.3,1.634,1.634,0,0,1,.346-.518l.107-.279a1.146,1.146,0,0,1,.582-.675c.116-.3.207-.451.268-.451l.105-.034a1,1,0,0,1,.2-.421l.053-.094v-.249a1.048,1.048,0,0,1,.174-.261,1.747,1.747,0,0,0,.255-.423.7.7,0,0,1,.211-.307.608.608,0,0,0,.188-.391l.2-.028a.864.864,0,0,1,.028-.268l.026-.156c.042-.126.2-.452.453-.986l.206-.58a.388.388,0,0,1,.111-.226.6.6,0,0,0,.11-.384l.1-.517c0-.241-.033-.36-.1-.36a1.034,1.034,0,0,1-.239.155c-.075.033-.145.22-.213.565a.546.546,0,0,0-.444.447,1,1,0,0,1-.319.571l-.093.187a.609.609,0,0,1-.245.359,1.754,1.754,0,0,0-.414.644c-.433.72-.668,1.108-.71,1.158l-.131.189-.192-.034c.034.17.051.264.051.283a.278.278,0,0,1-.077.182.521.521,0,0,0-.117.211,1.119,1.119,0,0,1-.158.29,1.7,1.7,0,0,0-.212.532,1.059,1.059,0,0,1-.174.431l-.18-.032a.337.337,0,0,0-.168.252l.039.219a.247.247,0,0,1-.072.148.981.981,0,0,0-.136.336,4.33,4.33,0,0,1-.325.761,5.289,5.289,0,0,0-.406,1.082,1.96,1.96,0,0,1-.291.725.087.087,0,0,0,.076.034C244.512,36.626,244.622,36.486,244.726,36.2Z" transform="translate(-153.113 -16.595)"/>
        <path id="Path_289" data-name="Path 289" class="cls-1" d="M256.3,45.445l.208-.22h.078c.061,0,.152-.078.273-.235l.128-.062a1.214,1.214,0,0,1,.454-.549l.2-.188a.492.492,0,0,1,.15-.111,1.238,1.238,0,0,0,.313-.3c.139-.173.256-.258.343-.258a.513.513,0,0,1,.205.034.934.934,0,0,1,.31-.37,1.436,1.436,0,0,0,.377-.431l.17-.094a1.494,1.494,0,0,0,.367-.322.516.516,0,0,1,.42-.2,1.11,1.11,0,0,1,.783.462,1.389,1.389,0,0,1,.406.885l-.222,1.221c-.146.9-.307,1.369-.488,1.413l-.052.327c-.119.1-.181.188-.181.25l.078.375a.45.45,0,0,1-.144.234c-.013,0-.026.034-.026.1v.641a.328.328,0,0,1-.181.283.262.262,0,0,0,.08.059.476.476,0,0,1,.349-.092l.2.033.286-.346a1.065,1.065,0,0,0,.252-.15,4.522,4.522,0,0,1,.548-.306l1.692-1.565c.232-.279.41-.423.532-.423s.191.1.191.3a1.305,1.305,0,0,1-.11.573,3.509,3.509,0,0,0-.2.547,1.065,1.065,0,0,1-.211.447,1.084,1.084,0,0,0-.2.275,1.762,1.762,0,0,1-.422.43,4.213,4.213,0,0,0-.579.572,2.814,2.814,0,0,1-.395.412l-.556.488-.077.155a1.062,1.062,0,0,1-.24.136,1.5,1.5,0,0,0-.382.257l-.232.158a.467.467,0,0,1-.252.077.437.437,0,0,0-.3.181c-.086.108-.157.163-.21.163l-.191-.03-.26.094a.866.866,0,0,1-.536-.321.974.974,0,0,1-.316-.684V49.67l.026-.217a1.687,1.687,0,0,0-.079-.321,2.39,2.39,0,0,1-.077-.29l.026-.219-.026-.1A1.556,1.556,0,0,1,258.66,48a1.157,1.157,0,0,0,.076-.305,3.122,3.122,0,0,1,.053-.321l.062-.39a.5.5,0,0,1,.13-.252c.017-.083.053-.226.1-.421l.05-.282.134-.222a.609.609,0,0,0,.12-.336,1.224,1.224,0,0,1,.136-.445,1.191,1.191,0,0,0,.116-.283c0-.124-.053-.187-.155-.187-.037,0-.142.081-.326.249l-.231-.094c-.017,0-.066.054-.142.158,0,.042-.039.073-.116.094s-.152.1-.22.236l-.105.03-.168-.1h-.051c-.086,0-.138.118-.156.345a.683.683,0,0,1-.375.328l-.285.1a.412.412,0,0,0-.206.282.9.9,0,0,1-.259.4c-.13.119-.216.177-.258.177-.243,0-.363-.16-.363-.482l.1-.737Zm5.589-7.832L261.813,37v-.1c0-.488.138-.761.413-.815a4.275,4.275,0,0,0,.543-.2c.156.043.317.2.487.495a1.57,1.57,0,0,1,.253.758.672.672,0,0,1-.04.14,1.691,1.691,0,0,0-.051.414.783.783,0,0,1-.251.535.739.739,0,0,1-.512.226c-.12,0-.274-.1-.46-.305A1.022,1.022,0,0,1,261.892,37.613Z" transform="translate(-161.632 -23.393)"/>
        <path id="Path_290" data-name="Path 290" class="cls-1" d="M269.5,48.5l.13-.346.078-.391c0-.041.043-.1.123-.187a.336.336,0,0,0,.124-.222,7.1,7.1,0,0,1,.634-1.985l.309-.942a.934.934,0,0,1,.237-.5.525.525,0,0,0,.19-.327c0-.064-.088-.156-.264-.276s-.264-.232-.264-.339.282-.307.851-.609a1.5,1.5,0,0,1,.389-.924.3.3,0,0,0,.09-.219,1.265,1.265,0,0,1,.13-.613l.1-.358a1.305,1.305,0,0,1,.214-.415.8.8,0,0,0,.163-.448v-.125c-.115-.009-.273.166-.48.534q-.324,0-.532.581a.609.609,0,0,1-.478.42.927.927,0,0,1-.555.515c-.183-.134-.274-.248-.274-.342l.115-.97c0-.22.438-.771,1.323-1.645.048,0,.218-.2.5-.595l.715-.972c.386-.471.679-.815.876-1.033a4.206,4.206,0,0,0,.558-1.41,2.686,2.686,0,0,0,.445-1.167,8.39,8.39,0,0,1,.35-1.283,2.871,2.871,0,0,0,.188-.588,16.342,16.342,0,0,1,.763-2.38l.128-.52.2-.185a3.408,3.408,0,0,0,.051-.487c.095-.04.194-.272.295-.689a3.2,3.2,0,0,1,.311-.859,1.414,1.414,0,0,0,.209-.494,1.006,1.006,0,0,1,.315-.517.776.776,0,0,1,.536-.259q.092,0,.3.318a1.667,1.667,0,0,1,.261.741c.03.272.053.461.071.561a2.7,2.7,0,0,1,.024.4l.026.451c0,.085-.035.353-.1.8s-.116.77-.149.964a.456.456,0,0,1-.264.384c-.146.063-.22.125-.22.189a.161.161,0,0,0,.1.147c.068.037.1.065.1.087a2.009,2.009,0,0,1-.148.413,1.113,1.113,0,0,1-.28.448,1.091,1.091,0,0,1,.077.218,2.172,2.172,0,0,1-.187.495,2.908,2.908,0,0,1-.3.554,1.792,1.792,0,0,0-.237.643,1.421,1.421,0,0,1-.592.845,1.952,1.952,0,0,0-.319.72.92.92,0,0,1-.4.627l-.167.3V35.3a1.207,1.207,0,0,1-.132.515c-.083.19-.171.413-.256.666a1.556,1.556,0,0,1-.247.512,2.454,2.454,0,0,1-.181.649,1.787,1.787,0,0,0-.155.507l-.09.127a.272.272,0,0,0-.257.295l.052.345c0,.012-.081.184-.237.519l-.049.314a.8.8,0,0,1-.248.523.839.839,0,0,0-.231.588l-.052.376a.245.245,0,0,0,.028.092c.016,0,.066-.056.155-.171a.93.93,0,0,0,.209.08c.049,0,.1-.044.145-.134a.43.43,0,0,1,.229-.2l.051-.032c.04-.144.106-.223.192-.233a.306.306,0,0,0,.219-.15q.091-.131.143-.13a.676.676,0,0,1,.181.124h.029l.112-.062-.026-.252a.193.193,0,0,1,.119-.2.311.311,0,0,0,.165-.157l.48-.376a1.43,1.43,0,0,0,.46-.337.883.883,0,0,1,.322-.258.758.758,0,0,0,.273-.2.64.64,0,0,1,.431-.148,4.254,4.254,0,0,1,.582-.535l.1-.17a.223.223,0,0,1,.1-.061.672.672,0,0,0,.2-.19c.081-.1.155-.156.226-.156.171,0,.257.1.257.313a1.024,1.024,0,0,1-.386.832l-.028.044c-.04.419-.152.627-.323.627-.034,0-.093.091-.181.268a1,1,0,0,0-.165-.032,1.534,1.534,0,0,1-.258.343h-.078a7.456,7.456,0,0,0-1.665,1.458.6.6,0,0,1-.13.124l-.246-.033a1.7,1.7,0,0,1-.154.317,1.361,1.361,0,0,0-.426.3,2.2,2.2,0,0,1-.344.282.563.563,0,0,0-.2.209.516.516,0,0,1-.247.213l-.167.189h-.08a.409.409,0,0,0-.253.155.462.462,0,0,0-.147.3.642.642,0,0,0,.117.252c.068-.064.311.254.723.947a3.9,3.9,0,0,1,.62,2,1.6,1.6,0,0,1-.174.917.644.644,0,0,0-.174.3c0,.043.013.159.039.359v.063a.172.172,0,0,1-.15.188.2.2,0,0,0-.176.129v.39l-.05.187a1.475,1.475,0,0,0-.348.738,1.966,1.966,0,0,1-.558.548l-.024.061.024.423a.31.31,0,0,1-.113.249,1.807,1.807,0,0,0-.321.4,1.331,1.331,0,0,1-.4.43.719.719,0,0,1-.2.424,1.546,1.546,0,0,0-.307.36l-.079.062q-.113.032-.218.344l-.1.032a1.93,1.93,0,0,1-.357.541,1.39,1.39,0,0,0-.253.3l-.205.155a2.1,2.1,0,0,1-.478.642c-.018,0-.051-.028-.1-.093h-.038c-.038,0-.069.043-.091.125a.615.615,0,0,1-.145.234,1.261,1.261,0,0,0-.2.314l-.055.062c-.11,0-.286.181-.529.547a1.031,1.031,0,0,0-.425.22c-.181.249-.307.376-.375.376a2.68,2.68,0,0,1-.286-.257,1.092,1.092,0,0,1-.272-.824.562.562,0,0,0-.153-.327c-.017-.117-.037-.284-.053-.5v-.141a1.214,1.214,0,0,1,.1-.438l.08-.334a.513.513,0,0,1,.075-.2,2.089,2.089,0,0,0,.148-.447c.065-.247.141-.489.226-.728l.025-.157c.1-.5.175-.747.233-.736a5.554,5.554,0,0,0,.159-.624c.05-.263.086-.477.11-.643a.645.645,0,0,1,.185-.407Zm2.68-3,.053.671a4.306,4.306,0,0,1-.213.6,5.435,5.435,0,0,0-.28.871c-.043.218-.136.327-.282.327h-.129a.273.273,0,0,0-.026.126l.026.348a5.159,5.159,0,0,1-.092.717,1.145,1.145,0,0,1-.258.658l-.078.11a3.975,3.975,0,0,1-.2.744c-.116.34-.212.605-.291.8a3.326,3.326,0,0,0-.181.72,1.343,1.343,0,0,1-.166.557c-.055.292-.1.534-.156.728s-.115.453-.2.777a.088.088,0,0,0,.08.059c.05,0,.115-.113.193-.344a.292.292,0,0,1,.174-.086c.081-.014.154-.125.214-.336l.026-.063a.284.284,0,0,0,.207-.179.307.307,0,0,1,.142-.18.591.591,0,0,0,.182-.156l.09-.033a.291.291,0,0,0,.089-.171.8.8,0,0,1,.092-.222h.181l.05-.028a1.345,1.345,0,0,1,.255-.651,1.019,1.019,0,0,0,.225-.352.894.894,0,0,1,.186-.313.776.776,0,0,0,.162-.407,2.236,2.236,0,0,0,.3-.518.868.868,0,0,1,.18-.312l.026-.11-.05-.19v-.061a1.97,1.97,0,0,1,.3-.627,3.034,3.034,0,0,0,.384-.837c.05-.224.1-.4.142-.542a2.726,2.726,0,0,0,.1-.458,1.14,1.14,0,0,1,.145-.423.837.837,0,0,0,.1-.448,2.935,2.935,0,0,0-.361-1.222.477.477,0,0,1-.051-.187.735.735,0,0,0-.253-.368c-.15-.14-.262-.214-.33-.214l-.1.063a.529.529,0,0,1-.163.094c-.091.041-.135.142-.135.3v.063l.026.345C272.519,45.224,272.406,45.343,272.182,45.493Z" transform="translate(-168.599 -16.83)"/>
        <path id="Path_291" data-name="Path 291" class="cls-1" d="M297.264,57.832l-.606.639a.142.142,0,0,0-.1-.06c-.086,0-.193.092-.317.283s-.215.281-.266.281l-.129-.031a1.766,1.766,0,0,1-.466.345,1.525,1.525,0,0,0-.344.172.862.862,0,0,1-.361.141.383.383,0,0,0-.269.132c-.067.079-.235.118-.5.118l-.205-.033a.65.65,0,0,1-.224.094.315.315,0,0,1-.218-.132.378.378,0,0,0-.251-.149c-.092-.011-.182-.084-.279-.223a1.151,1.151,0,0,0-.265-.281.591.591,0,0,1-.2-.218l-.183-.188a1.877,1.877,0,0,1-.429-.69,2.286,2.286,0,0,1-.2-.779V57.19l.026-.3-.026-.345a1.109,1.109,0,0,0,.128-.266v-.5l.313-1.252c.017-.05-.018-.119-.1-.2a.559.559,0,0,1-.26.281.3.3,0,0,0-.175.222c-.032.113-.078.171-.148.171l-.158-.064a1.774,1.774,0,0,0-.116.323c-.062.192-.163.291-.315.291s-.232-.075-.232-.222l.024-.281-.073-.393a1.367,1.367,0,0,1,.2-.494c.139-.243.268-.386.383-.421a.533.533,0,0,0,.3-.3,2.1,2.1,0,0,1,.538-.588.7.7,0,0,0,.4-.407,1.329,1.329,0,0,1,.469-.282.9.9,0,0,0,.441-.318,3.42,3.42,0,0,1,.881-.66,2.472,2.472,0,0,1,1.069-.447.862.862,0,0,0,.285-.069c.124-.048.232-.087.336-.127a1.316,1.316,0,0,0,.325-.173.548.548,0,0,1,.274-.117l.377.159a2.576,2.576,0,0,1,.5.2,1.235,1.235,0,0,0,.265.135,2.52,2.52,0,0,1,.491.272.723.723,0,0,1,.253.641,3.892,3.892,0,0,0-.221.423c0,.043.1.105.3.187.068.159.173.362.312.615l.141.547.025,1.286-.025.124c-.1.1-.141.171-.141.2l.039.31-.106.441a.373.373,0,0,1-.13.265.306.306,0,0,0-.114.158l-.078.125a2.509,2.509,0,0,0-.111.275,1.2,1.2,0,0,1-.186.353.566.566,0,0,0-.13.3.374.374,0,0,1-.128.249.5.5,0,0,0-.15.165A.375.375,0,0,1,297.264,57.832Zm-4.016.408.05.358.029.031h.2l.067.033a1.878,1.878,0,0,0,.386.061.858.858,0,0,0,.639-.242c.161-.161.286-.241.38-.241s.175-.079.24-.236.1-.236.121-.236h.18l.052-.029a.556.556,0,0,1,.264-.519.884.884,0,0,0,.376-.415,1.083,1.083,0,0,1,.249-.391.684.684,0,0,0,.2-.354l.1-.187a.382.382,0,0,0,.054-.234l.242-.564a3.239,3.239,0,0,0,.08-.612.6.6,0,0,0-.277-.516.834.834,0,0,1-.275-.737.935.935,0,0,1,.3-.666c.2-.2.3-.326.3-.368,0-.062-.024-.094-.075-.094a1.434,1.434,0,0,0-.3.126c-.059.148-.366.34-.917.579a2.044,2.044,0,0,0-.3-.156c-.05,0-.1.062-.154.19a.868.868,0,0,1-.157.264h-.167c-.018,0-.074.067-.166.2a.425.425,0,0,1-.363.206l-.154.189a.7.7,0,0,1-.26.516l-.142.2c-.086.126-.2.274-.336.442l-.23.706a2.064,2.064,0,0,0-.143.608.487.487,0,0,1-.172.2.305.305,0,0,0-.138.257.5.5,0,0,0,.089.156.387.387,0,0,1,.093.188l-.054.2-.052.583Z" transform="translate(-182.082 -31.99)"/>
        <path id="Path_292" data-name="Path 292" class="cls-1" d="M313.279,51.212l.193-.063.081-.2a3.487,3.487,0,0,0,.9-.862.326.326,0,0,1,.117-.124.752.752,0,0,0,.194-.222,1.441,1.441,0,0,1,1.139-.577c.519,0,.791.379.829,1.142l.075.236a6.348,6.348,0,0,1,.291.893,4.608,4.608,0,0,1,.19.83,1.812,1.812,0,0,1-.222.846,5.961,5.961,0,0,0-.866,1.174l-.128.112a3.279,3.279,0,0,1-.271.561c-.173.075-.26.154-.26.236v.281a.366.366,0,0,1-.06.127,2.794,2.794,0,0,0-.159.36l-.106.19a.748.748,0,0,0-.1.256,1.311,1.311,0,0,1-.152.352.57.57,0,0,0-.1.254c0,.154.17.234.5.234a.925.925,0,0,0,.193-.1l.179.062c.019,0,.062-.032.132-.1a.723.723,0,0,1,.315-.161,1.155,1.155,0,0,0,.375-.191,1.847,1.847,0,0,1,.388-.218,1.329,1.329,0,0,0,.433-.306,1.467,1.467,0,0,1,.41-.305,1.181,1.181,0,0,0,.374-.291,3.108,3.108,0,0,1,.394-.367,5.8,5.8,0,0,0,.7-.75,1.378,1.378,0,0,1,.428-.329,2.08,2.08,0,0,0,.227-.415c.131-.278.286-.417.457-.417s.271.108.271.314a.508.508,0,0,1-.128.329v.093l.026.251a.325.325,0,0,1,.024.141.374.374,0,0,1-.1.188.744.744,0,0,0-.135.32.333.333,0,0,1-.245.258c-.054.23-.12.362-.2.391a1.1,1.1,0,0,0-.342.315,6.031,6.031,0,0,1-.622.625,4.741,4.741,0,0,0-.547.559c-.1.129-.167.2-.2.2s-.054-.021-.108-.064a.256.256,0,0,0-.1-.062c-.053,0-.088.073-.105.22l-.051.158a.774.774,0,0,1-.2.122l-.077-.031h-.054c-.1,0-.152.049-.152.14l.077.158v.033c0,.144-.069.22-.208.22a2.652,2.652,0,0,0-.828.579l-.375.094-.31.2a.582.582,0,0,0-.194-.11l-.207.08-.376.03c-.007,0-.165-.1-.472-.311a1.283,1.283,0,0,1-.549-.628,4.921,4.921,0,0,0-.233-.634,1.369,1.369,0,0,1-.144-.444,3.89,3.89,0,0,1,.1-1.077,4.015,4.015,0,0,0,.13-.476.831.831,0,0,1,.15-.336,1.669,1.669,0,0,0,.2-.588,8.73,8.73,0,0,1,.517-1.112,1.536,1.536,0,0,0,.223-.5l.167-.282a.907.907,0,0,0,.079-.243c.033-.14.076-.221.128-.24a1.006,1.006,0,0,0,.1-.284c0-.3-.112-.451-.338-.451-.042,0-.09.051-.141.163a.842.842,0,0,1-.359.32,1.533,1.533,0,0,0-.342.235.937.937,0,0,1-.277.2.99.99,0,0,0-.368.37l-.222.124c-.067.2-.129.309-.181.328s-.211.074-.478.159a.818.818,0,0,0-.13.186.328.328,0,0,1-.3.171,4.212,4.212,0,0,0-.311.442.875.875,0,0,0-.27.125l-.26.078a1.24,1.24,0,0,0-.226.3.5.5,0,0,1-.461.206c-.128,0-.193-.127-.193-.376a1.671,1.671,0,0,1,.447-1.222,1.585,1.585,0,0,1,.654-.486.293.293,0,0,0,.257-.187.475.475,0,0,1,.255-.26,1.566,1.566,0,0,0,.464-.455,1.362,1.362,0,0,1,.576-.478Z" transform="translate(-194.169 -31.337)"/>
        <path id="Path_293" data-name="Path 293" class="cls-1" d="M344.979,58.1h.053l.13.062a.067.067,0,0,0,.053-.034.589.589,0,0,1,.206-.452.7.7,0,0,1,.293-.452c.149-.105.389-.277.719-.519l.325-.344.153-.094.1-.158c.1-.137.185-.2.273-.2.129,0,.2.057.2.175l-.118.307.052.521a.816.816,0,0,1-.161.5c-.109.148-.275.36-.5.643l-.663.846-.349.218a1.128,1.128,0,0,0-.231.222l-.507.514a.412.412,0,0,1-.118.328h-.205l-.1.064a1.167,1.167,0,0,1-.53.583l-.184.155a.242.242,0,0,1-.167.094l-.363-.064-.244.064a.547.547,0,0,1-.279-.127,1.652,1.652,0,0,0-.354-.194c-.122-.047-.279-.242-.463-.579a2.791,2.791,0,0,1-.3-.667.705.705,0,0,0-.061-.213.8.8,0,0,1-.058-.179,2.007,2.007,0,0,1,.119-.312v-.031a.86.86,0,0,0-.074-.22,1.159,1.159,0,0,1-.07-.425,1.058,1.058,0,0,0-.079-.359.361.361,0,0,0,.1-.187.7.7,0,0,0-.038-.18.6.6,0,0,1-.037-.179l.075-.77-.049-.392.024-.375c0-.22-.077-.329-.233-.329-.066,0-.152.056-.255.173l-.09.032a2.817,2.817,0,0,0-.489.337.436.436,0,0,1-.3.132.661.661,0,0,1-.295.172l-.1.094a1.99,1.99,0,0,1-.209.187,3.093,3.093,0,0,1-.482.525c-.321.319-.612.619-.869.9a1.485,1.485,0,0,1-.563.462c-.114.029-.173.16-.173.4,0,.042-.076.125-.232.25a1.777,1.777,0,0,0-.27.346,1.077,1.077,0,0,0-.233-.19c-.111,0-.194.173-.244.517-.053.135-.191.218-.414.252a.685.685,0,0,0-.092.231l-.054.064h-.126c-.018,0-.081.06-.183.181a.815.815,0,0,1-.273.228c-.114.282-.207.423-.284.423a.3.3,0,0,1-.148-.064,1.3,1.3,0,0,0-.244-.11c-.1-.03-.2-.156-.313-.382a1.281,1.281,0,0,1-.175-.57c0-1.162.185-1.792.559-1.9l.023-.063V57.86a.31.31,0,0,1,.148-.289.928.928,0,0,0,.3-.343,1.26,1.26,0,0,1,.205-.29h.17c.035,0,.052-.11.052-.329a.266.266,0,0,1,.065-.174.418.418,0,0,0,.077-.226,1.509,1.509,0,0,1,.189-.486,1.676,1.676,0,0,0,.173-.4l-.025-.063a1.37,1.37,0,0,1-.463.393c-.1.019-.228.171-.391.451l-.207-.046a5.027,5.027,0,0,1-.673.551.8.8,0,0,0-.286.359.121.121,0,0,1-.089.124,1.512,1.512,0,0,0-.337.252h-.079c-.215,0-.324-.19-.324-.564l.272-.9a1.26,1.26,0,0,1,.548-.712,6.624,6.624,0,0,0,.733-.556.972.972,0,0,1,.593-.281l.087-.156a1.078,1.078,0,0,0,.6-.643c.107-.291.246-.439.427-.439a1.2,1.2,0,0,1,1.087.634,2.221,2.221,0,0,1,.373,1.011l.026.423a3.363,3.363,0,0,1-.077.609,1.017,1.017,0,0,0-.156.424.113.113,0,0,0,.13.126c.052,0,.122-.047.207-.134a1.652,1.652,0,0,1,.292-.242c.107-.074.17-.136.183-.19a.84.84,0,0,1,.454-.517,1.178,1.178,0,0,0,.4-.235l.128-.125.1-.234a1.411,1.411,0,0,0,.461-.345.522.522,0,0,1,.311-.2,1.088,1.088,0,0,0,.443-.283l.192-.062.182-.126a.391.391,0,0,1,.154-.079c.085-.031.214-.085.382-.164a1.052,1.052,0,0,1,.343-.12,1.167,1.167,0,0,1,1.04.645,2.195,2.195,0,0,1,.382,1.034l-.024.282.049.423v.061l-.1.863.025.3a1.518,1.518,0,0,1-.257,1.016c-.042.02-.064.073-.064.157v.138l.26.66c.077.23.139.346.18.346l.417-.144a.544.544,0,0,0,.3-.327,2.041,2.041,0,0,0,.362-.377C344.786,58.181,344.868,58.1,344.979,58.1Z" transform="translate(-207.917 -33.695)"/>
        <path id="Path_294" data-name="Path 294" class="cls-1" d="M368.042,45.445l.206-.22h.08c.06,0,.148-.078.272-.235l.129-.062a1.24,1.24,0,0,1,.452-.549l.207-.188a.511.511,0,0,1,.148-.111,1.233,1.233,0,0,0,.312-.3c.143-.173.257-.258.346-.258a.5.5,0,0,1,.2.034.954.954,0,0,1,.312-.37,1.454,1.454,0,0,0,.374-.431l.171-.094a1.473,1.473,0,0,0,.369-.322.517.517,0,0,1,.417-.2,1.115,1.115,0,0,1,.786.462,1.385,1.385,0,0,1,.406.885l-.222,1.221c-.144.9-.308,1.369-.489,1.413l-.051.327c-.122.1-.182.188-.182.25l.079.375a.441.441,0,0,1-.145.234c-.016,0-.024.034-.024.1v.641a.327.327,0,0,1-.182.283.236.236,0,0,0,.079.059.472.472,0,0,1,.347-.092l.207.033.286-.346a1.157,1.157,0,0,0,.25-.15,4.354,4.354,0,0,1,.55-.306l1.692-1.565c.233-.279.407-.423.529-.423s.193.1.193.3a1.318,1.318,0,0,1-.109.573,2.878,2.878,0,0,0-.2.547,1.1,1.1,0,0,1-.215.447,1.056,1.056,0,0,0-.2.275,1.824,1.824,0,0,1-.421.43,4.09,4.09,0,0,0-.582.572,2.866,2.866,0,0,1-.393.412l-.558.488-.076.155a1,1,0,0,1-.239.136,1.4,1.4,0,0,0-.378.257l-.238.158a.456.456,0,0,1-.25.077.435.435,0,0,0-.3.181c-.086.108-.156.163-.209.163l-.193-.03-.259.094a.864.864,0,0,1-.533-.321.961.961,0,0,1-.318-.684V49.67l.025-.217a1.771,1.771,0,0,0-.076-.321,2.257,2.257,0,0,1-.08-.29l.027-.219-.027-.1a1.717,1.717,0,0,1,.049-.532.977.977,0,0,0,.081-.305c.015-.13.035-.238.051-.321l.066-.39a.462.462,0,0,1,.128-.252c.018-.083.051-.226.1-.421l.055-.282L371,45.8a.6.6,0,0,0,.123-.336,1.317,1.317,0,0,1,.133-.445,1.117,1.117,0,0,0,.121-.283c0-.124-.056-.187-.156-.187-.036,0-.147.081-.327.249l-.233-.094c-.015,0-.063.054-.14.158,0,.042-.041.073-.114.094s-.152.1-.22.236l-.106.03-.167-.1h-.054c-.086,0-.137.118-.155.345a.68.68,0,0,1-.374.328l-.284.1a.416.416,0,0,0-.211.282.854.854,0,0,1-.257.4c-.129.119-.214.177-.256.177-.243,0-.364-.16-.364-.482l.106-.737Zm5.587-7.832L373.552,37v-.1c0-.488.136-.761.411-.815a4.055,4.055,0,0,0,.542-.2c.158.043.319.2.488.495a1.582,1.582,0,0,1,.252.758.6.6,0,0,1-.041.14,1.683,1.683,0,0,0-.05.414.771.771,0,0,1-.251.535.735.735,0,0,1-.511.226c-.123,0-.275-.1-.458-.305A.993.993,0,0,1,373.629,37.613Z" transform="translate(-228.673 -23.393)"/>
        <path id="Path_295" data-name="Path 295" class="cls-1" d="M394.98,55.959l.206-.219a.222.222,0,0,0,.232-.211.476.476,0,0,1,.278-.338,1.174,1.174,0,0,0,.444-.509c.135-.257.28-.385.425-.385.051,0,.113.053.18.159a.506.506,0,0,1,.106.249,2.505,2.505,0,0,1-.26,1.067l-.052.437-.093.2a.653.653,0,0,0-.251.266,1,1,0,0,1-.3.342l-.13.221a.628.628,0,0,0-.381.361c-.066.169-.156.262-.273.281a.709.709,0,0,0-.38.316,1.779,1.779,0,0,1-.312.138l-.024.16a.911.911,0,0,1-.407.247,1.978,1.978,0,0,0-.414.18.433.433,0,0,1-.189.084.9.9,0,0,1-.452-.116,1.234,1.234,0,0,0-.424-.148.369.369,0,0,1-.09-.2.845.845,0,0,0-.128-.291.866.866,0,0,1-.119-.492l.052-.3a.3.3,0,0,0-.067-.158.306.306,0,0,1-.062-.156.14.14,0,0,1,.027-.094.15.15,0,0,0,.026-.1.647.647,0,0,0-.026-.17.545.545,0,0,1-.027-.155l.077-.769c0-.062-.019-.093-.05-.093s-.1.051-.191.155a.4.4,0,0,1-.313.16.733.733,0,0,0-.171.391,1.5,1.5,0,0,1-.257.281l-.054.092a.282.282,0,0,1-.194.18.46.46,0,0,0-.232.182l-.129.155-.249-.028c-.013.019-.063.109-.141.272a1.239,1.239,0,0,1-.294.4l-.985.97c-.1.083-.255.188-.454.316l-.076.09a3.167,3.167,0,0,1-1.462.832,1.844,1.844,0,0,1-.812-.233c-.313-.157-.48-.345-.508-.565l-.128-.641a1.325,1.325,0,0,1-.116-.611.7.7,0,0,1,.027-.252v-.094l-.027-.517c0-.125.081-.187.244-.187l-.024-.424a2.257,2.257,0,0,1,.224-.494,2.076,2.076,0,0,1,.307-.49l.126-.2a.563.563,0,0,1,.181-.4,1.992,1.992,0,0,0,.311-.431,1.814,1.814,0,0,1,.44-.485l.39-.471a4,4,0,0,1,.984-.876,1.363,1.363,0,0,0,.317-.316,1.524,1.524,0,0,1,.543-.414,3.429,3.429,0,0,0,.593-.334.913.913,0,0,1,.463-.2h.1a4.89,4.89,0,0,0,.689-.395h.077a.752.752,0,0,1,.245.126h.026l.206-.126a.265.265,0,0,1,.129-.028c.537,0,.83.448.885,1.347.014.19.058.281.126.281.085,0,.21-.189.371-.57a.979.979,0,0,1,1.014-.574c.374,0,.555.289.555.864a2.981,2.981,0,0,1-.748,1.924,1.231,1.231,0,0,0-.077.283l-.182.642v.033a.521.521,0,0,1-.11.256.556.556,0,0,0-.109.289l.026.391-.051.441a.582.582,0,0,0,.091.391,1.029,1.029,0,0,0,.6-.414,1.043,1.043,0,0,1,.263-.322l.128-.062A1.566,1.566,0,0,1,394.98,55.959Zm-4.292,0a.706.706,0,0,1,.317-.523.738.738,0,0,0,.315-.371,7.5,7.5,0,0,0,.7-.782,2.142,2.142,0,0,0,.459-.689.044.044,0,0,0-.05-.048H392.4l-.1.08-.236-.032-.243.032-.182-.111-.169.031-.258-.061a.6.6,0,0,0-.356.1,2.277,2.277,0,0,1-.568.228,1.928,1.928,0,0,0-.756.429.968.968,0,0,1-.493.3,2.141,2.141,0,0,1-.608.671.7.7,0,0,0-.4.552,1.665,1.665,0,0,0-.335.373l-.092.268a.837.837,0,0,1-.259.18.366.366,0,0,0-.181.329,1.009,1.009,0,0,1-.173.47.632.632,0,0,0-.149.336c0,.512.081.77.244.77a1.33,1.33,0,0,0,.434-.167,1.779,1.779,0,0,0,.383-.227.511.511,0,0,1,.2-.127l.248-.157a.207.207,0,0,1,.113-.078.247.247,0,0,0,.133-.1.774.774,0,0,1,.233-.188.7.7,0,0,0,.258-.275c.143-.1.383-.267.712-.486l.27-.25a.931.931,0,0,0,.348-.264A.687.687,0,0,1,390.688,55.959Z" transform="translate(-239.085 -32.529)"/>
      </g>
      <g id="Group_192" data-name="Group 192" transform="translate(0 33.616)">
        <path id="Path_296" data-name="Path 296" class="cls-2" d="M115.169,88.512H18.964a.963.963,0,1,0,0,1.926h96.205a.963.963,0,0,0,0-1.926Z" transform="translate(-18 -88.512)"/>
        <path id="Path_297" data-name="Path 297" class="cls-2" d="M336.842,88.512h-48.4a.963.963,0,0,0,0,1.926h48.4a.963.963,0,0,0,0-1.926Z" transform="translate(-179.732 -88.512)"/>
      </g>
    </g>
    <path id="Path_298" data-name="Path 298" class="cls-1" d="M404.492,118.178a2.04,2.04,0,1,1,2.039,2.04A2.042,2.042,0,0,1,404.492,118.178Zm3.582,0a1.545,1.545,0,1,0-1.543,1.644A1.566,1.566,0,0,0,408.074,118.178Zm-2.327-1.164h.859c.553,0,.852.193.852.678a.577.577,0,0,1-.6.621l.622,1.011h-.441l-.6-.994h-.26v.994h-.429Zm.429.989h.378c.254,0,.474-.034.474-.345,0-.271-.248-.317-.469-.317h-.384Z" transform="translate(-231.784 -66.821)"/>
  </g>
</svg>
