<svg xmlns="http://www.w3.org/2000/svg" width="155.458" height="61.645" viewBox="0 0 155.458 61.645">
  <defs>
    <style>
      .cls-1 {
        fill: #55565a;
      }

      .cls-2 {
        fill: #f57f29;
      }

      .cls-3 {
        fill: #e0601f;
      }

      .cls-4 {
        fill: #fdb515;
      }

      .cls-5 {
        fill: #b3b2b1;
      }

      .cls-6 {
        fill: #8b8b8e;
      }

      .cls-7 {
        fill: #d2d0ce;
      }

      .cls-8 {
        fill: #e09e14;
      }

      .cls-9 {
        fill: #ffd600;
      }

      .cls-10 {
        fill: #f2b411;
      }
    </style>
  </defs>
  <g id="OptumCareMedicalGroup" transform="translate(-36 -36)">
    <g id="Group_125" data-name="Group 125" transform="translate(71.502 82.714)">
      <path id="Path_160" data-name="Path 160" class="cls-1" d="M144.668,180.527h1.664l3.966,9.549,3.981-9.549h1.54v10.855h-1.073V181.6h-.031l-3.95,9.782h-.918l-4.075-9.782h-.031v9.782h-1.073Z" transform="translate(-144.668 -179.718)"/>
      <path id="Path_161" data-name="Path 161" class="cls-1" d="M190.245,196.668a6.5,6.5,0,0,1-2.3.436c-2.628,0-3.608-1.773-3.608-4.152,0-2.426,1.338-4.152,3.344-4.152,2.24,0,3.157,1.8,3.157,3.934v.5h-5.428c0,1.68.9,3.033,2.613,3.033a5.1,5.1,0,0,0,2.224-.591Zm-.482-4.277c0-1.384-.56-2.753-2.022-2.753a2.593,2.593,0,0,0-2.333,2.753Z" transform="translate(-171.208 -185.253)"/>
      <path id="Path_162" data-name="Path 162" class="cls-1" d="M214.961,189.747h-.98v-1.26h-.031a2.542,2.542,0,0,1-2.473,1.446c-2.177,0-3.266-1.8-3.266-4.152,0-2.411.933-4.152,3.266-4.152a2.673,2.673,0,0,1,2.473,1.524h.031v-5.07h.98Zm-3.328-.653c1.742,0,2.349-1.866,2.349-3.313s-.607-3.312-2.349-3.312c-1.866,0-2.348,1.773-2.348,3.312S209.766,189.094,211.632,189.094Z" transform="translate(-187.183 -178.083)"/>
      <path id="Path_163" data-name="Path 163" class="cls-1" d="M236.733,180.329h-.98v-1.306h.98Zm-.98,2.115h.98v7.932h-.98Z" transform="translate(-205.611 -178.712)"/>
      <path id="Path_164" data-name="Path 164" class="cls-1" d="M250.154,190.043a4.5,4.5,0,0,0-1.695-.4c-1.913,0-2.986,1.384-2.986,3.313,0,1.8,1.089,3.313,2.877,3.313a5.084,5.084,0,0,0,1.789-.358l.093.918a5.876,5.876,0,0,1-2.037.28c-2.55,0-3.795-1.944-3.795-4.152a3.845,3.845,0,0,1,3.919-4.152,5.932,5.932,0,0,1,1.913.311Z" transform="translate(-211.397 -185.253)"/>
      <path id="Path_165" data-name="Path 165" class="cls-1" d="M270.383,195.642h-.031a2.791,2.791,0,0,1-2.519,1.462c-2.255,0-2.613-1.524-2.613-2.239,0-2.66,2.831-2.784,4.883-2.784h.187v-.4c0-1.353-.482-2.037-1.8-2.037a4.209,4.209,0,0,0-2.333.653v-.949a6.255,6.255,0,0,1,2.333-.544c1.96,0,2.784.887,2.784,2.955v3.5a11.272,11.272,0,0,0,.078,1.664h-.964Zm-.093-2.722h-.28c-1.695,0-3.717.171-3.717,1.913,0,1.042.747,1.431,1.649,1.431,2.3,0,2.349-2.006,2.349-2.861Z" transform="translate(-225.327 -185.253)"/>
      <path id="Path_166" data-name="Path 166" class="cls-1" d="M290.553,178.083h.98v11.664h-.98Z" transform="translate(-242.277 -178.083)"/>
      <path id="Path_167" data-name="Path 167" class="cls-1" d="M321.123,186.06H318.6v-.933H322.2v5.4a8.125,8.125,0,0,1-3.375.669c-3.421,0-5.474-2.255-5.474-5.614a5.237,5.237,0,0,1,5.474-5.614,7.647,7.647,0,0,1,2.908.513l-.124,1a5.718,5.718,0,0,0-2.784-.575c-2.815,0-4.4,1.991-4.4,4.681,0,2.737,1.54,4.681,4.4,4.681a5.518,5.518,0,0,0,2.3-.389Z" transform="translate(-257.528 -179.341)"/>
      <path id="Path_168" data-name="Path 168" class="cls-1" d="M347.859,190.758a14.266,14.266,0,0,0-.062-1.773h.98v1.524h.031a2.352,2.352,0,0,1,2.037-1.711,2.894,2.894,0,0,1,.684.093v1.027a2.559,2.559,0,0,0-.715-.094c-1.555,0-1.975,1.742-1.975,3.173v3.919h-.98Z" transform="translate(-280.578 -185.253)"/>
      <path id="Path_169" data-name="Path 169" class="cls-1" d="M364.659,188.8c2.566,0,3.7,1.99,3.7,4.152s-1.135,4.152-3.7,4.152-3.7-1.991-3.7-4.152S362.093,188.8,364.659,188.8Zm0,7.465c1.711,0,2.628-1.477,2.628-3.312s-.917-3.312-2.628-3.312-2.629,1.477-2.629,3.313S362.948,196.264,364.659,196.264Z" transform="translate(-289.383 -185.253)"/>
      <path id="Path_170" data-name="Path 170" class="cls-1" d="M395.112,195.427c0,.607,0,1.229.062,1.866h-.949v-1.415h-.031a2.515,2.515,0,0,1-2.566,1.6c-1.96,0-2.706-1.306-2.706-3.048v-5.07h.98v4.822c0,1.493.529,2.457,1.882,2.457,1.788,0,2.349-1.571,2.349-2.893v-4.386h.98Z" transform="translate(-308.094 -185.63)"/>
      <path id="Path_171" data-name="Path 171" class="cls-1" d="M414.772,188.985h.98l-.062,1.446h.031a2.741,2.741,0,0,1,2.535-1.633c2.333,0,3.266,1.742,3.266,4.152,0,2.348-1.088,4.152-3.266,4.152a2.458,2.458,0,0,1-2.473-1.54h-.031v4.619h-.98Zm3.328.654c-1.742,0-2.349,1.866-2.349,3.313s.607,3.313,2.349,3.313c1.866,0,2.348-1.773,2.348-3.312S419.966,189.639,418.1,189.639Z" transform="translate(-325.389 -185.253)"/>
    </g>
    <g id="Group_157" data-name="Group 157" transform="translate(36 36)">
      <g id="Group_134" data-name="Group 134" transform="translate(0 0)">
        <g id="Group_126" data-name="Group 126" transform="translate(21.035 22.867)">
          <path id="Path_172" data-name="Path 172" class="cls-2" d="M101.191,105.1c-.552,2.136-1.1,4.342-1.627,6.59,2.383,1.538,4.719,3.056,7.045,4.357C104.829,112.67,103.04,108.95,101.191,105.1Z" transform="translate(-99.564 -105.1)"/>
          <path id="Path_173" data-name="Path 173" class="cls-3" d="M104.481,105.1c2.13,1.52,4.211,3.06,6.262,4.484-.278,2.082-.561,4.241-.844,6.463C108.118,112.67,106.33,108.95,104.481,105.1Z" transform="translate(-102.854 -105.1)"/>
        </g>
        <g id="Group_127" data-name="Group 127" transform="translate(13.785 18.497)">
          <path id="Path_174" data-name="Path 174" class="cls-3" d="M86.534,105.1c-.552,2.136-1.1,4.342-1.627,6.59-2.38-1.537-4.809-3.1-7.249-4.486A54.468,54.468,0,0,1,86.534,105.1Z" transform="translate(-77.657 -100.731)"/>
          <path id="Path_175" data-name="Path 175" class="cls-4" d="M86.534,96.265c-2.129-1.52-4.307-3.021-6.509-4.369-.81,2.128-1.6,4.3-2.368,6.473A54.468,54.468,0,0,1,86.534,96.265Z" transform="translate(-77.657 -91.896)"/>
        </g>
        <g id="Group_128" data-name="Group 128" transform="translate(23.994 14.113)">
          <path id="Path_176" data-name="Path 176" class="cls-2" d="M109.6,78.648q-.544,1.832-1.092,3.793c1.91,1.533,3.767,3.107,5.58,4.62C112.614,84.419,111.13,81.577,109.6,78.648Z" transform="translate(-108.507 -78.648)"/>
          <path id="Path_177" data-name="Path 177" class="cls-3" d="M111.808,78.648c1.719,1.55,3.381,3.148,4.99,4.723q-.244,1.786-.5,3.69C114.823,84.419,113.338,81.577,111.808,78.648Z" transform="translate(-110.716 -78.648)"/>
        </g>
        <g id="Group_129" data-name="Group 129" transform="translate(22.662 17.906)">
          <path id="Path_178" data-name="Path 178" class="cls-4" d="M104.481,95.071c.44-1.7.886-3.36,1.332-4.96,1.91,1.533,3.767,3.107,5.58,4.62A34.8,34.8,0,0,0,104.481,95.071Z" transform="translate(-104.481 -90.111)"/>
          <path id="Path_179" data-name="Path 179" class="cls-2" d="M104.481,104.314c2.13,1.52,4.211,3.06,6.262,4.484q.332-2.487.65-4.824A34.8,34.8,0,0,0,104.481,104.314Z" transform="translate(-104.481 -99.354)"/>
        </g>
        <path id="Path_180" data-name="Path 180" class="cls-5" d="M111.808,72.693q.452-1.522.9-2.945c1.55,1.561,3.043,3.173,4.48,4.781A23.747,23.747,0,0,0,111.808,72.693Z" transform="translate(-86.722 -58.58)"/>
        <path id="Path_181" data-name="Path 181" class="cls-6" d="M111.808,78.648c1.719,1.55,3.381,3.148,4.99,4.723q.2-1.487.39-2.887A23.747,23.747,0,0,0,111.808,78.648Z" transform="translate(-86.722 -64.535)"/>
        <path id="Path_182" data-name="Path 182" class="cls-6" d="M103.9,63.657q.452-1.522.9-2.945c-1.55-1.561-3.158-3.068-4.809-4.469C101.332,58.73,102.634,61.223,103.9,63.657Z" transform="translate(-78.818 -49.544)"/>
        <path id="Path_183" data-name="Path 183" class="cls-7" d="M101.085,63.657c-1.716-1.549-3.49-3.051-5.3-4.432.462-1.028.929-2.025,1.395-2.983C98.513,58.73,99.815,61.223,101.085,63.657Z" transform="translate(-75.998 -49.544)"/>
        <g id="Group_130" data-name="Group 130" transform="translate(6.549 15.033)">
          <path id="Path_184" data-name="Path 184" class="cls-3" d="M58.8,81.429c-1.034,2.157-2.032,4.33-3.011,6.458a50.094,50.094,0,0,1,7.236,3.479C61.632,87.96,60.215,84.621,58.8,81.429Z" transform="translate(-55.79 -81.429)"/>
          <path id="Path_185" data-name="Path 185" class="cls-2" d="M64.89,81.429a50.26,50.26,0,0,1,6.593,3.464c-.81,2.128-1.6,4.3-2.368,6.473C67.721,87.96,66.3,84.621,64.89,81.429Z" transform="translate(-61.879 -81.429)"/>
        </g>
        <g id="Group_131" data-name="Group 131" transform="translate(0 13.236)">
          <path id="Path_186" data-name="Path 186" class="cls-8" d="M45.56,81.429c-1.034,2.157-2.032,4.33-3.011,6.458A19.349,19.349,0,0,0,36,86.5,30.249,30.249,0,0,1,45.56,81.429Z" transform="translate(-36 -79.632)"/>
          <path id="Path_187" data-name="Path 187" class="cls-9" d="M45.56,77.8A23.78,23.78,0,0,0,39.328,76c-1.157,2.321-2.256,4.637-3.328,6.87A30.249,30.249,0,0,1,45.56,77.8Z" transform="translate(-36 -75.998)"/>
        </g>
        <g id="Group_132" data-name="Group 132" transform="translate(6.209 3.389)">
          <path id="Path_188" data-name="Path 188" class="cls-9" d="M62.814,54.036c-.735,1.285-1.458,2.616-2.165,3.974a28.264,28.264,0,0,0-5.886-2.218A22.949,22.949,0,0,1,62.814,54.036Z" transform="translate(-54.763 -51.456)"/>
          <path id="Path_189" data-name="Path 189" class="cls-10" d="M62.814,48.82A32.443,32.443,0,0,0,57.3,46.24c-.873,1.4-1.717,2.857-2.534,4.335A22.949,22.949,0,0,1,62.814,48.82Z" transform="translate(-54.763 -46.24)"/>
        </g>
        <g id="Group_133" data-name="Group 133" transform="translate(3.328 7.724)">
          <path id="Path_190" data-name="Path 190" class="cls-10" d="M58.114,66.65c.823-1.718,1.667-3.426,2.535-5.091a28.265,28.265,0,0,0-5.886-2.218C55.864,61.657,56.988,64.107,58.114,66.65Z" transform="translate(-51.882 -59.341)"/>
          <path id="Path_191" data-name="Path 191" class="cls-8" d="M52.289,66.65a23.78,23.78,0,0,0-6.232-1.8c.922-1.848,1.88-3.7,2.881-5.512C50.039,61.657,51.163,64.107,52.289,66.65Z" transform="translate(-46.057 -59.341)"/>
        </g>
        <path id="Path_192" data-name="Path 192" class="cls-6" d="M79.093,47.769c.611-1.068,1.231-2.1,1.857-3.1A53.8,53.8,0,0,1,86.01,48.5,24.566,24.566,0,0,0,79.093,47.769Z" transform="translate(-64.833 -41.801)"/>
        <path id="Path_193" data-name="Path 193" class="cls-5" d="M79.093,54a52.561,52.561,0,0,1,5.522,3.713c.462-1.028.929-2.025,1.394-2.983A24.566,24.566,0,0,0,79.093,54Z" transform="translate(-64.833 -48.033)"/>
        <path id="Path_194" data-name="Path 194" class="cls-10" d="M72.443,41.968c.611-1.068,1.231-2.1,1.857-3.1A36.122,36.122,0,0,0,69.154,36C70.256,37.919,71.355,39.92,72.443,41.968Z" transform="translate(-58.183 -36)"/>
        <path id="Path_195" data-name="Path 195" class="cls-8" d="M67.938,41.968a32.444,32.444,0,0,0-5.517-2.58c.724-1.167,1.468-2.3,2.228-3.389C65.751,37.919,66.85,39.92,67.938,41.968Z" transform="translate(-53.678 -36)"/>
      </g>
      <g id="Group_156" data-name="Group 156" transform="translate(34.275 20.133)">
        <g id="Group_155" data-name="Group 155">
          <g id="Group_151" data-name="Group 151" transform="translate(0 0.189)">
            <g id="Group_150" data-name="Group 150">
              <g id="Group_149" data-name="Group 149">
                <g id="Group_148" data-name="Group 148">
                  <g id="Group_147" data-name="Group 147">
                    <g id="Group_146" data-name="Group 146">
                      <g id="Group_145" data-name="Group 145">
                        <g id="Group_136" data-name="Group 136">
                          <g id="Group_135" data-name="Group 135">
                            <path id="Path_196" data-name="Path 196" class="cls-1" d="M149.661,112.828a7.709,7.709,0,1,1,7.815-7.73A7.571,7.571,0,0,1,149.661,112.828Zm0-13.011a5.042,5.042,0,0,0-5.026,5.281,5.113,5.113,0,0,0,5.068,5.324,5.042,5.042,0,0,0,5.026-5.281A5.113,5.113,0,0,0,149.661,99.817Z" transform="translate(-141.888 -97.411)"/>
                          </g>
                        </g>
                        <g id="Group_138" data-name="Group 138" transform="translate(18.016 0.255)">
                          <g id="Group_137" data-name="Group 137">
                            <path id="Path_197" data-name="Path 197" class="cls-1" d="M201.909,108.3h-2.96v4.792H196.33V98.182h5.877c3.471,0,5.665,1.959,5.665,5C207.872,106.551,205.189,108.3,201.909,108.3Zm.085-7.73h-3.045v5.366h3.045c1.981,0,3.216-1.086,3.216-2.683C205.21,101.483,203.954,100.567,201.995,100.567Z" transform="translate(-196.33 -98.182)"/>
                          </g>
                        </g>
                        <g id="Group_140" data-name="Group 140" transform="translate(30.751 0.255)">
                          <g id="Group_139" data-name="Group 139">
                            <path id="Path_198" data-name="Path 198" class="cls-1" d="M242.182,113.089h-2.641V100.61h-4.728V98.182h12.1v2.428h-4.727Z" transform="translate(-234.814 -98.182)"/>
                          </g>
                        </g>
                        <g id="Group_142" data-name="Group 142" transform="translate(45.169 0.255)">
                          <g id="Group_141" data-name="Group 141">
                            <path id="Path_199" data-name="Path 199" class="cls-1" d="M291.138,106.636c0,4.451-2.513,6.687-6.41,6.687-3.876,0-6.346-2.236-6.346-6.559V98.182H281v8.476c0,2.768,1.427,4.259,3.77,4.259,2.321,0,3.748-1.405,3.748-4.153V98.182h2.619Z" transform="translate(-278.383 -98.182)"/>
                          </g>
                        </g>
                        <g id="Group_144" data-name="Group 144" transform="translate(60.778 0.255)">
                          <g id="Group_143" data-name="Group 143">
                            <path id="Path_200" data-name="Path 200" class="cls-1" d="M332.878,109.426h-.085l-4.664-6.985v10.648h-2.577V98.182h2.79l4.536,7.049,4.536-7.049h2.79v14.907h-2.619V102.4Z" transform="translate(-325.552 -98.182)"/>
                          </g>
                        </g>
                      </g>
                    </g>
                  </g>
                </g>
              </g>
            </g>
          </g>
          <g id="Group_154" data-name="Group 154" transform="translate(80.511 0.429)">
            <g id="Group_153" data-name="Group 153">
              <g id="Group_152" data-name="Group 152">
                <path id="Path_201" data-name="Path 201" class="cls-1" d="M414.329,107.035c0-1.784,1.211-3.759,3.186-3.759,2,0,2.761,1.869,2.761,3.759Zm6.605,4.481a6.961,6.961,0,0,1-3.037.807c-2.336,0-3.568-1.848-3.568-4.141h7.412v-.68c0-2.909-1.253-5.373-4.312-5.373-2.74,0-4.567,2.357-4.567,5.671,0,3.25,1.338,5.671,4.928,5.671a8.877,8.877,0,0,0,3.143-.595Zm-12.841,1.7h1.338v-5.353c0-1.954.573-4.332,2.7-4.332a3.507,3.507,0,0,1,.977.127v-1.4a3.97,3.97,0,0,0-.934-.127,3.213,3.213,0,0,0-2.783,2.336h-.042v-2.081h-1.339a19.3,19.3,0,0,1,.086,2.421Zm-3.962-4.8c0,1.168-.064,3.908-3.207,3.908-1.232,0-2.251-.531-2.251-1.954,0-2.379,2.761-2.613,5.076-2.613h.382Zm.128,4.8h1.317a15.394,15.394,0,0,1-.106-2.272v-4.779c0-2.825-1.125-4.035-3.8-4.035a8.542,8.542,0,0,0-3.186.743v1.3a5.753,5.753,0,0,1,3.186-.892c1.8,0,2.463.935,2.463,2.782v.552h-.255c-2.8,0-6.669.17-6.669,3.8,0,.977.488,3.058,3.568,3.058a3.811,3.811,0,0,0,3.441-2h.043Zm-8.2-14.528a9.587,9.587,0,0,0-3.4-.552c-4.588,0-7.476,3.164-7.476,7.667,0,4.588,2.8,7.667,7.476,7.667a8.007,8.007,0,0,0,3.4-.637l-.085-1.275a7.333,7.333,0,0,1-3.314.637c-3.908,0-6.01-2.655-6.01-6.393,0-3.674,2.167-6.393,6.01-6.393a7.687,7.687,0,0,1,3.314.637Z" transform="translate(-385.184 -98.136)"/>
              </g>
            </g>
          </g>
          <path id="Path_202" data-name="Path 202" class="cls-1" d="M494.461,99.12v-.013a2.255,2.255,0,1,1,4.509-.013v.013a2.255,2.255,0,1,1-4.509.013Zm4.25-.013v-.013a2,2,0,1,0-3.991.013v.013a2,2,0,1,0,3.991-.013Zm-2.838-1.179h1.011c.466,0,.842.246.842.7a.7.7,0,0,1-.558.687l.635.881h-.454l-.57-.829h-.544v.829h-.363Zm.972,1.14c.324,0,.505-.168.505-.415,0-.272-.194-.4-.505-.4h-.609v.816Z" transform="translate(-377.788 -96.84)"/>
        </g>
      </g>
    </g>
  </g>
</svg>
