<svg id="optum-formerly" xmlns="http://www.w3.org/2000/svg" width="131.996" height="60.308" viewBox="0 0 131.996 60.308">
  <defs>
    <style>
      .cls-1 {
        fill: #434448;
      }

      .cls-2 {
        fill: #f77e2d;
      }

      .cls-3 {
        fill: #db6919;
      }

      .cls-4 {
        fill: #ffa51c;
      }

      .cls-5 {
        fill: #9fa3a5;
      }

      .cls-6 {
        fill: #82898c;
      }

      .cls-7 {
        fill: #dad9d4;
      }

      .cls-8 {
        fill: #e5b009;
      }

      .cls-9 {
        fill: #ffd200;
      }

      .cls-10 {
        fill: #f8bb0d;
      }
    </style>
  </defs>
  <g id="Group_253" data-name="Group 253" transform="translate(126.983 22.485)">
    <path id="Path_561" data-name="Path 561" class="cls-1" d="M166.209,31.966v-.015a2.507,2.507,0,1,1,5.013-.015v.015a2.507,2.507,0,1,1-5.013.015Zm4.725-.015v-.015a2.219,2.219,0,1,0-4.437.015v.015a2.219,2.219,0,1,0,4.437-.015Zm-3.155-1.31H168.9c.518,0,.937.274.937.778a.776.776,0,0,1-.62.763l.707.979h-.505l-.633-.921h-.605v.921h-.4Zm1.08,1.267c.36,0,.562-.187.562-.461,0-.3-.216-.446-.562-.446h-.677v.908Z" transform="translate(-166.209 -29.431)"/>
  </g>
  <g id="Group_254" data-name="Group 254">
    <path id="Path_562" data-name="Path 562" class="cls-2" d="M38.7,45.748c-2.605-1.455-5.218-3.153-7.885-4.876.594-2.515,1.2-4.983,1.821-7.375h0C34.7,37.806,36.7,41.968,38.7,45.748" transform="translate(-7.272 -7.905)"/>
    <path id="Path_563" data-name="Path 563" class="cls-3" d="M39.259,45.748h0c-1.994-3.779-3.994-7.942-6.065-12.251,2.384,1.7,4.713,3.424,7.007,5.017q-.466,3.5-.943,7.234M33.194,33.5h0" transform="translate(-7.834 -7.905)"/>
    <path id="Path_564" data-name="Path 564" class="cls-3" d="M28.305,40.872c-2.663-1.721-5.382-3.465-8.112-5.02h0A60.705,60.705,0,0,1,30.126,33.5c-.618,2.392-1.226,4.86-1.821,7.375h0M30.126,33.5h0" transform="translate(-4.766 -7.905)"/>
    <path id="Path_565" data-name="Path 565" class="cls-4" d="M20.193,34.341c.859-2.433,1.743-4.864,2.649-7.244h0c2.464,1.509,4.9,3.188,7.284,4.89h0a60.705,60.705,0,0,0-9.933,2.355" transform="translate(-4.766 -6.395)"/>
    <path id="Path_566" data-name="Path 566" class="cls-2" d="M41.39,30.09c-2.029-1.695-4.107-3.455-6.243-5.171q.611-2.191,1.222-4.246h0c1.711,3.278,3.373,6.459,5.021,9.416" transform="translate(-8.295 -4.879)"/>
    <path id="Path_567" data-name="Path 567" class="cls-3" d="M41.768,30.09h0c-1.648-2.957-3.31-6.138-5.021-9.416h0c1.923,1.735,3.781,3.525,5.584,5.285q-.272,2-.563,4.131" transform="translate(-8.672 -4.879)"/>
    <path id="Path_568" data-name="Path 568" class="cls-4" d="M33.194,31.782c.492-1.9.992-3.76,1.492-5.551,2.136,1.716,4.214,3.476,6.243,5.171q-.951-.055-1.921-.054a41.17,41.17,0,0,0-5.814.435" transform="translate(-7.834 -6.191)"/>
    <path id="Path_569" data-name="Path 569" class="cls-2" d="M40.2,38.38h0c-2.294-1.593-4.624-3.317-7.007-5.017h0a41.17,41.17,0,0,1,5.814-.435q.971,0,1.921.054-.354,2.613-.728,5.4" transform="translate(-7.834 -7.771)"/>
    <path id="Path_570" data-name="Path 570" class="cls-5" d="M42.767,21.71a26.615,26.615,0,0,0-6.02-2.054q.507-1.7,1.006-3.3h0c1.734,1.746,3.405,3.55,5.014,5.349" transform="translate(-8.672 -3.861)"/>
    <path id="Path_571" data-name="Path 571" class="cls-6" d="M42.331,25.959h0c-1.8-1.76-3.661-3.55-5.584-5.285h0a26.615,26.615,0,0,1,6.02,2.054q-.211,1.569-.436,3.231" transform="translate(-8.672 -4.879)"/>
    <path id="Path_572" data-name="Path 572" class="cls-6" d="M35.4,18.111h0c-1.422-2.723-2.879-5.513-4.375-8.3,1.847,1.568,3.646,3.255,5.382,5h0q-.5,1.589-1.006,3.3h0" transform="translate(-7.321 -2.316)"/>
    <path id="Path_573" data-name="Path 573" class="cls-7" d="M34.913,18.111h0m0,0c-1.922-1.734-3.906-3.414-5.936-4.958.517-1.152,1.041-2.268,1.561-3.339h0c1.5,2.785,2.954,5.575,4.375,8.3" transform="translate(-6.839 -2.316)"/>
    <path id="Path_574" data-name="Path 574" class="cls-3" d="M17.691,33.143a56.224,56.224,0,0,0-8.1-3.895c1.1-2.381,2.213-4.812,3.37-7.227h0c1.582,3.574,3.17,7.311,4.729,11.122" transform="translate(-2.264 -5.197)"/>
    <path id="Path_575" data-name="Path 575" class="cls-2" d="M18.732,33.143h0C17.173,29.332,15.585,25.595,14,22.021h0A56.284,56.284,0,0,1,21.381,25.9h0c-.906,2.38-1.789,4.812-2.649,7.244h0" transform="translate(-3.305 -5.197)"/>
    <path id="Path_576" data-name="Path 576" class="cls-8" d="M7.328,29.248A21.682,21.682,0,0,0,.034,27.7H0a33.876,33.876,0,0,1,10.7-5.679h0c-1.157,2.415-2.274,4.847-3.37,7.227h0" transform="translate(0 -5.197)"/>
    <path id="Path_577" data-name="Path 577" class="cls-9" d="M0,27.079H0c1.2-2.5,2.429-5.092,3.724-7.689h0A26.637,26.637,0,0,1,10.7,21.4h0A33.876,33.876,0,0,0,0,27.079" transform="translate(0 -4.576)"/>
    <path id="Path_578" data-name="Path 578" class="cls-9" d="M15.682,13.192a31.6,31.6,0,0,0-6.588-2.483h0A25.7,25.7,0,0,1,18.1,8.743h0c-.822,1.439-1.63,2.928-2.423,4.449" transform="translate(-2.146 -2.063)"/>
    <path id="Path_579" data-name="Path 579" class="cls-10" d="M9.094,9.817h0c.916-1.655,1.859-3.281,2.836-4.852h0A36.227,36.227,0,0,1,18.1,7.851h0A25.7,25.7,0,0,0,9.094,9.817" transform="translate(-2.146 -1.172)"/>
    <path id="Path_580" data-name="Path 580" class="cls-10" d="M12.844,19.495h0c-1.261-2.844-2.517-5.587-3.75-8.179A31.6,31.6,0,0,1,15.682,13.8c-.971,1.863-1.917,3.774-2.837,5.7h0" transform="translate(-2.146 -2.671)"/>
    <path id="Path_581" data-name="Path 581" class="cls-8" d="M11.849,19.495h0m0,0a26.637,26.637,0,0,0-6.975-2.01h0c1.032-2.068,2.1-4.14,3.224-6.168,1.233,2.591,2.49,5.334,3.75,8.179" transform="translate(-1.15 -2.671)"/>
    <path id="Path_582" data-name="Path 582" class="cls-6" d="M28.629,8.489h0m0,0a27.557,27.557,0,0,0-6.723-.836q-.51,0-1.018.018c.685-1.194,1.378-2.354,2.078-3.468h0a60.044,60.044,0,0,1,5.663,4.285" transform="translate(-4.93 -0.992)"/>
    <path id="Path_583" data-name="Path 583" class="cls-5" d="M27.068,12.894a58.728,58.728,0,0,0-6.18-4.157h0q.508-.018,1.018-.018a27.557,27.557,0,0,1,6.723.836h0c-.52,1.072-1.044,2.187-1.561,3.339h0" transform="translate(-4.93 -2.058)"/>
    <path id="Path_584" data-name="Path 584" class="cls-10" d="M19.751,6.68C18.534,4.388,17.3,2.149,16.071,0a40.349,40.349,0,0,1,5.758,3.212h0c-.7,1.114-1.394,2.274-2.078,3.468h0" transform="translate(-3.793)"/>
    <path id="Path_585" data-name="Path 585" class="cls-8" d="M18.981,6.68h0m0,0a36.227,36.227,0,0,0-6.175-2.886h0C13.617,2.487,14.449,1.218,15.3,0c1.232,2.149,2.463,4.388,3.68,6.68" transform="translate(-3.022)"/>
  </g>
  <g id="Group_255" data-name="Group 255" transform="translate(39.219 22.746)">
    <path id="Path_586" data-name="Path 586" class="cls-1" d="M60.034,47.031a8.63,8.63,0,1,1,8.748-8.652,8.475,8.475,0,0,1-8.748,8.652m0-14.565a5.644,5.644,0,0,0-5.625,5.913,5.724,5.724,0,0,0,5.673,5.959,5.646,5.646,0,0,0,5.625-5.913,5.723,5.723,0,0,0-5.673-5.959" transform="translate(-51.334 -29.772)"/>
    <path id="Path_587" data-name="Path 587" class="cls-1" d="M80.661,46.834H77.729V30.147h6.58c3.885,0,6.34,2.193,6.34,5.6,0,3.768-3,5.722-6.675,5.722H80.661v5.364m0-14.017v6.007H84.07c2.216,0,3.6-1.216,3.6-3,0-1.979-1.407-3-3.6-3H80.661" transform="translate(-57.563 -29.861)"/>
    <path id="Path_588" data-name="Path 588" class="cls-1" d="M104.79,46.834h-2.954V32.865H96.543V30.147h13.54v2.718H104.79V46.834" transform="translate(-62.003 -29.861)"/>
    <path id="Path_589" data-name="Path 589" class="cls-1" d="M124.769,47.1c-4.338,0-7.1-2.5-7.1-7.341V30.147H120.6v9.489c0,3.1,1.6,4.767,4.218,4.767,2.6,0,4.2-1.574,4.2-4.648V30.147h2.933V39.61c0,4.982-2.812,7.486-7.175,7.486" transform="translate(-66.989 -29.861)"/>
    <path id="Path_590" data-name="Path 590" class="cls-1" d="M156.935,46.834H154V34.866l-5.268,7.868h-.095l-5.22-7.82v11.92h-2.884V30.147h3.122l5.077,7.89,5.078-7.89h3.122V46.834" transform="translate(-72.386 -29.861)"/>
  </g>
  <g id="Group_256" data-name="Group 256" transform="translate(39.219 53.048)">
    <path id="Path_591" data-name="Path 591" class="cls-1" d="M51.423,75.092l.727-3.385h-.816l.1-.4h.809l.1-.445c.163-.765.452-1.425,1.239-1.425a1.376,1.376,0,0,1,.52.082l-.111.393a.9.9,0,0,0-.371-.074c-.6,0-.713.632-.884,1.47h.944l-.1.4H52.64l-.728,3.385Z" transform="translate(-51.334 -69.435)"/>
    <path id="Path_592" data-name="Path 592" class="cls-1" d="M54.451,74.083a2.149,2.149,0,0,1,2.108-2.316,1.449,1.449,0,0,1,1.507,1.626,2.155,2.155,0,0,1-2.093,2.338A1.507,1.507,0,0,1,54.451,74.083Zm3.1-.683c0-.617-.244-1.232-1.061-1.232-1.025,0-1.529,1.01-1.529,1.982a1.071,1.071,0,0,0,1.061,1.181C57.02,75.33,57.554,74.268,57.554,73.4Z" transform="translate(-52.07 -69.985)"/>
    <path id="Path_593" data-name="Path 593" class="cls-1" d="M59.841,75.642l.653-3.185a5.89,5.89,0,0,0,.089-.6h.468a3.76,3.76,0,0,1-.081.571h.015a1.224,1.224,0,0,1,1.054-.66,2.05,2.05,0,0,1,.408.052l-.111.5a1.063,1.063,0,0,0-.394-.06c-.616,0-1.009.52-1.217,1.522l-.387,1.863Z" transform="translate(-53.342 -69.985)"/>
    <path id="Path_594" data-name="Path 594" class="cls-1" d="M67.774,75.642l.423-2a3.071,3.071,0,0,0,.1-.727c0-.475-.215-.743-.631-.743-.669,0-1.128.668-1.314,1.589l-.386,1.886h-.49l.423-2a3,3,0,0,0,.1-.727c0-.453-.2-.743-.631-.743-.639,0-1.114.616-1.314,1.589l-.386,1.886h-.49l.646-3.148a4.9,4.9,0,0,0,.1-.639h.468a5.106,5.106,0,0,1-.081.571h.015a1.31,1.31,0,0,1,1.165-.66.86.86,0,0,1,.958.846h.015a1.37,1.37,0,0,1,1.284-.846,1.014,1.014,0,0,1,1.069,1.1,3.927,3.927,0,0,1-.126.795l-.416,1.982Z" transform="translate(-54.128 -69.985)"/>
    <path id="Path_595" data-name="Path 595" class="cls-1" d="M74.152,75.53a2.826,2.826,0,0,1-1.121.2,1.445,1.445,0,0,1-1.567-1.544,2.177,2.177,0,0,1,1.96-2.42,1.248,1.248,0,0,1,1.336,1.41,6.02,6.02,0,0,1-.051.7H71.954a2.062,2.062,0,0,0-.022.3,1.073,1.073,0,0,0,1.151,1.144,2.648,2.648,0,0,0,1.106-.253Zm.118-2.048c.008-.067.023-.224.023-.3,0-.3-.06-1.018-.876-1.018a1.5,1.5,0,0,0-1.381,1.315Z" transform="translate(-56.085 -69.985)"/>
    <path id="Path_596" data-name="Path 596" class="cls-1" d="M76.31,75.642l.653-3.185a5.69,5.69,0,0,0,.089-.6h.468a3.651,3.651,0,0,1-.082.571h.015a1.222,1.222,0,0,1,1.054-.66,2.058,2.058,0,0,1,.409.052l-.112.5a1.057,1.057,0,0,0-.393-.06c-.616,0-1.009.52-1.217,1.522l-.386,1.863Z" transform="translate(-57.228 -69.985)"/>
    <path id="Path_597" data-name="Path 597" class="cls-1" d="M79.641,75.119l1.188-5.568h.49l-1.188,5.568Z" transform="translate(-58.015 -69.462)"/>
    <path id="Path_598" data-name="Path 598" class="cls-1" d="M82.5,75.677l-.534-3.794h.49l.386,3.259h.015l1.774-3.259h.5l-2.613,4.662a1.124,1.124,0,0,1-1.025.728.856.856,0,0,1-.452-.1l.111-.4a.426.426,0,0,0,.3.1c.4,0,.631-.423.727-.609Z" transform="translate(-58.347 -70.013)"/>
    <path id="Path_599" data-name="Path 599" class="cls-1" d="M92.335,75.238l.526-2.442h-2.65l-.52,2.442h-.505l1.1-5.182h.505l-.483,2.294h2.65l.49-2.294h.505l-1.114,5.182Z" transform="translate(-60.267 -69.582)"/>
    <path id="Path_600" data-name="Path 600" class="cls-1" d="M98.468,75.53a2.824,2.824,0,0,1-1.121.2,1.444,1.444,0,0,1-1.566-1.544,2.176,2.176,0,0,1,1.96-2.42,1.248,1.248,0,0,1,1.336,1.41,6.027,6.027,0,0,1-.052.7H96.27a2.29,2.29,0,0,0-.021.3A1.073,1.073,0,0,0,97.4,75.33a2.649,2.649,0,0,0,1.107-.253Zm.118-2.048c.008-.067.023-.224.023-.3,0-.3-.06-1.018-.876-1.018a1.5,1.5,0,0,0-1.381,1.315Z" transform="translate(-61.824 -69.985)"/>
    <path id="Path_601" data-name="Path 601" class="cls-1" d="M102.815,75.642a5.177,5.177,0,0,1,.075-.557h-.015a1.4,1.4,0,0,1-1.284.646,1.059,1.059,0,0,1-1.092-1.061c0-.987,1-1.336,2.176-1.336a4.687,4.687,0,0,1,.513.03,3.12,3.12,0,0,0,.021-.364.739.739,0,0,0-.809-.832,2.5,2.5,0,0,0-1.121.327l.052-.475a3.082,3.082,0,0,1,1.144-.252A1.116,1.116,0,0,1,103.722,73a4.6,4.6,0,0,1-.1.72l-.193.987a8.337,8.337,0,0,0-.148.936Zm-.163-1.908c-1.1,0-1.641.327-1.641.928a.681.681,0,0,0,.743.669c.72,0,1.232-.565,1.374-1.581C102.971,73.741,102.815,73.734,102.653,73.734Z" transform="translate(-62.937 -69.985)"/>
    <path id="Path_602" data-name="Path 602" class="cls-1" d="M105.578,75.119l1.188-5.568h.49l-1.187,5.568Z" transform="translate(-64.136 -69.462)"/>
    <path id="Path_603" data-name="Path 603" class="cls-1" d="M109.674,75.335a1.046,1.046,0,0,1-.475.1c-.513,0-.824-.282-.824-.7a5.615,5.615,0,0,1,.17-1.092l.364-1.678h-.758l.1-.4H109l.178-.847.535-.186-.231,1.032h.987l-.1.4H109.4l-.4,1.871a3.994,3.994,0,0,0-.112.742.4.4,0,0,0,.43.461.79.79,0,0,0,.4-.1Z" transform="translate(-64.743 -69.694)"/>
    <path id="Path_604" data-name="Path 604" class="cls-1" d="M113.671,75.119l.431-2.086a2.814,2.814,0,0,0,.081-.653.666.666,0,0,0-.727-.735c-.676,0-1.166.572-1.388,1.589l-.416,1.886h-.49l1.2-5.568h.489l-.564,2.4h.015a1.377,1.377,0,0,1,1.225-.705,1.067,1.067,0,0,1,1.173,1.1,3.131,3.131,0,0,1-.1.749l-.43,2.027Z" transform="translate(-65.454 -69.462)"/>
    <path id="Path_605" data-name="Path 605" class="cls-1" d="M120.55,75.137a2.947,2.947,0,0,1-1.009.163,2.276,2.276,0,0,1-2.435-2.271,2.966,2.966,0,0,1,3.088-3.088,3.053,3.053,0,0,1,1.387.267l-.178.43a2.613,2.613,0,0,0-1.247-.252,2.511,2.511,0,0,0-2.539,2.65,1.821,1.821,0,0,0,1.893,1.819,3.077,3.077,0,0,0,1.1-.17Z" transform="translate(-66.856 -69.554)"/>
    <path id="Path_606" data-name="Path 606" class="cls-1" d="M124.879,75.642a5.2,5.2,0,0,1,.073-.557h-.014a1.4,1.4,0,0,1-1.285.646,1.059,1.059,0,0,1-1.091-1.061c0-.987,1-1.336,2.175-1.336a4.654,4.654,0,0,1,.512.03,2.817,2.817,0,0,0,.023-.364.739.739,0,0,0-.809-.832,2.5,2.5,0,0,0-1.122.327l.053-.475a3.078,3.078,0,0,1,1.142-.252A1.116,1.116,0,0,1,125.785,73a4.6,4.6,0,0,1-.1.72l-.193.987a8.514,8.514,0,0,0-.148.936Zm-.164-1.908c-1.1,0-1.64.327-1.64.928a.681.681,0,0,0,.743.669c.72,0,1.232-.565,1.373-1.581C125.035,73.741,124.879,73.734,124.715,73.734Z" transform="translate(-68.144 -69.985)"/>
    <path id="Path_607" data-name="Path 607" class="cls-1" d="M127.642,75.642l.653-3.185a5.689,5.689,0,0,0,.089-.6h.468a3.666,3.666,0,0,1-.081.571h.015a1.224,1.224,0,0,1,1.054-.66,2.058,2.058,0,0,1,.408.052l-.112.5a1.057,1.057,0,0,0-.393-.06c-.616,0-1.009.52-1.217,1.522l-.387,1.863Z" transform="translate(-69.343 -69.985)"/>
    <path id="Path_608" data-name="Path 608" class="cls-1" d="M133.767,75.53a2.826,2.826,0,0,1-1.121.2,1.444,1.444,0,0,1-1.566-1.544,2.176,2.176,0,0,1,1.96-2.42,1.248,1.248,0,0,1,1.336,1.41,6.027,6.027,0,0,1-.052.7h-2.755a2.29,2.29,0,0,0-.021.3,1.073,1.073,0,0,0,1.15,1.144,2.643,2.643,0,0,0,1.106-.253Zm.118-2.048c.008-.067.023-.224.023-.3,0-.3-.06-1.018-.876-1.018a1.5,1.5,0,0,0-1.381,1.315Z" transform="translate(-70.154 -69.985)"/>
    <path id="Path_609" data-name="Path 609" class="cls-1" d="M138.81,75.238l1.112-5.182h.936c1.329,0,1.693.52,1.693,1.314,0,1.025-.9,1.626-2.035,1.626h-.705l-.49,2.242Zm1.655-2.688c.98,0,1.574-.422,1.574-1.195,0-.571-.356-.854-1.121-.854h-.571l-.438,2.049Z" transform="translate(-71.979 -69.582)"/>
    <path id="Path_610" data-name="Path 610" class="cls-1" d="M145.863,75.642a5.177,5.177,0,0,1,.075-.557h-.015a1.4,1.4,0,0,1-1.284.646,1.059,1.059,0,0,1-1.092-1.061c0-.987,1-1.336,2.175-1.336a4.667,4.667,0,0,1,.513.03,2.962,2.962,0,0,0,.022-.364.739.739,0,0,0-.81-.832,2.5,2.5,0,0,0-1.121.327l.052-.475a3.082,3.082,0,0,1,1.144-.252A1.117,1.117,0,0,1,146.77,73a4.512,4.512,0,0,1-.1.72l-.193.987a8.338,8.338,0,0,0-.148.936Zm-.163-1.908c-1.1,0-1.64.327-1.64.928a.68.68,0,0,0,.742.669c.72,0,1.232-.565,1.374-1.581C146.019,73.741,145.863,73.734,145.7,73.734Z" transform="translate(-73.097 -69.985)"/>
    <path id="Path_611" data-name="Path 611" class="cls-1" d="M148.626,75.642l.653-3.185c.044-.222.066-.386.089-.6h.468a3.743,3.743,0,0,1-.082.571h.015a1.224,1.224,0,0,1,1.054-.66,2.066,2.066,0,0,1,.409.052l-.112.5a1.057,1.057,0,0,0-.393-.06c-.617,0-1.009.52-1.217,1.522l-.387,1.863Z" transform="translate(-74.295 -69.985)"/>
    <path id="Path_612" data-name="Path 612" class="cls-1" d="M153.8,75.335a1.047,1.047,0,0,1-.474.1c-.513,0-.824-.282-.824-.7a5.615,5.615,0,0,1,.17-1.092l.364-1.678h-.756l.1-.4h.743l.178-.847.535-.186-.23,1.032h.987l-.1.4h-.973l-.4,1.871a4.059,4.059,0,0,0-.112.742.4.4,0,0,0,.431.461.79.79,0,0,0,.4-.1Z" transform="translate(-75.157 -69.694)"/>
    <path id="Path_613" data-name="Path 613" class="cls-1" d="M157.8,75.642l.431-2.086a2.879,2.879,0,0,0,.082-.66.664.664,0,0,0-.728-.728c-.876,0-1.277.921-1.432,1.678l-.371,1.8h-.49l.646-3.148a6.289,6.289,0,0,0,.1-.639h.468a4,4,0,0,1-.082.571h.015a1.479,1.479,0,0,1,1.2-.66,1.069,1.069,0,0,1,1.188,1.1,3.829,3.829,0,0,1-.112.779l-.423,2Z" transform="translate(-75.868 -69.985)"/>
    <path id="Path_614" data-name="Path 614" class="cls-1" d="M163.579,75.53a2.832,2.832,0,0,1-1.122.2,1.444,1.444,0,0,1-1.566-1.544,2.177,2.177,0,0,1,1.96-2.42,1.248,1.248,0,0,1,1.336,1.41,6.027,6.027,0,0,1-.052.7h-2.753a2.063,2.063,0,0,0-.023.3,1.074,1.074,0,0,0,1.151,1.144,2.645,2.645,0,0,0,1.105-.253Zm.118-2.048c.008-.067.022-.224.022-.3,0-.3-.06-1.018-.876-1.018a1.5,1.5,0,0,0-1.381,1.315Z" transform="translate(-77.19 -69.985)"/>
    <path id="Path_615" data-name="Path 615" class="cls-1" d="M165.737,75.642l.653-3.185a5.89,5.89,0,0,0,.089-.6h.468a3.845,3.845,0,0,1-.082.571h.015a1.224,1.224,0,0,1,1.054-.66,2.073,2.073,0,0,1,.409.052l-.112.5a1.053,1.053,0,0,0-.393-.06c-.617,0-1.01.52-1.218,1.522l-.386,1.863Z" transform="translate(-78.334 -69.985)"/>
    <path id="Path_616" data-name="Path 616" class="cls-1" d="M168.8,75.055a1.739,1.739,0,0,0,.9.275c.468,0,1.069-.179,1.069-.757,0-.394-.342-.594-.735-.817s-.757-.468-.757-.936c0-.749.795-1.054,1.4-1.054a2.583,2.583,0,0,1,.973.185l-.157.439a1.745,1.745,0,0,0-.839-.223c-.438,0-.891.157-.891.646,0,.275.275.453.639.661.565.319.876.6.876,1.07,0,.824-.727,1.187-1.529,1.187a2.787,2.787,0,0,1-1.092-.208Z" transform="translate(-79.023 -69.985)"/>
  </g>
</svg>
