<svg xmlns="http://www.w3.org/2000/svg" width="140.291" height="46.798" viewBox="0 0 140.291 46.798">
  <defs>
    <style>
      .cls-1 {
        fill: #55565a;
      }

      .cls-2 {
        fill: #ffd200;
      }

      .cls-3 {
        fill: #6db33f;
      }

      .cls-4 {
        opacity: 0.85;
      }

      .cls-5 {
        fill: #f57f29;
      }

      .cls-6, .cls-7 {
        fill: #328fce;
      }

      .cls-6 {
        opacity: 0.75;
      }
    </style>
  </defs>
  <g id="PrimaryCareAssociates" transform="translate(-18 -5.951)">
    <g id="Group_124" data-name="Group 124" transform="translate(18 5.951)">
      <g id="Group_116" data-name="Group 116" transform="translate(37.702 37.75)">
        <path id="Path_119" data-name="Path 119" class="cls-1" d="M126.864,114.634h1.7c1.331,0,2.439.466,2.439,1.945,0,1.443-1.126,1.955-2.3,1.955h-.912v2.6h-.931Zm.931,3.081h.922a1.169,1.169,0,0,0,1.3-1.145c0-.819-.857-1.117-1.433-1.117h-.791Z" transform="translate(-126.864 -114.038)"/>
        <path id="Path_120" data-name="Path 120" class="cls-1" d="M140.146,119.62a3.027,3.027,0,0,1,1.564-.447c1.359,0,1.908.67,1.908,1.964V123.1a7.476,7.476,0,0,0,.037.931h-.819v-.614h-.019a1.762,1.762,0,0,1-1.471.726c-1.024,0-1.741-.447-1.741-1.48,0-1.192,1.3-1.564,2.206-1.564.344,0,.587,0,.931.019,0-.819-.3-1.238-1.173-1.238a2.231,2.231,0,0,0-1.378.484Zm2.6,2.15c-.186,0-.372-.019-.559-.019-.474,0-1.647.075-1.647.913a.836.836,0,0,0,.884.772,1.2,1.2,0,0,0,1.322-1.247Z" transform="translate(-135.007 -116.939)"/>
        <path id="Path_121" data-name="Path 121" class="cls-1" d="M154.181,119.285H155v.736h.018a1.444,1.444,0,0,1,1.238-.847,2.473,2.473,0,0,1,.577.065v.782a1.291,1.291,0,0,0-.484-.084c-.782,0-1.294.745-1.294,1.936v2.16h-.875Z" transform="translate(-144.32 -116.939)"/>
        <path id="Path_122" data-name="Path 122" class="cls-1" d="M165.534,117.751h-1.257v2.6a.753.753,0,0,0,.735.847,1.085,1.085,0,0,0,.6-.167v.744a2.735,2.735,0,0,1-.745.13c-.9,0-1.462-.428-1.462-1.377v-2.774h-1.07v-.708h1.07v-1.1l.875-.279v1.377h1.257Z" transform="translate(-149.529 -114.698)"/>
        <path id="Path_123" data-name="Path 123" class="cls-1" d="M181.672,119.173a2.341,2.341,0,0,1,2.411,2.485,2.417,2.417,0,1,1-4.831,0A2.344,2.344,0,0,1,181.672,119.173Zm0,4.263a1.592,1.592,0,0,0,1.48-1.778,1.509,1.509,0,1,0-2.97,0A1.593,1.593,0,0,0,181.672,123.436Z" transform="translate(-160.341 -116.939)"/>
        <path id="Path_124" data-name="Path 124" class="cls-1" d="M194.841,116.036h-1.117v-.708h1.117v-.437c0-1.155.3-1.909,1.592-1.909a3.555,3.555,0,0,1,.587.056l-.037.708a1.371,1.371,0,0,0-.419-.056c-.754,0-.847.484-.847,1.127v.512h1.257v.708h-1.257v4.04h-.875Z" transform="translate(-169.59 -112.983)"/>
        <path id="Path_125" data-name="Path 125" class="cls-1" d="M213.592,114.325a3.369,3.369,0,1,1-3.128,3.36A3.064,3.064,0,0,1,213.592,114.325Zm0,5.9c1.5,0,2.141-1.247,2.141-2.541,0-1.322-.708-2.551-2.141-2.541-1.434-.009-2.141,1.22-2.141,2.541C211.451,118.979,212.093,120.226,213.592,120.226Z" transform="translate(-180.287 -113.841)"/>
        <path id="Path_126" data-name="Path 126" class="cls-1" d="M230.584,119.285h.837v.67h.019a1.9,1.9,0,0,1,1.61-.782,2.122,2.122,0,0,1,2.048,2.4c0,1.3-.605,2.569-2.039,2.569a1.7,1.7,0,0,1-1.582-.763h-.018v2.606h-.875Zm2.28.6c-.949,0-1.405.9-1.405,1.787,0,.791.41,1.768,1.4,1.768.94,0,1.331-1.052,1.312-1.8C234.186,120.783,233.814,119.88,232.864,119.88Z" transform="translate(-193.144 -116.939)"/>
        <path id="Path_127" data-name="Path 127" class="cls-1" d="M247.018,117.751h-1.257v2.6a.753.753,0,0,0,.735.847,1.086,1.086,0,0,0,.6-.167v.744a2.741,2.741,0,0,1-.745.13c-.9,0-1.461-.428-1.461-1.377v-2.774h-1.071v-.708h1.071v-1.1l.875-.279v1.377h1.257Z" transform="translate(-201.6 -114.698)"/>
        <path id="Path_128" data-name="Path 128" class="cls-1" d="M259.286,124.229h-.847v-.754h-.019a1.706,1.706,0,0,1-1.554.866c-1.229,0-1.778-.763-1.778-2.038v-2.821h.875v2.458c0,1.107.242,1.647,1.005,1.694,1,0,1.443-.8,1.443-1.955v-2.2h.875Z" transform="translate(-208.803 -117.136)"/>
        <path id="Path_129" data-name="Path 129" class="cls-1" d="M270.178,119.285H271v.689h.019a1.6,1.6,0,0,1,1.508-.8,1.4,1.4,0,0,1,1.35.922,1.693,1.693,0,0,1,1.471-.922c1.21,0,1.647.782,1.647,1.815v3.044h-.875V121.2c0-.587-.14-1.322-.847-1.322-.893,0-1.247.875-1.247,1.759v2.392h-.875V121.2c0-.587-.139-1.322-.847-1.322-.894,0-1.247.875-1.247,1.759v2.392h-.875Z" transform="translate(-218.446 -116.939)"/>
        <path id="Path_130" data-name="Path 130" class="cls-1" d="M296.615,115.507a2.613,2.613,0,0,0-1.341-.363,2.542,2.542,0,0,0-.046,5.082,3.2,3.2,0,0,0,1.415-.317l.056.9a4.063,4.063,0,0,1-1.48.232,3.2,3.2,0,0,1-3.425-3.388,3.238,3.238,0,0,1,3.435-3.332,3.58,3.58,0,0,1,1.461.279Z" transform="translate(-232.259 -113.841)"/>
        <path id="Path_131" data-name="Path 131" class="cls-1" d="M307.268,119.62a3.026,3.026,0,0,1,1.564-.447c1.359,0,1.908.67,1.908,1.964V123.1a7.6,7.6,0,0,0,.037.931h-.819v-.614h-.019a1.761,1.761,0,0,1-1.471.726c-1.024,0-1.741-.447-1.741-1.48,0-1.192,1.3-1.564,2.206-1.564.344,0,.587,0,.931.019,0-.819-.3-1.238-1.173-1.238a2.232,2.232,0,0,0-1.378.484Zm2.6,2.15c-.187,0-.373-.019-.559-.019-.474,0-1.647.075-1.647.913a.836.836,0,0,0,.884.772,1.2,1.2,0,0,0,1.322-1.247Z" transform="translate(-241.802 -116.939)"/>
        <path id="Path_132" data-name="Path 132" class="cls-1" d="M321.3,119.285h.819v.736h.019a1.444,1.444,0,0,1,1.238-.847,2.47,2.47,0,0,1,.577.065v.782a1.29,1.29,0,0,0-.484-.084c-.782,0-1.293.745-1.293,1.936v2.16H321.3Z" transform="translate(-251.116 -116.939)"/>
        <path id="Path_133" data-name="Path 133" class="cls-1" d="M333.77,123.836a3.626,3.626,0,0,1-1.5.307,2.272,2.272,0,0,1-2.457-2.569,2.205,2.205,0,0,1,2.225-2.4c1.583,0,2.094,1.154,2.094,2.681h-3.388a1.553,1.553,0,0,0,1.564,1.582,2.8,2.8,0,0,0,1.461-.475ZM333.2,121.2a1.2,1.2,0,0,0-1.182-1.322,1.314,1.314,0,0,0-1.275,1.322Z" transform="translate(-256.555 -116.939)"/>
      </g>
      <g id="Group_120" data-name="Group 120" transform="translate(0 0.579)">
        <g id="Group_117" data-name="Group 117" transform="translate(14.056 7.028)">
          <path id="Path_134" data-name="Path 134" class="cls-2" d="M67.747,37.829v7.03H63.969v-7.03h-7.03V34.051h7.03V27.024h3.778v7.027h7.029v3.777Z" transform="translate(-56.939 -27.024)"/>
        </g>
        <g id="Group_118" data-name="Group 118" transform="translate(0 7.036)">
          <path id="Path_135" data-name="Path 135" class="cls-3" d="M25.028,34.078v-7.03h3.781v7.03h7.028v3.777H28.809v7.03H25.028v-7.03H18V34.078Z" transform="translate(-18 -27.048)"/>
        </g>
        <g id="Group_119" data-name="Group 119" class="cls-4" transform="translate(7.03 14.063)">
          <path id="Path_136" data-name="Path 136" class="cls-5" d="M48.286,57.322v7.031H44.5V57.322H37.476V53.546H44.5V46.515h3.782v7.031h7.028v3.776Z" transform="translate(-37.476 -46.515)"/>
        </g>
        <path id="Path_137" data-name="Path 137" class="cls-6" d="M48.293,18.365v7.028H44.514V18.365h-7.03V14.583h7.03V7.555h3.779v7.028h7.029v3.782Z" transform="translate(-30.451 -7.555)"/>
      </g>
      <path id="Path_138" data-name="Path 138" class="cls-7" d="M129.209,7.789h3.556c2.707,0,4.466,1.363,4.466,4.09,0,2.688-2.027,4.093-4.609,4.093h-1.985v6.239h-1.427Zm1.427,6.941h.993c2.148,0,4.174-.246,4.174-2.851a2.589,2.589,0,0,0-2.852-2.851h-2.315Z" transform="translate(-89.855 -7.126)"/>
      <path id="Path_139" data-name="Path 139" class="cls-7" d="M155.858,20.465a19.285,19.285,0,0,0-.081-2.356h1.3v2.026h.041a3.126,3.126,0,0,1,2.707-2.272,3.82,3.82,0,0,1,.909.124v1.364a3.4,3.4,0,0,0-.948-.129c-2.068,0-2.627,2.317-2.627,4.219V28.65h-1.3Z" transform="translate(-107 -13.563)"/>
      <path id="Path_140" data-name="Path 140" class="cls-7" d="M173.634,21.037h1.3V10.5h-1.3Zm0-13.348h1.3V5.951h-1.3Z" transform="translate(-118.507 -5.951)"/>
      <g id="Group_121" data-name="Group 121" transform="translate(57.513 0.415)">
        <path id="Path_141" data-name="Path 141" class="cls-7" d="M197.492,28.65V21.643c0-1.489-.558-2.663-2.231-2.663-1.427,0-2.834,1.219-2.834,3.841V28.65h-1.3V21.643c0-1.489-.557-2.663-2.231-2.663-1.427,0-2.832,1.219-2.832,3.841V28.65h-1.3V20.591c0-.809,0-1.633-.084-2.482h1.262v1.777l.042.022a3.309,3.309,0,0,1,3.287-2.045,2.649,2.649,0,0,1,2.786,2.23h.042a3.547,3.547,0,0,1,3.368-2.23,3.213,3.213,0,0,1,3.329,3.533V28.65Z" transform="translate(-184.678 -13.978)"/>
        <path id="Path_142" data-name="Path 142" class="cls-7" d="M235.791,26.958h-.042A3.706,3.706,0,0,1,232.4,28.9c-3,0-3.472-2.026-3.472-2.975,0-3.534,3.76-3.7,6.488-3.7h.249v-.54c0-1.8-.641-2.7-2.4-2.7a5.569,5.569,0,0,0-3.1.867V18.585a8.276,8.276,0,0,1,3.1-.722c2.6,0,3.7,1.178,3.7,3.925v4.65a15.21,15.21,0,0,0,.1,2.212h-1.281Zm-.122-3.621H235.3c-2.252,0-4.941.227-4.941,2.541,0,1.388.993,1.905,2.191,1.905,3.059,0,3.122-2.669,3.122-3.8Z" transform="translate(-212.957 -13.978)"/>
        <path id="Path_143" data-name="Path 143" class="cls-7" d="M258.206,20.465a19.032,19.032,0,0,0-.082-2.356h1.3v2.026h.041a3.125,3.125,0,0,1,2.707-2.272,3.853,3.853,0,0,1,.91.124v1.364a3.415,3.415,0,0,0-.952-.129c-2.064,0-2.624,2.317-2.624,4.219V28.65h-1.3Z" transform="translate(-231.612 -13.978)"/>
        <path id="Path_144" data-name="Path 144" class="cls-7" d="M276.357,27.327h.019l3.038-8.782h1.367l-4.217,12.114c-.5,1.443-1.241,2.892-2.708,2.892a6.187,6.187,0,0,1-1.4-.168l.124-1.113a2.688,2.688,0,0,0,.971.164c1.115,0,1.487-.931,1.9-2.3l.269-.928-3.741-10.665H273.4Z" transform="translate(-240.464 -14.414)"/>
        <path id="Path_145" data-name="Path 145" class="cls-7" d="M323.334,8.96a7.127,7.127,0,0,0-3.142-.624c-3.642,0-5.7,2.649-5.7,6.222,0,3.639,2,6.221,5.7,6.221a6.849,6.849,0,0,0,3.142-.618l.079,1.24a7.446,7.446,0,0,1-3.221.619c-4.429,0-7.087-3-7.087-7.462,0-4.379,2.74-7.458,7.087-7.458a8.821,8.821,0,0,1,3.221.537Z" transform="translate(-266.747 -7.1)"/>
        <path id="Path_146" data-name="Path 146" class="cls-7" d="M354.652,26.958h-.04a3.6,3.6,0,0,1-3.262,1.939c-2.922,0-3.382-2.026-3.382-2.975,0-3.534,3.664-3.7,6.319-3.7h.244v-.54c0-1.8-.624-2.7-2.335-2.7a5.315,5.315,0,0,0-3.021.867V18.585a7.885,7.885,0,0,1,3.021-.722c2.537,0,3.6,1.178,3.6,3.925v4.65a15.43,15.43,0,0,0,.1,2.212h-1.248Zm-.121-3.621h-.364c-2.194,0-4.812.227-4.812,2.541,0,1.388.966,1.905,2.136,1.905,2.977,0,3.039-2.669,3.039-3.8Z" transform="translate(-289.026 -13.978)"/>
        <path id="Path_147" data-name="Path 147" class="cls-7" d="M376.485,20.465a19.536,19.536,0,0,0-.08-2.356h1.27v2.026h.04a3.069,3.069,0,0,1,2.638-2.272,3.653,3.653,0,0,1,.886.124v1.364a3.236,3.236,0,0,0-.926-.129c-2.014,0-2.557,2.317-2.557,4.219V28.65h-1.27Z" transform="translate(-307.197 -13.978)"/>
        <path id="Path_148" data-name="Path 148" class="cls-7" d="M398.34,28.32a8.221,8.221,0,0,1-2.982.577c-3.4,0-4.669-2.353-4.669-5.517,0-3.226,1.732-5.517,4.328-5.517,2.9,0,4.087,2.4,4.087,5.226v.663h-7.024c0,2.233,1.166,4.028,3.383,4.028A6.487,6.487,0,0,0,398.34,27Zm-.624-5.684c0-1.841-.725-3.656-2.619-3.656-1.871,0-3.018,1.919-3.018,3.656Z" transform="translate(-316.325 -13.978)"/>
      </g>
      <path id="Path_149" data-name="Path 149" class="cls-7" d="M130.771,55.69h1.569l5.579,14.428h-1.452l-1.508-3.863H127.87l-1.508,3.863h-1.35Zm.684,1.366L128.4,65.012h6.1Z" transform="translate(-87.172 -38.214)"/>
      <g id="Group_122" data-name="Group 122" transform="translate(50.72 21.074)">
        <path id="Path_150" data-name="Path 150" class="cls-7" d="M162.109,75.032a5.919,5.919,0,0,0,2.677.662,2.028,2.028,0,0,0,2.274-1.881c0-2.5-4.932-2.106-4.932-5.164,0-2.09,1.65-2.873,3.343-2.873a7.884,7.884,0,0,1,2.537.475l-.12,1.133a5.9,5.9,0,0,0-2.275-.492c-1.31,0-2.216.411-2.216,1.756,0,1.962,5.053,1.712,5.053,5.164,0,2.233-2.033,3-3.584,3a7.547,7.547,0,0,1-2.881-.5Z" transform="translate(-161.987 -65.776)"/>
        <path id="Path_151" data-name="Path 151" class="cls-7" d="M182.414,75.032a5.909,5.909,0,0,0,2.677.662,2.028,2.028,0,0,0,2.274-1.881c0-2.5-4.932-2.106-4.932-5.164,0-2.09,1.651-2.873,3.34-2.873a7.883,7.883,0,0,1,2.538.475l-.121,1.133a5.9,5.9,0,0,0-2.274-.492c-1.31,0-2.214.411-2.214,1.756,0,1.962,5.052,1.712,5.052,5.164,0,2.233-2.032,3-3.584,3a7.541,7.541,0,0,1-2.879-.5Z" transform="translate(-174.962 -65.776)"/>
        <path id="Path_152" data-name="Path 152" class="cls-7" d="M207.721,65.776c3.32,0,4.793,2.643,4.793,5.517s-1.472,5.517-4.793,5.517-4.793-2.644-4.793-5.517,1.469-5.517,4.793-5.517m0,9.918c2.216,0,3.4-1.964,3.4-4.4s-1.185-4.4-3.4-4.4-3.4,1.96-3.4,4.4,1.189,4.4,3.4,4.4" transform="translate(-188.15 -65.776)"/>
        <path id="Path_153" data-name="Path 153" class="cls-7" d="M240.048,67.429a5.656,5.656,0,0,0-2.193-.537c-2.479,0-3.867,1.838-3.867,4.4,0,2.4,1.409,4.4,3.724,4.4a6.466,6.466,0,0,0,2.317-.473l.121,1.219a7.4,7.4,0,0,1-2.638.371c-3.3,0-4.913-2.582-4.913-5.517,0-3.245,2.034-5.517,5.074-5.517a7.512,7.512,0,0,1,2.477.412Z" transform="translate(-207.11 -65.776)"/>
      </g>
      <path id="Path_154" data-name="Path 154" class="cls-7" d="M259.355,55.6h-1.267V53.862h1.267Zm-1.267,2.812h1.267V68.949h-1.267Z" transform="translate(-173.046 -37.037)"/>
      <g id="Group_123" data-name="Group 123" transform="translate(87.192 18.353)">
        <path id="Path_155" data-name="Path 155" class="cls-7" d="M273.583,74.868h-.039a3.6,3.6,0,0,1-3.262,1.942c-2.921,0-3.382-2.024-3.382-2.975,0-3.533,3.664-3.7,6.323-3.7h.24V69.6c0-1.8-.624-2.7-2.336-2.7a5.343,5.343,0,0,0-3.02.867V66.5a7.884,7.884,0,0,1,3.02-.724c2.538,0,3.606,1.178,3.606,3.922V74.35a15.451,15.451,0,0,0,.1,2.213h-1.25Zm-.121-3.618H273.1c-2.2,0-4.814.228-4.814,2.544,0,1.385.968,1.9,2.135,1.9,2.982,0,3.04-2.666,3.04-3.8Z" transform="translate(-266.899 -63.026)"/>
        <path id="Path_156" data-name="Path 156" class="cls-7" d="M297.892,62.269h-2.335v6.82c0,.952.343,1.736,1.369,1.736a2.891,2.891,0,0,0,1.169-.247l.079,1.074a4.558,4.558,0,0,1-1.55.289c-2.255,0-2.336-1.593-2.336-3.514V62.269h-2.014V61.153h2.014v-2.54l1.269-.456v3h2.335Z" transform="translate(-283.115 -58.157)"/>
        <path id="Path_157" data-name="Path 157" class="cls-7" d="M318.279,76.232a8.257,8.257,0,0,1-2.98.578c-3.4,0-4.672-2.357-4.672-5.517,0-3.223,1.73-5.517,4.328-5.517,2.9,0,4.088,2.4,4.088,5.225v.667h-7.028c0,2.23,1.169,4.026,3.382,4.026a6.545,6.545,0,0,0,2.882-.781Zm-.626-5.683c0-1.838-.723-3.657-2.614-3.657-1.874,0-3.025,1.922-3.025,3.657Z" transform="translate(-294.843 -63.026)"/>
        <path id="Path_158" data-name="Path 158" class="cls-7" d="M336.849,75.032a5.915,5.915,0,0,0,2.68.662,2.03,2.03,0,0,0,2.275-1.881c0-2.5-4.935-2.106-4.935-5.164,0-2.09,1.651-2.873,3.343-2.873a7.888,7.888,0,0,1,2.537.475l-.121,1.133a5.907,5.907,0,0,0-2.274-.492c-1.312,0-2.215.411-2.215,1.756,0,1.962,5.052,1.712,5.052,5.164,0,2.233-2.034,3-3.584,3a7.537,7.537,0,0,1-2.88-.5Z" transform="translate(-311.521 -63.026)"/>
      </g>
    </g>
    <path id="Path_159" data-name="Path 159" class="cls-1" d="M343.569,115.319a1.96,1.96,0,1,1,1.959,1.96A1.961,1.961,0,0,1,343.569,115.319Zm3.441,0a1.485,1.485,0,1,0-1.482,1.58A1.5,1.5,0,0,0,347.01,115.319Zm-2.236-1.118h.825c.532,0,.819.185.819.652a.554.554,0,0,1-.581.6l.6.972h-.424l-.575-.955h-.249v.955h-.413Zm.413.95h.363c.244,0,.456-.033.456-.331,0-.26-.239-.3-.451-.3h-.369Z" transform="translate(-210.701 -69.523)"/>
  </g>
</svg>
