<svg xmlns="http://www.w3.org/2000/svg" width="112.243" height="35.555" viewBox="0 0 112.243 35.555">
  <defs>
    <style>
      .cls-1 {
        fill: #55565a;
      }

      .cls-2 {
        fill: #0f79be;
      }
    </style>
  </defs>
  <g id="PrimeCare" transform="translate(-18 -9.106)">
    <g id="Group_114" data-name="Group 114" transform="translate(18 9.106)">
      <g id="Group_111" data-name="Group 111" transform="translate(22.344 25.65)">
        <path id="Path_93" data-name="Path 93" class="cls-1" d="M98.345,102.293h1.865c1.457,0,2.67.509,2.67,2.13,0,1.579-1.233,2.14-2.517,2.14h-1v2.843H98.345Zm1.019,3.373h1.009a1.28,1.28,0,0,0,1.426-1.254c0-.9-.937-1.223-1.569-1.223h-.866Z" transform="translate(-98.345 -101.641)"/>
        <path id="Path_94" data-name="Path 94" class="cls-1" d="M116.672,109.1a3.308,3.308,0,0,1,1.712-.489c1.488,0,2.089.734,2.089,2.151v2.15a8.223,8.223,0,0,0,.041,1.019h-.9v-.673h-.02a1.928,1.928,0,0,1-1.61.795c-1.121,0-1.906-.489-1.906-1.62,0-1.3,1.427-1.712,2.415-1.712.377,0,.642,0,1.019.02,0-.9-.326-1.355-1.284-1.355a2.443,2.443,0,0,0-1.508.53Zm2.843,2.354c-.2,0-.408-.02-.612-.02-.52,0-1.8.082-1.8,1a.915.915,0,0,0,.968.846,1.312,1.312,0,0,0,1.447-1.365Z" transform="translate(-111.047 -106.165)"/>
        <path id="Path_95" data-name="Path 95" class="cls-1" d="M136.366,108.734h.9v.8h.02a1.582,1.582,0,0,1,1.355-.927,2.7,2.7,0,0,1,.632.072v.856a1.421,1.421,0,0,0-.53-.091c-.856,0-1.416.815-1.416,2.119v2.364h-.958Z" transform="translate(-125.575 -106.165)"/>
        <path id="Path_96" data-name="Path 96" class="cls-1" d="M151.216,106.011h-1.376v2.843a.824.824,0,0,0,.805.927,1.182,1.182,0,0,0,.652-.184v.816a3.007,3.007,0,0,1-.815.142c-.988,0-1.6-.468-1.6-1.508v-3.036h-1.172v-.775h1.172v-1.2l.958-.306v1.508h1.376Z" transform="translate(-133.701 -102.668)"/>
        <path id="Path_97" data-name="Path 97" class="cls-1" d="M173.913,108.611a2.563,2.563,0,0,1,2.639,2.721,2.645,2.645,0,1,1-5.289,0A2.566,2.566,0,0,1,173.913,108.611Zm0,4.667a1.742,1.742,0,0,0,1.62-1.946,1.652,1.652,0,1,0-3.251,0A1.743,1.743,0,0,0,173.913,113.278Z" transform="translate(-150.568 -106.165)"/>
        <path id="Path_98" data-name="Path 98" class="cls-1" d="M192.627,103.337H191.4v-.775h1.223v-.479c0-1.263.326-2.089,1.742-2.089a3.948,3.948,0,0,1,.642.061l-.041.775a1.492,1.492,0,0,0-.459-.062c-.825,0-.927.53-.927,1.233v.561h1.376v.775h-1.376v4.422h-.958Z" transform="translate(-164.993 -99.994)"/>
        <path id="Path_99" data-name="Path 99" class="cls-1" d="M218.13,101.861a3.355,3.355,0,0,1,3.424,3.679c0,2.16-1.253,3.678-3.424,3.678s-3.424-1.518-3.424-3.678A3.355,3.355,0,0,1,218.13,101.861Zm0,6.461c1.641,0,2.344-1.366,2.344-2.782,0-1.447-.775-2.792-2.344-2.782-1.569-.011-2.343,1.335-2.343,2.782C215.786,106.956,216.489,108.322,218.13,108.322Z" transform="translate(-181.682 -101.331)"/>
        <path id="Path_100" data-name="Path 100" class="cls-1" d="M242.711,108.734h.917v.734h.02a2.08,2.08,0,0,1,1.763-.856c1.508,0,2.242,1.233,2.242,2.629,0,1.427-.662,2.812-2.232,2.812a1.862,1.862,0,0,1-1.732-.835h-.02v2.853h-.958Zm2.5.652c-1.04,0-1.539.989-1.539,1.957,0,.866.448,1.936,1.529,1.936,1.029,0,1.457-1.151,1.437-1.967C246.654,110.374,246.247,109.386,245.208,109.386Z" transform="translate(-201.739 -106.165)"/>
        <path id="Path_101" data-name="Path 101" class="cls-1" d="M264.633,106.011h-1.375v2.843a.824.824,0,0,0,.8.927,1.18,1.18,0,0,0,.652-.184v.816a3,3,0,0,1-.815.142c-.988,0-1.6-.468-1.6-1.508v-3.036h-1.172v-.775H262.3v-1.2l.958-.306v1.508h1.375Z" transform="translate(-214.929 -102.668)"/>
        <path id="Path_102" data-name="Path 102" class="cls-1" d="M281.412,114.24h-.927v-.826h-.02a1.868,1.868,0,0,1-1.7.948c-1.345,0-1.947-.835-1.947-2.232v-3.087h.958v2.69c0,1.213.265,1.8,1.1,1.855,1.091,0,1.58-.876,1.58-2.14v-2.4h.958Z" transform="translate(-226.164 -106.475)"/>
        <path id="Path_103" data-name="Path 103" class="cls-1" d="M297.82,108.734h.9v.754h.02a1.758,1.758,0,0,1,1.651-.876,1.536,1.536,0,0,1,1.478,1.009,1.853,1.853,0,0,1,1.61-1.009c1.325,0,1.8.856,1.8,1.987v3.332h-.958v-3.1c0-.642-.153-1.447-.927-1.447-.978,0-1.365.958-1.365,1.926v2.619h-.958v-3.1c0-.642-.153-1.447-.927-1.447-.978,0-1.366.958-1.366,1.926v2.619h-.958Z" transform="translate(-241.207 -106.165)"/>
        <path id="Path_104" data-name="Path 104" class="cls-1" d="M333.185,103.155a2.854,2.854,0,0,0-1.467-.4,2.783,2.783,0,0,0-.051,5.564,3.5,3.5,0,0,0,1.549-.347l.061.989a4.447,4.447,0,0,1-1.62.254,3.5,3.5,0,0,1-3.75-3.709,3.545,3.545,0,0,1,3.76-3.649,3.912,3.912,0,0,1,1.6.306Z" transform="translate(-262.755 -101.331)"/>
        <path id="Path_105" data-name="Path 105" class="cls-1" d="M349.284,109.1a3.309,3.309,0,0,1,1.712-.489c1.488,0,2.089.734,2.089,2.151v2.15a8.223,8.223,0,0,0,.041,1.019h-.9v-.673h-.02a1.928,1.928,0,0,1-1.61.795c-1.121,0-1.905-.489-1.905-1.62,0-1.3,1.427-1.712,2.415-1.712.377,0,.642,0,1.019.02,0-.9-.326-1.355-1.284-1.355a2.443,2.443,0,0,0-1.508.53Zm2.843,2.354c-.2,0-.408-.02-.611-.02-.52,0-1.8.082-1.8,1a.915.915,0,0,0,.968.846,1.312,1.312,0,0,0,1.447-1.365Z" transform="translate(-277.642 -106.165)"/>
        <path id="Path_106" data-name="Path 106" class="cls-1" d="M368.979,108.734h.9v.8h.02a1.581,1.581,0,0,1,1.355-.927,2.7,2.7,0,0,1,.632.072v.856a1.419,1.419,0,0,0-.53-.091c-.856,0-1.416.815-1.416,2.119v2.364h-.958Z" transform="translate(-292.171 -106.165)"/>
        <path id="Path_107" data-name="Path 107" class="cls-1" d="M385.157,113.717a3.991,3.991,0,0,1-1.641.336,2.487,2.487,0,0,1-2.691-2.812,2.414,2.414,0,0,1,2.435-2.629c1.733,0,2.293,1.264,2.293,2.935h-3.709a1.7,1.7,0,0,0,1.712,1.732,3.071,3.071,0,0,0,1.6-.52Zm-.622-2.884a1.312,1.312,0,0,0-1.294-1.447,1.439,1.439,0,0,0-1.4,1.447Z" transform="translate(-300.655 -106.165)"/>
      </g>
      <g id="Group_113" data-name="Group 113" transform="translate(0 0)">
        <g id="Group_112" data-name="Group 112">
          <path id="Path_108" data-name="Path 108" class="cls-2" d="M298.361,12.427l-.009.015-.011-.015v.032" transform="translate(-219.102 -11.484)"/>
          <path id="Path_109" data-name="Path 109" class="cls-1" d="M18,10.278h4.921c4.226,0,8.089,1.222,8.089,5.866,0,4.531-3.307,6.174-7.479,6.174H21.892v7.364H18Zm3.892,8.981h1.361c1.948,0,3.7-.641,3.7-2.893s-1.7-3.028-3.7-3.028H21.892Z" transform="translate(-18 -9.945)"/>
          <path id="Path_110" data-name="Path 110" class="cls-1" d="M65.415,27.364h3.307v3.253h.054c.167-1.333,1.7-3.586,3.922-3.586a4.163,4.163,0,0,1,1.141.109V30.9a3.818,3.818,0,0,0-1.671-.307c-3.031,0-3.031,3.781-3.031,5.841v5.251H65.415Z" transform="translate(-51.958 -21.944)"/>
          <path id="Path_111" data-name="Path 111" class="cls-1" d="M100.475,28.208V42.524H104.2V28.208Z" transform="translate(-77.167 -22.787)"/>
          <path id="Path_112" data-name="Path 112" class="cls-1" d="M119.883,27.364h3.474v2h.053a5.05,5.05,0,0,1,4.253-2.335,4.18,4.18,0,0,1,4.228,2.529,4.913,4.913,0,0,1,4.475-2.529c3.53,0,4.531,2.418,4.531,5.613v9.036h-3.726V33.147c0-1.335,0-3.224-2.139-3.224-2.474,0-2.78,2.946-2.78,4.81v6.947h-3.726V33.147c0-1.335,0-3.224-2.14-3.224-2.472,0-2.78,2.946-2.78,4.81v6.947h-3.723Z" transform="translate(-91.113 -21.944)"/>
          <path id="Path_113" data-name="Path 113" class="cls-1" d="M211.851,40.876a9.867,9.867,0,0,1-4.923,1.138c-4.728,0-7.476-2.723-7.476-7.423,0-4.141,2.194-7.56,6.644-7.56,5.31,0,6.811,3.641,6.811,8.644h-9.9a3.747,3.747,0,0,0,4.087,3.616,9.655,9.655,0,0,0,4.757-1.447Zm-2.5-7.757c-.113-1.809-.946-3.365-3.031-3.365s-3.141,1.445-3.311,3.365Z" transform="translate(-148.193 -21.944)"/>
          <path id="Path_114" data-name="Path 114" class="cls-2" d="M267.053,11.606a6.9,6.9,0,0,0-2.113-.654,15.091,15.091,0,0,0-2.226-.178,8.4,8.4,0,0,0-3.349.626,6.791,6.791,0,0,0-2.459,1.749,7.761,7.761,0,0,0-1.531,2.655,10.128,10.128,0,0,0-.526,3.334,10.579,10.579,0,0,0,.513,3.38,7.4,7.4,0,0,0,1.5,2.644,6.916,6.916,0,0,0,2.458,1.72,8.627,8.627,0,0,0,3.392.628c.318,0,.671-.015,1.058-.043s.779-.068,1.168-.124a8.028,8.028,0,0,0,1.139-.249,4.3,4.3,0,0,0,.973-.418l.11,1.667a3.418,3.418,0,0,1-.957.4,11.877,11.877,0,0,1-1.2.251c-.416.065-.826.11-1.235.139s-.76.04-1.058.04a11.026,11.026,0,0,1-4.115-.721,8.675,8.675,0,0,1-3.071-2.046,8.862,8.862,0,0,1-1.931-3.169,12.019,12.019,0,0,1-.669-4.1,11.6,11.6,0,0,1,.681-4.041,9.065,9.065,0,0,1,1.962-3.187,8.862,8.862,0,0,1,3.083-2.07,10.735,10.735,0,0,1,4.06-.735c.276,0,.622.014,1.025.04s.831.072,1.256.127a10.209,10.209,0,0,1,1.21.222,4.431,4.431,0,0,1,.957.335Z" transform="translate(-186.565 -9.106)"/>
          <path id="Path_115" data-name="Path 115" class="cls-2" d="M317.051,39.755h-.056a4.106,4.106,0,0,1-.8,1.123,4.681,4.681,0,0,1-1.1.818,5.063,5.063,0,0,1-1.276.5,5.439,5.439,0,0,1-1.332.167,5.656,5.656,0,0,1-2.421-.442,4.009,4.009,0,0,1-1.414-1.072,3.283,3.283,0,0,1-.671-1.321,5.318,5.318,0,0,1-.167-1.168,4.18,4.18,0,0,1,.848-2.779,5.094,5.094,0,0,1,2.141-1.488,10.074,10.074,0,0,1,2.822-.6c1.017-.073,1.993-.111,2.921-.111h.33v-.723a4.348,4.348,0,0,0-.722-2.739,3.044,3.044,0,0,0-2.5-.9,8.857,8.857,0,0,0-2.156.263,6.68,6.68,0,0,0-2.014.9v-1.7c.28-.129.588-.251.931-.373a8.838,8.838,0,0,1,1.083-.307c.379-.084.757-.153,1.128-.208a6.77,6.77,0,0,1,1.029-.084,5,5,0,0,1,3.808,1.25,5.8,5.8,0,0,1,1.166,4.028v6.259c0,.575,0,1.093.015,1.558a9.785,9.785,0,0,0,.126,1.415h-1.723Zm-.169-4.869h-.5c-.76,0-1.534.035-2.324.1a8.276,8.276,0,0,0-2.137.446,3.842,3.842,0,0,0-1.574,1.025,2.686,2.686,0,0,0-.613,1.853,2.205,2.205,0,0,0,.865,1.974,3.623,3.623,0,0,0,2.085.582,4.217,4.217,0,0,0,2.391-.582,3.551,3.551,0,0,0,1.251-1.4A5.076,5.076,0,0,0,316.8,37.2c.054-.575.081-1.059.081-1.448Z" transform="translate(-225.937 -22.293)"/>
          <path id="Path_116" data-name="Path 116" class="cls-2" d="M352.993,31.021v-1c0-.279-.006-.538-.015-.778s-.024-.47-.043-.683-.033-.449-.055-.707h1.748v2.723h.057a8.984,8.984,0,0,1,.585-1.136,4.651,4.651,0,0,1,.79-.991,3.679,3.679,0,0,1,1.031-.681,3.07,3.07,0,0,1,1.238-.249,4.305,4.305,0,0,1,.655.056c.23.036.419.074.57.11v1.836a4.451,4.451,0,0,0-1.28-.169,2.755,2.755,0,0,0-1.738.529,3.672,3.672,0,0,0-1.072,1.35,6.866,6.866,0,0,0-.554,1.837,11.83,11.83,0,0,0-.166,1.959v7h-1.751Z" transform="translate(-258.296 -22.293)"/>
          <path id="Path_117" data-name="Path 117" class="cls-2" d="M383.628,41.585a9.391,9.391,0,0,1-2.032.586,12.2,12.2,0,0,1-2.085.193,7.254,7.254,0,0,1-2.988-.557,5.1,5.1,0,0,1-2-1.555,6.53,6.53,0,0,1-1.111-2.361,11.917,11.917,0,0,1-.346-2.946,9.933,9.933,0,0,1,.429-2.99A7.155,7.155,0,0,1,374.7,29.6a5.636,5.636,0,0,1,1.9-1.529,5.857,5.857,0,0,1,5.014.016,4.989,4.989,0,0,1,1.752,1.524,6.539,6.539,0,0,1,1,2.241,10.855,10.855,0,0,1,.322,2.7v.89h-9.7a7.1,7.1,0,0,0,.306,2.126,5.208,5.208,0,0,0,.888,1.711,4.285,4.285,0,0,0,1.463,1.153,4.528,4.528,0,0,0,2.014.429,6.045,6.045,0,0,0,1.041-.1c.383-.064.754-.141,1.115-.235a8.539,8.539,0,0,0,1.029-.333,4.905,4.905,0,0,0,.792-.391Zm-.863-7.644a8.31,8.31,0,0,0-.2-1.805,5.076,5.076,0,0,0-.625-1.587,3.354,3.354,0,0,0-1.126-1.111,3.174,3.174,0,0,0-1.666-.413,3.411,3.411,0,0,0-1.741.44,4.577,4.577,0,0,0-1.3,1.139,5.215,5.215,0,0,0-.837,1.587,5.544,5.544,0,0,0-.291,1.75Z" transform="translate(-272.751 -22.293)"/>
          <rect id="Rectangle_39" data-name="Rectangle 39" class="cls-2" width="3.903" height="2.862" transform="translate(23.239 1.174)"/>
        </g>
      </g>
    </g>
    <g id="Group_115" data-name="Group 115" transform="translate(125.952 34.928)">
      <path id="Path_118" data-name="Path 118" class="cls-1" d="M399.982,102.656a2.146,2.146,0,1,1,2.145,2.146A2.148,2.148,0,0,1,399.982,102.656Zm3.768,0a1.626,1.626,0,1,0-1.623,1.73A1.647,1.647,0,0,0,403.75,102.656Zm-2.448-1.224h.9c.582,0,.9.2.9.714a.607.607,0,0,1-.636.654l.654,1.064h-.464l-.629-1.046h-.273v1.046H401.3Zm.452,1.041h.4c.267,0,.5-.036.5-.363,0-.285-.261-.333-.493-.333h-.4Z" transform="translate(-399.982 -100.511)"/>
    </g>
  </g>
</svg>
