<svg xmlns="http://www.w3.org/2000/svg" width="148.987" height="53.66" viewBox="0 0 148.987 53.66">
  <defs>
    <style>
      .cls-1 {
        fill: #55565a;
      }

      .cls-2 {
        fill: #0f79be;
      }

      .cls-3 {
        fill: #5c95cf;
      }

      .cls-4 {
        fill: #8eaddb;
      }
    </style>
  </defs>
  <g id="ValleyPhysiciansNetwork" transform="translate(-18 -0.688)">
    <g id="Group_109" data-name="Group 109" transform="translate(18.834 45.443)">
      <path id="Path_50" data-name="Path 50" class="cls-1" d="M20.19,121.458h1.677c1.31,0,2.4.458,2.4,1.914,0,1.42-1.109,1.924-2.263,1.924h-.9v2.556H20.19Zm.916,3.032h.907a1.151,1.151,0,0,0,1.283-1.127c0-.806-.843-1.1-1.411-1.1h-.779Z" transform="translate(-20.19 -120.872)"/>
      <path id="Path_51" data-name="Path 51" class="cls-1" d="M32.61,126.133a2.976,2.976,0,0,1,1.539-.44c1.337,0,1.878.66,1.878,1.933v1.933a7.534,7.534,0,0,0,.036.916h-.806v-.6h-.019a1.734,1.734,0,0,1-1.447.714c-1.007,0-1.713-.439-1.713-1.456,0-1.173,1.283-1.539,2.171-1.539.339,0,.577,0,.916.018,0-.806-.293-1.219-1.154-1.219a2.2,2.2,0,0,0-1.356.477Zm2.556,2.116c-.183,0-.367-.018-.55-.018-.467,0-1.622.073-1.622.9a.823.823,0,0,0,.87.76,1.18,1.18,0,0,0,1.3-1.228Z" transform="translate(-27.554 -123.495)"/>
      <path id="Path_52" data-name="Path 52" class="cls-1" d="M45.677,125.8h.806v.725H46.5a1.422,1.422,0,0,1,1.218-.834,2.415,2.415,0,0,1,.568.065v.77a1.265,1.265,0,0,0-.477-.083c-.77,0-1.273.733-1.273,1.905v2.126h-.861Z" transform="translate(-35.977 -123.495)"/>
      <path id="Path_53" data-name="Path 53" class="cls-1" d="M56.432,124.473H55.2v2.555a.742.742,0,0,0,.724.834,1.059,1.059,0,0,0,.587-.166v.733a2.708,2.708,0,0,1-.733.128c-.888,0-1.438-.421-1.438-1.356v-2.73H53.281v-.7h1.053V122.7l.861-.275v1.355h1.237Z" transform="translate(-40.687 -121.467)"/>
      <path id="Path_54" data-name="Path 54" class="cls-1" d="M71.451,125.693a2.3,2.3,0,0,1,2.372,2.446,2.378,2.378,0,1,1-4.754,0A2.307,2.307,0,0,1,71.451,125.693Zm0,4.2a1.567,1.567,0,0,0,1.456-1.75,1.485,1.485,0,1,0-2.922,0A1.568,1.568,0,0,0,71.451,129.889Z" transform="translate(-50.466 -123.495)"/>
      <path id="Path_55" data-name="Path 55" class="cls-1" d="M83.67,122.922h-1.1v-.7h1.1V121.8c0-1.136.293-1.879,1.567-1.879a3.539,3.539,0,0,1,.577.055l-.037.7a1.364,1.364,0,0,0-.412-.055c-.742,0-.834.477-.834,1.109v.5h1.237v.7H84.531V126.9H83.67Z" transform="translate(-58.828 -119.917)"/>
      <path id="Path_56" data-name="Path 56" class="cls-1" d="M101.268,121.17a3.315,3.315,0,1,1-3.078,3.306A3.016,3.016,0,0,1,101.268,121.17Zm0,5.808c1.475,0,2.107-1.228,2.107-2.5,0-1.3-.7-2.51-2.107-2.5-1.41-.009-2.107,1.2-2.107,2.5C99.161,125.75,99.793,126.978,101.268,126.978Z" transform="translate(-68.503 -120.693)"/>
      <path id="Path_57" data-name="Path 57" class="cls-1" d="M116.961,125.8h.824v.66h.019a1.871,1.871,0,0,1,1.585-.77,2.088,2.088,0,0,1,2.015,2.364c0,1.282-.6,2.528-2.006,2.528a1.673,1.673,0,0,1-1.557-.751h-.019V132.4h-.861Zm2.245.587c-.935,0-1.383.889-1.383,1.759,0,.779.4,1.741,1.374,1.741.925,0,1.31-1.036,1.291-1.769C120.507,127.278,120.14,126.389,119.206,126.389Z" transform="translate(-80.13 -123.495)"/>
      <path id="Path_58" data-name="Path 58" class="cls-1" d="M132.458,124.473h-1.237v2.555a.742.742,0,0,0,.724.834,1.06,1.06,0,0,0,.587-.166v.733a2.7,2.7,0,0,1-.733.128c-.889,0-1.438-.421-1.438-1.356v-2.73h-1.054v-.7h1.054V122.7l.861-.275v1.355h1.237Z" transform="translate(-87.777 -121.467)"/>
      <path id="Path_59" data-name="Path 59" class="cls-1" d="M143.956,130.654h-.834v-.742H143.1a1.681,1.681,0,0,1-1.53.851c-1.209,0-1.75-.751-1.75-2.007v-2.776h.861V128.4c0,1.09.238,1.622.99,1.668.98,0,1.42-.788,1.42-1.924v-2.163h.861Z" transform="translate(-94.292 -123.673)"/>
      <path id="Path_60" data-name="Path 60" class="cls-1" d="M153.9,125.8h.806v.679h.018a1.58,1.58,0,0,1,1.484-.788,1.381,1.381,0,0,1,1.328.907,1.664,1.664,0,0,1,1.448-.907c1.191,0,1.621.77,1.621,1.787v3h-.861V127.69c0-.577-.137-1.3-.834-1.3-.88,0-1.227.861-1.227,1.731v2.355h-.862V127.69c0-.577-.137-1.3-.833-1.3-.88,0-1.228.861-1.228,1.731v2.355H153.9Z" transform="translate(-103.012 -123.495)"/>
      <path id="Path_61" data-name="Path 61" class="cls-1" d="M178.816,122.333a2.57,2.57,0,0,0-1.319-.358,2.5,2.5,0,0,0-.046,5,3.144,3.144,0,0,0,1.393-.312l.055.889a3.986,3.986,0,0,1-1.457.229,3.15,3.15,0,0,1-3.371-3.335,3.186,3.186,0,0,1,3.38-3.279,3.52,3.52,0,0,1,1.438.274Z" transform="translate(-115.504 -120.693)"/>
      <path id="Path_62" data-name="Path 62" class="cls-1" d="M188.538,126.133a2.974,2.974,0,0,1,1.539-.44c1.337,0,1.878.66,1.878,1.933v1.933a7.418,7.418,0,0,0,.037.916h-.806v-.6h-.018a1.734,1.734,0,0,1-1.447.714c-1.008,0-1.713-.439-1.713-1.456,0-1.173,1.283-1.539,2.171-1.539.339,0,.577,0,.916.018,0-.806-.293-1.219-1.154-1.219a2.2,2.2,0,0,0-1.356.477Zm2.556,2.116c-.183,0-.366-.018-.55-.018-.467,0-1.621.073-1.621.9a.823.823,0,0,0,.87.76,1.18,1.18,0,0,0,1.3-1.228Z" transform="translate(-124.135 -123.495)"/>
      <path id="Path_63" data-name="Path 63" class="cls-1" d="M201.6,125.8h.806v.725h.018a1.423,1.423,0,0,1,1.219-.834,2.409,2.409,0,0,1,.568.065v.77a1.262,1.262,0,0,0-.476-.083c-.77,0-1.273.733-1.273,1.905v2.126H201.6Z" transform="translate(-132.558 -123.495)"/>
      <path id="Path_64" data-name="Path 64" class="cls-1" d="M213.44,130.283a3.578,3.578,0,0,1-1.475.3,2.236,2.236,0,0,1-2.419-2.528,2.171,2.171,0,0,1,2.19-2.364c1.557,0,2.061,1.136,2.061,2.639h-3.335A1.529,1.529,0,0,0,212,129.889a2.759,2.759,0,0,0,1.438-.468Zm-.559-2.593a1.179,1.179,0,0,0-1.164-1.3,1.294,1.294,0,0,0-1.255,1.3Z" transform="translate(-137.477 -123.495)"/>
    </g>
    <path id="Path_65" data-name="Path 65" class="cls-1" d="M21.724,63.632h.964c2.086,0,4.053-.241,4.053-2.77a2.515,2.515,0,0,0-2.766-2.772H21.724ZM20.34,56.887h3.451c2.631,0,4.338,1.324,4.338,3.975,0,2.609-1.967,3.974-4.475,3.974H21.724V70.9H20.34Z" transform="translate(-1.449 -35.141)"/>
    <path id="Path_66" data-name="Path 66" class="cls-1" d="M44.492,54.148h1.261v6.541h.041a3.471,3.471,0,0,1,3.192-1.968c2.749,0,3.493,1.828,3.493,4.356V69.2H51.216V63.1c0-1.765-.344-3.291-2.43-3.291-2.249,0-3.032,2.127-3.032,3.915V69.2H44.492Z" transform="translate(-16.409 -33.437)"/>
    <path id="Path_67" data-name="Path 67" class="cls-1" d="M72.515,75.331h.021L75.486,66.8h1.327l-4.1,11.763c-.483,1.4-1.2,2.81-2.63,2.81a6.075,6.075,0,0,1-1.365-.16l.121-1.087a2.6,2.6,0,0,0,.944.163c1.081,0,1.445-.9,1.846-2.226l.26-.905L68.26,66.8h1.387Z" transform="translate(-31.131 -41.346)"/>
    <path id="Path_68" data-name="Path 68" class="cls-1" d="M91.263,75.16a6.023,6.023,0,0,0,2.67.643c1.2,0,2.267-.662,2.267-1.826,0-2.428-4.915-2.046-4.915-5.018,0-2.027,1.644-2.789,3.332-2.789a8.038,8.038,0,0,1,2.529.461l-.122,1.1a5.947,5.947,0,0,0-2.268-.483c-1.3,0-2.208.4-2.208,1.706,0,1.907,5.038,1.666,5.038,5.018,0,2.168-2.026,2.911-3.573,2.911a7.7,7.7,0,0,1-2.87-.482Z" transform="translate(-45.639 -40.916)"/>
    <path id="Path_69" data-name="Path 69" class="cls-1" d="M112.175,59.616h1.265V69.853h-1.265Zm1.264-2.73h-1.265V55.2h1.265Z" transform="translate(-58.747 -34.091)"/>
    <path id="Path_70" data-name="Path 70" class="cls-1" d="M127.458,67.773a5.776,5.776,0,0,0-2.189-.523c-2.469,0-3.854,1.789-3.854,4.275,0,2.329,1.407,4.276,3.717,4.276a6.534,6.534,0,0,0,2.3-.461l.121,1.184a7.535,7.535,0,0,1-2.629.361c-3.291,0-4.9-2.509-4.9-5.361,0-3.149,2.027-5.359,5.057-5.359a7.626,7.626,0,0,1,2.47.4Z" transform="translate(-63.667 -40.913)"/>
    <path id="Path_71" data-name="Path 71" class="cls-1" d="M143.6,59.616h1.264V69.853H143.6Zm1.264-2.73H143.6V55.2h1.264Z" transform="translate(-78.349 -34.091)"/>
    <path id="Path_72" data-name="Path 72" class="cls-1" d="M157.944,71.488h-.362c-2.186,0-4.8.22-4.8,2.469,0,1.345.964,1.847,2.129,1.847,2.969,0,3.03-2.59,3.03-3.695ZM158.066,75h-.039a3.609,3.609,0,0,1-3.253,1.887c-2.912,0-3.371-1.967-3.371-2.89,0-3.433,3.65-3.592,6.3-3.592h.24v-.522c0-1.748-.62-2.63-2.329-2.63a5.442,5.442,0,0,0-3.01.842V66.872a8.06,8.06,0,0,1,3.01-.7c2.531,0,3.6,1.144,3.6,3.812V74.5a14.786,14.786,0,0,0,.1,2.149h-1.244Z" transform="translate(-83.245 -40.916)"/>
    <path id="Path_73" data-name="Path 73" class="cls-1" d="M177.845,68.818c0-.783,0-1.586-.08-2.408h1.223v1.828h.04a3.244,3.244,0,0,1,3.312-2.069c2.53,0,3.493,1.686,3.493,3.935v6.541h-1.264v-6.22c0-1.928-.682-3.172-2.429-3.172-2.309,0-3.03,2.027-3.03,3.733v5.658h-1.264Z" transform="translate(-99.696 -40.914)"/>
    <path id="Path_74" data-name="Path 74" class="cls-1" d="M203.185,75.16a6.011,6.011,0,0,0,2.669.643c1.205,0,2.268-.662,2.268-1.826,0-2.428-4.917-2.046-4.917-5.018,0-2.027,1.646-2.789,3.333-2.789a8.06,8.06,0,0,1,2.529.461l-.121,1.1a5.971,5.971,0,0,0-2.27-.483c-1.3,0-2.206.4-2.206,1.706,0,1.907,5.038,1.666,5.038,5.018,0,2.168-2.027,2.911-3.573,2.911a7.708,7.708,0,0,1-2.87-.482Z" transform="translate(-115.474 -40.916)"/>
    <path id="Path_75" data-name="Path 75" class="cls-1" d="M236.8,56.887h1.746l7.127,12.325h.042V56.887H247.1V70.9h-1.866l-7.005-12.083h-.039V70.9H236.8Z" transform="translate(-136.552 -35.141)"/>
    <path id="Path_76" data-name="Path 76" class="cls-1" d="M275.232,70.8c0-1.787-.723-3.554-2.611-3.554-1.866,0-3.01,1.868-3.01,3.554Zm.622,5.518a8.372,8.372,0,0,1-2.971.564c-3.39,0-4.656-2.288-4.656-5.361,0-3.13,1.725-5.359,4.315-5.359,2.891,0,4.075,2.329,4.075,5.079v.643h-7.006c0,2.168,1.163,3.913,3.372,3.913a6.579,6.579,0,0,0,2.87-.762Z" transform="translate(-156.149 -40.913)"/>
    <path id="Path_77" data-name="Path 77" class="cls-1" d="M297.232,63.148h-2.327V69.77c0,.925.34,1.687,1.363,1.687a2.919,2.919,0,0,0,1.166-.241l.08,1.044a4.591,4.591,0,0,1-1.546.281c-2.249,0-2.329-1.545-2.329-3.414v-5.98h-2.007V62.064h2.007V59.595l1.266-.443v2.912h2.327Z" transform="translate(-170.732 -36.552)"/>
    <path id="Path_78" data-name="Path 78" class="cls-1" d="M318.619,77.039h-1.526L314.3,68.187h-.039l-2.791,8.853h-1.524L306.654,66.8h1.385l2.689,8.85h.04l2.852-8.85h1.526l2.71,8.85h.038l2.833-8.85h1.264Z" transform="translate(-180.197 -41.307)"/>
    <path id="Path_79" data-name="Path 79" class="cls-1" d="M352.347,75.8c2.207,0,3.393-1.908,3.393-4.278s-1.186-4.273-3.393-4.273-3.392,1.906-3.392,4.273,1.184,4.278,3.392,4.278m0-9.635c3.312,0,4.778,2.569,4.778,5.358s-1.466,5.361-4.778,5.361-4.777-2.57-4.777-5.361,1.465-5.358,4.777-5.358" transform="translate(-205.867 -40.916)"/>
    <path id="Path_80" data-name="Path 80" class="cls-1" d="M376.964,68.7a18.276,18.276,0,0,0-.081-2.287h1.266v1.968h.038a3.034,3.034,0,0,1,2.627-2.209,3.759,3.759,0,0,1,.885.119v1.328a3.273,3.273,0,0,0-.923-.122c-2.007,0-2.55,2.249-2.55,4.1v5.058h-1.262Z" transform="translate(-224.023 -40.914)"/>
    <path id="Path_81" data-name="Path 81" class="cls-1" d="M392.8,54.148V69.2h1.264V63.942l5.059,5.259h1.745l-5.6-5.7,5-4.535h-1.625l-4.578,4.194v-9.01Z" transform="translate(-233.883 -33.437)"/>
    <path id="Path_82" data-name="Path 82" class="cls-1" d="M22.577,26.9,20.74,31.983h-.017L18.932,26.9H18l2.189,5.812H21.23L23.451,26.9Z" transform="translate(0 -16.366)"/>
    <path id="Path_83" data-name="Path 83" class="cls-1" d="M59.926,27.687l-1.158,2.88h2.314Zm-.409-.784h.876l2.456,5.812h-.908l-.592-1.467H58.5l-.59,1.467h-.875Z" transform="translate(-24.179 -16.366)"/>
    <path id="Path_84" data-name="Path 84" class="cls-1" d="M99.617,26.9h.831v5.079h2.431v.732H99.617Z" transform="translate(-50.918 -16.366)"/>
    <path id="Path_85" data-name="Path 85" class="cls-1" d="M135.683,26.9h.833v5.079h2.43v.732h-3.262Z" transform="translate(-73.418 -16.366)"/>
    <path id="Path_86" data-name="Path 86" class="cls-1" d="M171.88,26.9h3.254v.734h-2.421v1.7h2.2v.732h-2.2v1.916h2.421v.732H171.88Z" transform="translate(-96.001 -16.366)"/>
    <path id="Path_87" data-name="Path 87" class="cls-1" d="M209.627,30.284l-2.27-3.381h.971l1.733,2.605,1.69-2.605h.975l-2.264,3.381v2.43h-.833Z" transform="translate(-118.146 -16.366)"/>
    <path id="Path_88" data-name="Path 88" class="cls-2" d="M261.9.688,235.834,16.7h15.424L269.614,5.424Z" transform="translate(-136.154 0)"/>
    <path id="Path_89" data-name="Path 89" class="cls-3" d="M291.782,24.411l10.646-6.54-7.713-4.737L276.358,24.411Z" transform="translate(-161.393 -7.709)"/>
    <path id="Path_90" data-name="Path 90" class="cls-2" d="M332.3.688l-7.713,4.737,7.713,4.737,10.643,6.54h15.422L340.01,5.424Z" transform="translate(-191.632 0)"/>
    <path id="Path_91" data-name="Path 91" class="cls-4" d="M316.882,32.12h21.291l-10.645-6.54Z" transform="translate(-186.858 -15.542)"/>
    <g id="Group_110" data-name="Group 110" transform="translate(94.862 45.592)">
      <path id="Path_92" data-name="Path 92" class="cls-1" d="M222.357,122.233a1.924,1.924,0,1,1,1.924,1.925A1.926,1.926,0,0,1,222.357,122.233Zm3.38,0a1.458,1.458,0,1,0-1.456,1.552A1.477,1.477,0,0,0,225.737,122.233Zm-2.2-1.1h.81c.522,0,.8.182.8.64a.544.544,0,0,1-.57.586l.587.954h-.416l-.564-.938h-.245v.938h-.405Zm.405.934h.357c.24,0,.448-.032.448-.326,0-.255-.234-.3-.442-.3h-.362Z" transform="translate(-222.357 -120.309)"/>
    </g>
  </g>
</svg>
